SplineFontDB: 3.0
FontName: CMUSerif-Bold
FullName: CMU Serif Bold Extended Roman
FamilyName: CMU Serif
Weight: Bold
Copyright: Converted by Andrey V. Panov from TeX fonts. Some glyphs are copied from Blue Sky fonts released by AMS.
UComments: "2009-6-18: Created." 
Version: 0.7.0
ItalicAngle: 0
UnderlinePosition: -100
UnderlineWidth: 50
Ascent: 800
Descent: 200
LayerCount: 2
Layer: 0 0 "+BBcEMAQ0BD0EOAQ5 +BD8EOwQwBD0A"  1
Layer: 1 0 "+BB8ENQRABDUENAQ9BDgEOQAA +BD8EOwQwBD0A"  0
NeedsXUIDChange: 1
XUID: [1067 3315559]
FSType: 0
OS2Version: 0
OS2_WeightWidthSlopeOnly: 0
OS2_UseTypoMetrics: 1
CreationTime: 1245310924
ModificationTime: 1245311603
PfmFamily: 17
TTFWeight: 700
TTFWidth: 5
LineGap: 200
VLineGap: 90
OS2TypoAscent: 0
OS2TypoAOffset: 1
OS2TypoDescent: 0
OS2TypoDOffset: 1
OS2TypoLinegap: 200
OS2WinAscent: 937
OS2WinAOffset: 0
OS2WinDescent: 308
OS2WinDOffset: 0
HheadAscent: 937
HheadAOffset: 0
HheadDescent: -308
HheadDOffset: 0
Lookup: 1 0 0 "Case substitutions"  {"Case substitutions subtable"  } ['case' ('cyrl' <'dflt' > 'grek' <'dflt' > 'latn' <'dflt' > ) ]
Lookup: 1 0 0 "Greek small to smallcaps"  {"Greek small to smallcaps subtable"  } ['smcp' ('grek' <'dflt' > ) ]
Lookup: 1 0 0 "Greek caps to smallcaps"  {"Greek caps to smallcaps subtable"  } ['c2sc' ('grek' <'dflt' > ) ]
Lookup: 1 0 0 "LC small to smallcaps"  {"LC small to smallcaps subtable"  } ['smcp' ('latn' <'dflt' > 'cyrl' <'dflt' > ) ]
Lookup: 1 0 0 "LC caps to smallcaps"  {"LC caps to smallcaps subtable"  } ['c2sc' ('latn' <'dflt' > 'cyrl' <'dflt' > ) ]
Lookup: 3 0 0 "Greek alternatives"  {"Greek alternatives subtable"  } ['salt' ('grek' <'dflt' > ) ]
Lookup: 1 0 0 "Greek substitutions"  {"Greek substitutions subtable"  } ['locl' ('grek' <'dflt' > ) ]
Lookup: 4 0 1 "Latin Dutch ligatures"  {"Latin Dutch ligatures subtable"  } ['liga' ('latn' <'NLD ' > ) ]
Lookup: 4 0 1 "Latin ligatures excepting Turkic"  {"Latin ligatures excepting Turkic subtable"  } ['liga' ('latn' <'dflt' 'NLD ' 'VIT ' > ) ]

StartChar: .notdef
Encoding: 0 0 0
Width: 760
Flags: HW
HStem: 10 60<105 655> 705 60<105 655>
VStem: 10 60<112 663> 690 60<112 663>
DStem2: 105 705 70 663 0.702289 -0.711892<5.31938 389.612 448.699 832.991> 70 112 105 70 0.702289 0.711892<0 384.292 443.379 827.672>
LayerCount: 2
Fore
SplineSet
10 10 m 1
 10 765 l 1
 750 765 l 1
 750 10 l 1
 10 10 l 1
70 112 m 1
 346 388 l 1
 70 663 l 1
 70 112 l 1
105 70 m 1
 655 70 l 1
 380 346 l 1
 105 70 l 1
105 705 m 1
 380 429 l 1
 655 705 l 1
 105 705 l 1
414 388 m 1
 690 112 l 1
 690 663 l 1
 414 388 l 1
EndSplineSet
EndChar

StartChar: uni262D
Encoding: 9773 9773 1
Width: 700
Flags: HW
TeX: 117 0
HStem: -1 21G<56 93 593.5 601> 39 76<321.786 462.78> 102 51<140.549 177.987>
VStem: 129 54<101.776 137.734> 556 82<197.341 366.709>
DStem2: 123 357 178 301 0.707107 0.707107<0 86.9741 130.108 182.434>
LayerCount: 2
Fore
SplineSet
40 18 m 0
 40 64 129 102 129 128 c 0
 129 148 134 153 148 153 c 0xb8
 162 153 164 157 182 180 c 1
 229 156 307 115 390 115 c 0
 438 115 463 128 463 129 c 0
 463 135 406 186 240 363 c 1
 178 301 l 1
 123 357 l 1
 252 486 l 1
 347 470 l 1
 271 393 l 1
 484 190 l 1
 513 165 l 1
 519 165 556 218 556 295 c 0
 556 473 346 588 346 593 c 1
 394 593 638 478 638 267 c 0
 638 167 592 118 580 100 c 1
 636 44 637 42 637 38 c 0xd8
 637 17 605 -1 597 -1 c 2
 596 -1 l 2
 591 -1 590 1 529 62 c 1
 500 51 474 39 428 39 c 0xd8
 297 39 201 138 188 138 c 0
 183 138 182 134 182 130 c 0
 182 126 183 123 183 118 c 0
 183 108 178 102 168 102 c 0
 131 102 122 0 64 -0 c 0
 48 0 40 7 40 18 c 0
EndSplineSet
EndChar

StartChar: longs
Encoding: 383 383 2
Width: 351
Flags: HW
TeX: 108 0
HStem: 3 44<48 117 225 312> 397 47<42 117> 664 36<266.333 335.183>
VStem: 117 108<47 397 444 620.562> 314 123<565.667 660.946>
AnchorPoint: "above" 322 694 basechar 0
AnchorPoint: "below" 171 0 basechar 0
LayerCount: 2
Fore
SplineSet
42 397 m 1
 42 444 l 1
 117 444 l 1
 117 545 l 2
 117 658 225 700 323 700 c 0
 401 700 437 655 437 613 c 0
 437 572 405 551 375 551 c 0
 349 551 314 570 314 613 c 0
 314 632 322 651 337 662 c 1
 330 664 325 664 320 664 c 0
 295 664 225 655 225 545 c 2
 225 47 l 1
 312 47 l 1
 312 0 l 1
 276 3 212 3 174 3 c 0
 128 3 83 1 48 0 c 1
 48 47 l 1
 117 47 l 1
 117 397 l 1
 42 397 l 1
EndSplineSet
EndChar

StartChar: florin
Encoding: 402 402 3
Width: 600
Flags: HW
TeX: 102 0
HStem: -206 37<99.6892 160.088> 397 47<160.33 277 392 527.576> 669 37<437.523 500.038>
VStem: 22 121<-142.99 -70.0752> 458 120<569.722 643.352>
DStem2: 229 136 335 135 0.178885 0.98387<-227.165 265.377 332.19 521.161>
LayerCount: 2
Fore
SplineSet
22 -123 m 0
 22 -62 78 -49 93 -49 c 0
 119 -49 143 -65 143 -95 c 0
 143 -134 111 -153 99 -160 c 1
 108 -164 119 -169 130 -169 c 0
 172 -169 183 -114 229 136 c 2
 277 397 l 1
 192 397 l 2
 169 397 160 400 160 417 c 0
 160 441 175 444 194 444 c 2
 285 444 l 1
 293 452 296 580 343 645 c 0
 371 685 420 706 466 706 c 0
 529 706 578 674 578 623 c 0
 578 561 521 548 507 548 c 0
 479 548 458 567 458 595 c 0
 458 633 489 653 501 659 c 1
 487 666 477 669 468 669 c 0
 446 669 435 648 432 642 c 0
 425 627 398 477 392 444 c 1
 500 444 l 2
 519 444 528 436 528 425 c 0
 528 402 515 397 495 397 c 2
 383 397 l 1
 335 135 l 2
 311 5 294 -54 273 -97 c 0
 244 -157 187 -206 130 -206 c 0
 69 -205 22 -173 22 -123 c 0
EndSplineSet
EndChar

StartChar: uni03F5
Encoding: 1013 1013 4
Width: 572
Flags: HW
TeX: 117 0
HStem: -6 48<346.091 498> 204 64<191 417> 212 48<223.375 450> 402 48<333.787 498>
LayerCount: 2
Fore
SplineSet
70 226 m 0xd0
 70 360 192 450 498 450 c 1
 498 402 l 1
 373 402 224 376 191 268 c 1xd0
 450 260 l 1
 450 212 l 1xb0
 186 204 l 1
 192 175 207 127 280 88 c 0
 340 56 423 42 498 42 c 1
 498 -6 l 1
 318 -6 70 41 70 226 c 0xd0
EndSplineSet
EndChar

StartChar: uni03F1
Encoding: 1009 1009 5
Width: 622
Flags: HW
HStem: -217 108<207.525 453.14> -6 28<259.166 358.026> 422 28<258.552 359.271>
VStem: 63 114<112.356 324.305> 443 114<139.478 322.944>
LayerCount: 2
Fore
SplineSet
63 222 m 0
 63 239 64 254 65 264 c 0
 81 376 190 450 310 450 c 0
 440 450 557 363 557 234 c 0
 557 114 456 -6 310 -6 c 0
 214 -6 156 45 130 70 c 1
 155 -17 172 -109 281 -109 c 2
 362 -109 l 2
 490 -109 526 -209 526 -234 c 0
 526 -246 519 -250 513 -250 c 0
 492 -250 472 -217 354 -217 c 2
 292 -217 l 2
 188 -217 132 -168 87 13 c 0
 71 76 63 164 63 222 c 0
177 231 m 0
 177 160 204 22 310 22 c 0
 402 22 443 132 443 230 c 0
 443 341 389 422 309 422 c 0
 227 422 177 336 177 231 c 0
EndSplineSet
EndChar

StartChar: phi1
Encoding: 981 981 6
Width: 721
Flags: HW
HStem: -4 39<232.056 330.985> 409 39<397 484.454>
VStem: 64 118<124.379 270.669> 303 114<-259.851 -76.3846 453.504 698.851> 336 48<45 345.797> 538 118<171.564 321.269>
LayerCount: 2
Fore
SplineSet
64 222 m 0
 64 344 143 437 323 448 c 1
 314 566 303 647 303 654 c 0
 303 690 330 710 360 710 c 0
 390 710 417 690 417 654 c 0
 417 647 406 566 397 448 c 1
 633 434 656 284 656 222 c 0
 656 98 574 4 389 -4 c 1
 398 -135 417 -206 417 -215 c 0
 417 -251 390 -271 360 -271 c 0
 330 -271 303 -251 303 -215 c 0xf4
 303 -206 322 -135 331 -4 c 1
 87 7 64 159 64 222 c 0
182 164 m 0
 182 121 186 35 317 35 c 0
 323 35 328 35 334 36 c 1
 335 66 336 99 336 135 c 0
 336 228 332 318 327 397 c 1
 220 358 182 241 182 164 c 0
384 135 m 0xec
 384 103 385 73 386 45 c 1
 499 80 538 201 538 280 c 0
 538 323 534 409 403 409 c 2
 394 409 l 1
 388 328 384 233 384 135 c 0xec
EndSplineSet
EndChar

StartChar: u1D703
Encoding: 65536 120579 7
Width: 606
Flags: HW
HStem: -5 36<242.197 332.755> 355 33<191 418> 663 36<274.217 363.803>
VStem: 64 121<210.578 355 388 502.084> 421 121<194.589 355 388 483.422>
LayerCount: 2
Fore
SplineSet
64 377 m 0
 64 576 166 699 293 699 c 0
 424 699 542 570 542 317 c 0
 542 118 445 -5 313 -5 c 0
 182 -5 64 124 64 377 c 0
185 232 m 0
 185 112 226 31 287 31 c 0
 375 31 409 178 418 355 c 1
 188 355 l 1
 186 315 185 274 185 232 c 0
191 388 m 1
 420 388 l 1
 421 412 421 437 421 462 c 0
 421 582 380 663 319 663 c 0
 240 663 204 542 191 388 c 1
EndSplineSet
EndChar

StartChar: circumflex.cap
Encoding: 65537 -1 8
Width: 575
Flags: HW
HStem: 736 164
VStem: 130 314
AnchorPoint: "above" 287 697 mark 0
LayerCount: 2
Fore
SplineSet
130 775 m 1
 287 900 l 1
 444 775 l 1
 416 736 l 1
 287 817 l 1
 158 736 l 1
 130 775 l 1
EndSplineSet
EndChar

StartChar: dieresis.cap
Encoding: 65538 -1 9
Width: 575
Flags: HW
HStem: 738 156<121.829 229.399 344.829 452.399>
VStem: 98 156<762.215 869.785> 321 156<762.215 869.785>
AnchorPoint: "above" 288 697 mark 0
LayerCount: 2
Back
SplineSet
198 816 m 4
 198 863 238 894 276 894 c 4
 317 894 354 861 354 816 c 4
 354 777 322 738 276 738 c 4
 235 738 198 771 198 816 c 4
421 816 m 4
 421 857 453 894 499 894 c 4
 540 894 577 862 577 816 c 4
 577 769 537 738 499 738 c 4xf280
 459 738 421 771 421 816 c 4
EndSplineSet
Fore
Refer: 10 -1 S 1 0 0 1 -112 -8 2
Refer: 10 -1 S 1 0 0 1 111 -8 2
EndChar

StartChar: dotaccent.cap
Encoding: 65539 -1 10
Width: 575
Flags: HW
HStem: 746 156<233.829 341.399>
VStem: 210 156<770.215 877.785>
AnchorPoint: "above" 288 697 mark 0
LayerCount: 2
Back
SplineSet
389 825 m 4
 389 864 421 902 467 902 c 4
 508 902 545 869 545 824 c 4
 545 786 513 747 467 747 c 4
 422 747 389 784 389 825 c 4
EndSplineSet
Fore
SplineSet
210 824 m 0
 210 867 244 902 288 902 c 0
 330 902 366 867 366 824 c 0
 366 781 330 746 288 746 c 0
 244 746 210 781 210 824 c 0
EndSplineSet
EndChar

StartChar: caron.cap
Encoding: 65540 -1 11
Width: 575
Flags: HW
HStem: 758 93<250.212 325.154> 868 26<126.769 132.63 441.288 447.231>
AnchorPoint: "above" 287 697 mark 0
LayerCount: 2
Fore
SplineSet
118 868 m 1
 130 894 l 1
 286 851 280 851 287 851 c 0
 294 851 288 851 444 894 c 1
 456 868 l 1
 294 759 296 758 287 758 c 0
 280 758 279 760 118 868 c 1
EndSplineSet
EndChar

StartChar: ring.cap
Encoding: 65541 -1 12
Width: 575
Flags: HW
HStem: 719 36<226.837 348.433> 866 36<227.481 349.249>
VStem: 169 47<763.488 856.822> 360 47<764.074 857.408>
AnchorPoint: "above" 288 697 mark 0
LayerCount: 2
Back
SplineSet
168 810 m 0
 168 847 195 902 288 902 c 0
 361 902 407 865 407 810 c 0
 407 774 381 719 287 719 c 0
 215 719 168 756 168 810 c 0
216 811 m 0
 216 759 249 755 285 755 c 2
 288 755 l 2
 333 755 360 762 360 810 c 0
 360 862 327 865 291 866 c 2
 287 866 l 2
 243 866 216 858 216 811 c 0
EndSplineSet
Fore
SplineSet
169 811 m 0
 169 853 198 902 288 902 c 0
 375 902 407 852 407 810 c 0
 407 768 378 719 288 719 c 0
 201 719 169 769 169 811 c 0
216 811 m 0
 216 761 245 755 288 755 c 0
 331 755 360 761 360 811 c 0
 360 861 328 866 288 866 c 0
 248 866 216 861 216 811 c 0
EndSplineSet
EndChar

StartChar: breve.cap
Encoding: 65542 -1 13
Width: 575
Flags: HW
HStem: 755 63<190.426 383.027>
VStem: 109 36<856.616 894> 427 38<853.687 894>
AnchorPoint: "above" 287 697 mark 0
LayerCount: 2
Fore
SplineSet
109 894 m 1
 145 894 l 1
 151 831 227 818 287 818 c 0
 347 818 421 831 427 894 c 1
 465 894 l 1
 459 798 367 755 287 755 c 0
 207 755 115 798 109 894 c 1
EndSplineSet
EndChar

StartChar: grave
Encoding: 96 96 14
Width: 575
Flags: HW
TeX: 648 0
HStem: 494 168
VStem: 112 219
LayerCount: 2
Fore
SplineSet
112 599 m 0
 112 630 139 662 171 662 c 0
 197 662 203 652 292 570 c 0
 305 558 318 546 331 534 c 1
 306 494 l 1
 137 552 112 553 112 599 c 0
EndSplineSet
EndChar

StartChar: acute
Encoding: 180 180 15
Width: 575
Flags: HW
TeX: 648 0
HStem: 494 168
VStem: 243 218
LayerCount: 2
Fore
SplineSet
243 535 m 1
 371 653 376 662 403 662 c 0
 438 662 461 627 461 599 c 0
 461 553 432 551 268 494 c 1
 243 535 l 1
EndSplineSet
EndChar

StartChar: circumflex
Encoding: 710 710 16
Width: 575
Flags: HW
TeX: 648 0
HStem: 474 184
VStem: 128 318
LayerCount: 2
Fore
SplineSet
128 510 m 1
 287 658 l 1
 288 658 l 1
 446 510 l 1
 415 474 l 1
 288 576 l 1
 287 576 l 1
 159 474 l 1
 128 510 l 1
EndSplineSet
EndChar

StartChar: tilde
Encoding: 732 732 17
Width: 575
Flags: HW
TeX: 648 0
HStem: 586 74<281.345 417.568> 620 74<154.909 291.062>
LayerCount: 2
Fore
SplineSet
95 611 m 1
 143 663 163 694 216 694 c 0x40
 272 694 320 660 376 660 c 0x80
 410 660 426 672 451 694 c 1x40
 478 669 l 1
 430 618 409 586 356 586 c 0x80
 300 586 253 620 197 620 c 0x40
 163 620 146 608 121 586 c 1x80
 95 611 l 1
EndSplineSet
EndChar

StartChar: dieresis
Encoding: 168 168 18
Width: 575
Flags: HW
TeX: 690 0
HStem: 530 156<121.988 227.536 345.464 451.012>
VStem: 97 155<554.395 661.208> 321 155<555.36 661.208>
LayerCount: 2
Fore
SplineSet
97 608 m 0
 97 647 129 686 175 686 c 0
 216 686 252 653 252 608 c 0
 252 565 217 530 175 530 c 0
 134 530 97 562 97 608 c 0
321 608 m 0
 321 651 356 686 398 686 c 0
 439 686 476 653 476 608 c 0
 476 561 436 530 398 530 c 0
 357 530 321 563 321 608 c 0
EndSplineSet
EndChar

StartChar: ring
Encoding: 730 730 20
Width: 869
Flags: HW
TeX: 648 0
HStem: 487 35<372.135 495.201> 626 35<373.052 495.73>
VStem: 314 48<529.222 617.31> 506 47<529.865 618.778>
LayerCount: 2
Fore
SplineSet
314 574 m 0
 314 609 341 661 435 661 c 0
 527 661 553 609 553 574 c 0
 553 524 509 487 434 487 c 0
 340 487 314 539 314 574 c 0
362 574 m 0
 362 522 398 522 438 522 c 0
 469 522 506 524 506 574 c 0
 506 626 470 626 428 626 c 0
 400 626 362 623 362 574 c 0
EndSplineSet
EndChar

StartChar: caron
Encoding: 711 711 21
Width: 575
Flags: HW
TeX: 648 0
HStem: 470 194
LayerCount: 2
Fore
SplineSet
115 641 m 1
 115 642 l 1
 132 664 l 1
 133 664 l 1
 278 581 280 578 287 578 c 2
 288 578 l 2
 295 578 296 580 441 664 c 1
 442 664 l 1
 460 642 l 1
 460 641 l 1
 288 470 l 1
 287 470 l 1
 115 641 l 1
EndSplineSet
EndChar

StartChar: breve
Encoding: 728 728 22
Width: 575
Flags: HW
TeX: 648 0
HStem: 494 62<199.376 375.773> 633 20G<109 148 424.5 464>
VStem: 109 36<605.162 653> 428 36<607.528 653>
LayerCount: 2
Fore
SplineSet
109 653 m 1
 145 653 l 1
 151 568 250 556 287 556 c 0
 323 556 421 568 428 653 c 1
 464 653 l 1
 460 548 370 494 287 494 c 0
 199 494 112 553 109 653 c 1
EndSplineSet
EndChar

StartChar: macron
Encoding: 175 175 23
Width: 575
Flags: HW
TeX: 690 0
HStem: 645 52<80 495>
LayerCount: 2
Fore
SplineSet
80 645 m 1
 80 697 l 1
 495 697 l 1
 495 645 l 1
 80 645 l 1
EndSplineSet
EndChar

StartChar: dotaccent
Encoding: 729 729 24
Width: 319
Flags: HW
TeX: 690 0
HStem: 539 155<121.395 228.012>
VStem: 97 156<563.375 669.208>
LayerCount: 2
Fore
SplineSet
97 617 m 0
 97 656 129 694 175 694 c 0
 216 694 253 661 253 616 c 0
 253 577 221 539 175 539 c 0
 128 539 97 578 97 617 c 0
EndSplineSet
EndChar

StartChar: cedilla
Encoding: 184 184 25
Width: 511
Flags: HW
TeX: 0 170
HStem: -199 36<102 260.384> -60 60<198 279.877>
VStem: 293 115<-141.662 -75.3532>
LayerCount: 2
Fore
SplineSet
102 -163 m 1
 113 -163 l 2
 220 -163 292 -154 293 -110 c 0
 293 -89 277 -61 198 -60 c 1
 198 0 l 1
 312 0 l 1
 312 -30 l 1
 335 -34 408 -46 408 -110 c 0
 408 -187 289 -199 116 -199 c 2
 102 -199 l 1
 102 -163 l 1
EndSplineSet
EndChar

StartChar: ogonek
Encoding: 731 731 26
Width: 319
Flags: HW
TeX: 0 194
HStem: -217 72<74 184.656>
VStem: -5 118<-140.384 -73.8185>
LayerCount: 2
Fore
SplineSet
-5 -128 m 0
 -5 -40 116 -28 174 4 c 0
 186 11 197 19 208 28 c 1
 224 1 l 1
 224 -0 l 1
 183 -36 113 -70 113 -112 c 0
 113 -132 134 -145 156 -145 c 0
 194 -145 219 -114 233 -93 c 1
 263 -113 l 1
 238 -159 185 -217 108 -217 c 0
 40 -217 -5 -171 -5 -128 c 0
EndSplineSet
EndChar

StartChar: guilsinglleft
Encoding: 8249 8249 28
Width: 511
Flags: HW
TeX: 472 0
HStem: 1 21G<357 368>
VStem: 129 251
LayerCount: 2
Fore
SplineSet
129 236 m 0
 129 261 234 279 340 452 c 0
 344 459 350 472 364 472 c 0
 372 472 380 468 380 457 c 0
 380 441 338 331 247 236 c 1
 331 152 380 33 380 15 c 0
 380 5 372 1 364 1 c 0
 350 1 344 13 340 20 c 0
 243 185 129 212 129 236 c 0
EndSplineSet
EndChar

StartChar: guilsinglright
Encoding: 8250 8250 29
Width: 511
Flags: HW
TeX: 472 0
HStem: 1 21G<142 152>
VStem: 129 251
LayerCount: 2
Fore
SplineSet
129 16 m 0
 129 33 171 141 262 236 c 1
 178 319 129 439 129 457 c 0
 129 468 137 472 145 472 c 0
 159 472 165 459 169 452 c 0
 215 373 280 307 357 259 c 0
 371 250 380 245 380 236 c 0
 380 227 371 222 357 213 c 0
 291 171 222 110 169 20 c 0
 164 11 159 1 145 1 c 0
 139 1 129 4 129 16 c 0
EndSplineSet
EndChar

StartChar: endash
Encoding: 8211 8211 35
Width: 575
Flags: HW
TeX: 444 0
ItalicCorrection: 31
HStem: 256 36<0 574 0 574>
VStem: 0 574<256 292 256 292>
LayerCount: 2
Fore
SplineSet
0 256 m 1
 0 292 l 1
 574 292 l 1
 574 256 l 1
 0 256 l 1
EndSplineSet
EndChar

StartChar: emdash
Encoding: 8212 8212 36
Width: 1150
Flags: HW
TeX: 444 0
ItalicCorrection: 31
HStem: 256 36<0 1149 0 1149>
VStem: 0 1149<256 292 256 292>
LayerCount: 2
Fore
SplineSet
0 256 m 1
 0 292 l 1
 1149 292 l 1
 1149 256 l 1
 0 256 l 1
EndSplineSet
Substitution2: "Cyrillic substitutions subtable" emdash.cyr
AlternateSubs2: "Cyrillic alternatives subtable" emdash.cyr
EndChar

StartChar: dotlessi
Encoding: 305 305 38
Width: 319
Flags: HW
TeX: 444 0
HStem: 0 47<47 116> 395 55
VStem: 116 108<47 356 356 375.5>
AnchorPoint: "below" 170 0 basechar 0
AnchorPoint: "above" 170 453 basechar 0
LayerCount: 2
Fore
SplineSet
47 0 m 1
 47 47 l 1
 116 47 l 1
 116 356 l 2
 116 395 109 395 50 395 c 1
 50 442 l 1
 224 450 l 1
 224 47 l 1
 286 47 l 1
 286 0 l 1
 250 1 199 3 169 3 c 0
 127 3 78 1 47 0 c 1
EndSplineSet
Substitution2: "LC small to smallcaps subtable" I.sc
EndChar

StartChar: dotlessj
Encoding: 567 567 39
Width: 351
Flags: HW
TeX: 444 194
HStem: -200 36<76 114 76 129> 395 55
VStem: -56 125<-115.5 -91> 159 108<-42 355 355 365.5>
AnchorPoint: "below" 124 -194 basechar 0
AnchorPoint: "above" 213 453 basechar 0
LayerCount: 2
Fore
SplineSet
-56 -109 m 0
 -56 -73 -31 -46 7 -46 c 0
 43 -46 69 -73 69 -108 c 0
 69 -123 64 -144 45 -158 c 1
 60 -162 68 -164 84 -164 c 0
 144 -164 159 -92 159 -42 c 2
 159 355 l 2
 159 376 159 389 137 393 c 0
 122 395 100 395 83 395 c 1
 83 442 l 1
 267 450 l 1
 267 -42 l 2
 267 -148 172 -200 86 -200 c 0
 4 -200 -56 -166 -56 -109 c 0
EndSplineSet
Substitution2: "LC small to smallcaps subtable" J.sc
EndChar

StartChar: ff
Encoding: 64256 64256 40
Width: 671
Flags: HW
TeX: 690 0
ItalicCorrection: 109
HStem: 3 45<35 105 213 283 354 424 532 619> 397 48<31 105 213 424 532 648> 663 37<271.921 427.974 567.905 643.717>
VStem: 105 108<48 397 445 610.889> 424 108<48 397 445 580.574> 622 123<565.527 660.859>
LayerCount: 2
Fore
SplineSet
31 397 m 1
 31 445 l 1
 105 445 l 1
 105 540 l 2
 105 668 259 700 374 700 c 0
 457 700 478 669 493 669 c 0
 506 669 541 699 631 699 c 0
 717 699 745 648 745 613 c 0
 745 577 718 551 684 551 c 0
 650 551 622 576 622 613 c 0
 622 643 641 658 645 662 c 1
 639 663 634 663 628 663 c 0
 595 663 525 649 527 540 c 1
 527 445 l 1
 648 445 l 1
 648 397 l 1
 532 397 l 1
 532 48 l 1
 619 48 l 1
 619 0 l 1
 572 2 526 3 479 3 c 0
 429 3 391 2 354 0 c 1
 354 48 l 1
 424 48 l 1
 424 397 l 1
 213 397 l 1
 213 48 l 1
 283 48 l 1
 283 0 l 1
 240 2 197 3 154 3 c 0
 106 3 71 1 35 0 c 1
 35 48 l 1
 105 48 l 1
 105 397 l 1
 31 397 l 1
208 445 m 1
 424 445 l 1
 424 530 l 2
 424 567 400 559 400 600 c 0
 400 632 420 646 429 653 c 1
 405 660 391 663 366 663 c 0
 294 663 208 639 208 542 c 2
 208 445 l 1
EndSplineSet
Substitution2: "LC small to smallcaps subtable" FF.sc
Ligature2: "Latin ligatures subtable" f f
EndChar

StartChar: fi
Encoding: 64257 64257 41
Width: 639
Flags: HW
TeX: 690 0
HStem: 0 48<36 105 214 283 354 424 532 602> 397 48<31 105 214 423.461> 434 20G<354 532> 663 37<274.108 438.718>
VStem: 105 109<48 397 445 611.365> 397 131<534.253 629.032> 424 108<48 396.656>
LayerCount: 2
Fore
SplineSet
31 397 m 1
 31 445 l 1
 105 445 l 1
 105 541 l 2
 105 668 261 700 378 700 c 0
 481 700 528 636 528 584 c 0
 528 545 500 518 462 518 c 0
 425 518 397 545 397 583 c 0
 397 624 429 639 441 645 c 1
 415 658 397 663 368 663 c 0xdc
 298 663 208 639 208 541 c 2
 208 445 l 1
 354 445 l 1xdc
 354 449 l 1
 532 454 l 1
 532 48 l 1
 602 48 l 1
 602 0 l 1
 566 1 531 3 483 3 c 0
 440 3 397 2 354 0 c 1
 354 48 l 1
 424 48 l 1
 424 365 l 2xba
 424 392 415 397 395 397 c 2
 214 397 l 1
 214 48 l 1
 283 48 l 1
 283 0 l 1
 247 1 212 3 164 3 c 0
 121 3 79 2 36 0 c 1
 36 48 l 1
 105 48 l 1
 105 397 l 1
 31 397 l 1
EndSplineSet
Substitution2: "LC small to smallcaps subtable" FI.sc
Ligature2: "Latin ligatures excepting Turkic subtable" f i
EndChar

StartChar: fl
Encoding: 64258 64258 42
Width: 639
Flags: HW
TeX: 690 0
HStem: 0 48<36 105 214 283 354 424 532 602> 397 48<31 105 214 424> 663 37<272.067 418.245>
VStem: 105 109<48 397 445 611.842> 400 132<558.27 658.299> 424 108<48 397 445 593.273>
LayerCount: 2
Fore
SplineSet
31 397 m 1
 31 445 l 1
 105 445 l 1
 105 542 l 2
 105 668 258 700 375 700 c 0
 436 700 442 689 464 689 c 0
 471 689 481 690 532 694 c 1
 532 48 l 1
 602 48 l 1
 602 0 l 1
 566 1 531 3 483 3 c 0
 440 3 397 2 354 0 c 1
 354 48 l 1
 424 48 l 1
 424 397 l 1xf4
 214 397 l 1
 214 48 l 1
 283 48 l 1
 283 0 l 1
 247 1 212 3 164 3 c 0
 121 3 79 2 36 0 c 1
 36 48 l 1
 105 48 l 1
 105 397 l 1
 31 397 l 1
208 445 m 1
 424 445 l 1
 424 540 l 2xf4
 424 581 400 570 400 612 c 0xf8
 400 632 407 644 419 659 c 1
 403 662 386 663 368 663 c 0
 294 663 208 638 208 541 c 2
 208 445 l 1
EndSplineSet
Substitution2: "LC small to smallcaps subtable" FL.sc
Ligature2: "Latin ligatures subtable" f l
EndChar

StartChar: ffi
Encoding: 64259 64259 43
Width: 958
Flags: HW
TeX: 690 0
HStem: 0 48<36 105 214 283 355 424 533 602 674 743 852 921> 397 48<31 105 214 424 533 742.41> 434 20G<674 852> 663 37<272.673 434.81 594.493 759.681>
VStem: 105 109<48 397 445 611.365> 424 109<48 397 445 545.54> 717 131<533.8 631.288> 743 109<48 396.758>
LayerCount: 2
Fore
SplineSet
31 397 m 1
 31 445 l 1
 105 445 l 1
 105 541 l 2
 105 668 260 700 374 700 c 0
 445 700 478 669 493 655 c 1
 494 655 l 1
 562 695 646 700 697 700 c 0
 807 700 848 630 848 584 c 0
 848 543 818 518 782 518 c 0
 746 518 717 544 717 583 c 0xde
 717 615 735 635 761 645 c 1
 735 658 717 663 688 663 c 0
 619 663 527 639 527 541 c 2
 527 445 l 1
 674 445 l 1xde
 674 449 l 1
 852 454 l 1
 852 48 l 1
 921 48 l 1
 921 0 l 1
 885 1 850 3 802 3 c 0
 759 3 717 2 674 0 c 1
 674 48 l 1
 743 48 l 1
 743 365 l 2xbd
 743 394 733 397 714 397 c 2
 533 397 l 1
 533 48 l 1
 602 48 l 1
 602 0 l 1
 566 1 531 3 483 3 c 0
 440 3 398 2 355 0 c 1
 355 48 l 1
 424 48 l 1
 424 397 l 1
 214 397 l 1
 214 48 l 1
 283 48 l 1
 283 0 l 1
 247 1 212 3 164 3 c 0
 121 3 79 2 36 0 c 1
 36 48 l 1
 105 48 l 1
 105 397 l 1
 31 397 l 1
208 445 m 1
 424 445 l 1
 424 509 l 2xdc
 424 540 392 534 392 582 c 0
 392 602 400 630 436 645 c 1
 416 657 393 663 365 663 c 0
 297 663 208 639 208 542 c 2
 208 445 l 1
EndSplineSet
Substitution2: "LC small to smallcaps subtable" FFI.sc
Ligature2: "Latin ligatures excepting Turkic subtable" ff i
Ligature2: "Latin ligatures excepting Turkic subtable" f f i
EndChar

StartChar: ffl
Encoding: 64260 64260 44
Width: 958
Flags: HW
TeX: 690 0
HStem: 0 48<36 105 214 283 355 424 533 602 674 743 852 921> 397 48<31 105 214 424 533 743> 663 37<272.807 428.662 592.133 737.001>
VStem: 105 109<48 397 445 611.365> 424 109<48 397 445 581.375> 719 133<558.27 658.299> 743 109<48 397 445 593.273>
LayerCount: 2
Fore
SplineSet
31 397 m 1
 31 445 l 1
 105 445 l 1
 105 541 l 2
 105 668 260 700 376 700 c 0
 449 700 481 675 498 659 c 1
 524 671 575 700 692 700 c 0
 754 700 764 689 783 689 c 0
 790 689 803 690 852 694 c 1
 852 48 l 1
 921 48 l 1
 921 0 l 1
 885 1 850 3 802 3 c 0
 759 3 717 2 674 0 c 1
 674 48 l 1
 743 48 l 1
 743 397 l 1xfa
 533 397 l 1
 533 48 l 1
 602 48 l 1
 602 0 l 1
 566 1 531 3 483 3 c 0
 440 3 398 2 355 0 c 1
 355 48 l 1
 424 48 l 1
 424 397 l 1
 214 397 l 1
 214 48 l 1
 283 48 l 1
 283 0 l 1
 247 1 212 3 164 3 c 0
 121 3 79 2 36 0 c 1
 36 48 l 1
 105 48 l 1
 105 397 l 1
 31 397 l 1
208 445 m 1
 424 445 l 1
 424 530 l 2
 424 567 400 559 400 600 c 0
 400 632 421 646 430 653 c 1
 406 660 392 663 367 663 c 0
 295 663 208 639 208 542 c 2
 208 445 l 1
527 445 m 1
 743 445 l 1
 743 540 l 2xfa
 743 581 719 570 719 612 c 0xfc
 719 632 726 644 738 659 c 1
 722 662 705 663 687 663 c 0
 613 663 527 638 527 541 c 2
 527 445 l 1
EndSplineSet
Substitution2: "LC small to smallcaps subtable" FFL.sc
Ligature2: "Latin ligatures subtable" ff l
Ligature2: "Latin ligatures subtable" f f l
EndChar

StartChar: uni2423
Encoding: 9251 9251 45
Width: 575
Flags: HW
TeX: 444 97
HStem: -97 112<132.293 441.664>
VStem: 47 48<88.0164 112> 478 48<88.0164 112>
LayerCount: 2
Fore
SplineSet
47 112 m 1
 95 112 l 1
 119 31 139 15 215 15 c 2
 361 15 l 2
 439 15 455 37 478 112 c 1
 526 112 l 1
 465 -97 l 1
 108 -97 l 1
 47 112 l 1
EndSplineSet
EndChar

StartChar: exclam
Encoding: 33 33 46
Width: 350
Flags: HW
TeX: 690 0
HStem: 0 155<120.395 227.012>
VStem: 96 156<24.375 130.208> 96 157<476.375 681.566> 147 54<225.296 306.167>
LayerCount: 2
Fore
SplineSet
96 634 m 0
 96 679 138 705 174 705 c 0xa0
 210 705 253 679 253 633 c 0xa0
 253 622 251 611 249 600 c 2
 201 256 l 2
 198 233 196 225 174 225 c 0
 151 225 151 236 147 265 c 2x90
 100 599 l 2
 98 610 96 623 96 634 c 0
EndSplineSet
Refer: 24 729 S 1 0 0 1 -1 -539 2
EndChar

StartChar: quotedbl
Encoding: 34 34 47
Width: 575
Flags: HW
TeX: 690 0
VStem: 127 127<506.296 695.996> 320 127<506.682 695.766>
LayerCount: 2
Fore
SplineSet
127 650 m 0
 127 688 158 710 191 710 c 0
 226 710 254 685 254 650 c 0
 254 637 209 359 209 359 c 1
 172 359 l 1
 131 616 l 2
 129 627 127 639 127 650 c 0
320 650 m 0
 320 686 348 710 383 710 c 0
 418 710 447 687 447 650 c 0
 447 639 445 627 443 616 c 2
 402 359 l 1
 365 359 l 1
 365 359 320 638 320 650 c 0
EndSplineSet
EndChar

StartChar: numbersign
Encoding: 35 35 48
Width: 958
Flags: HW
TeX: 690 194
HStem: 120 37<64.0145 283 333 553 603 891.988> 343 36<64.0124 353 404 623 673 891.986> 673 20G<470 484 740 754>
DStem2: 198 -150 233 -160 0.301021 0.953617<-24.378 283.064 333.398 516.792 566.474 887.948> 462 -171 503 -160 0.299647 0.95405<-15.9585 304.896 355.179 538.625 587.953 909.762>
LayerCount: 2
Fore
SplineSet
64 138 m 0
 64 155 84 157 92 157 c 2
 295 157 l 1
 353 343 l 1
 94 343 l 2
 81 343 64 344 64 361 c 0
 64 378 81 379 96 379 c 2
 366 379 l 1
 374 407 383 436 454 660 c 0
 458 673 462 693 478 693 c 0
 490 693 496 680 495 670 c 0
 494 663 490 654 404 379 c 1
 635 379 l 1
 643 407 652 435 723 660 c 0
 727 673 732 693 748 693 c 0
 760 693 765 680 764 670 c 0
 763 663 759 654 673 379 c 1
 861 379 l 2
 873 379 892 377 892 361 c 0
 892 343 874 343 862 343 c 2
 661 343 l 1
 603 157 l 1
 862 157 l 2
 875 157 892 156 892 139 c 0
 892 122 876 120 861 120 c 2
 591 120 l 1
 583 92 574 65 503 -160 c 0
 499 -173 494 -193 478 -193 c 0
 466 -193 461 -181 462 -171 c 0
 463 -164 467 -155 553 120 c 1
 321 120 l 1
 313 92 304 65 233 -160 c 0
 229 -173 225 -193 209 -193 c 0
 198 -193 192 -183 192 -174 c 0
 192 -167 195 -158 198 -150 c 2
 283 120 l 1
 96 120 l 2
 84 120 64 122 64 138 c 0
333 157 m 1
 565 157 l 1
 623 343 l 1
 392 343 l 1
 333 157 l 1
EndSplineSet
EndChar

StartChar: dollar
Encoding: 36 36 49
Width: 575
Flags: HW
TeX: 749 55
HStem: -5 48<187.546 263 311 370.082> 127 125<123.956 173.044> 651 48<194.412 263 311 392.275>
VStem: 63 125<143.308 236.398> 63 81<488.757 590.216> 263 48<-55 -3.65176 44 283 439 651 697.739 750> 385 125<470.44 564.014> 429 81<111.474 226.513>
LayerCount: 2
Fore
SplineSet
63 185 m 0
 63 238 103 252 125 252 c 0
 161 252 188 224 188 189 c 0xf5
 188 168 178 130 123 127 c 1
 159 59 218 48 263 43 c 1
 263 293 l 1
 230 300 146 313 93 395 c 0
 77 420 63 454 63 497 c 0
 63 598 128 688 263 699 c 1
 263 750 l 1
 311 750 l 1
 311 699 l 1
 466 691 510 593 510 522 c 0
 510 469 470 456 448 456 c 0
 415 456 385 479 385 518 c 0xee
 385 537 395 577 448 581 c 1
 434 603 406 643 311 651 c 1
 311 428 l 1
 496 393 510 249 510 210 c 0
 510 151 487 14 311 -5 c 1
 311 -55 l 1
 263 -55 l 1
 263 -5 l 1
 94 6 63 127 63 185 c 0
144 546 m 0xec
 144 525 153 460 263 439 c 1
 263 651 l 1
 194 642 144 609 144 546 c 0xec
311 44 m 1
 416 57 429 132 429 162 c 0xe5
 429 184 421 260 311 283 c 1
 311 44 l 1
EndSplineSet
EndChar

StartChar: percent
Encoding: 37 37 50
Width: 958
Flags: HW
TeX: 749 55
HStem: -56 36<712.5 767 712.5 783> 311 36<712.5 769.5> 347 36<202.5 257 202.5 273> 608 36<516.5 551.5> 714 36<202.5 252.5 194 259.5>
VStem: 64 103<517 579.5 517 619> 336 47<483.5 557 477 611> 574 103<114 176.5 114 216> 846 47<80.5 208>
LayerCount: 2
Fore
SplineSet
64 549 m 0
 64 689 152 750 236 750 c 0
 269 750 293 739 314 724 c 0
 344 702 424 644 540 644 c 0
 628 644 693 679 737 731 c 0
 745 741 752 750 767 750 c 0
 781 750 797 739 797 719 c 0
 797 709 793 704 786 695 c 2
 217 -40 l 2
 210 -50 205 -56 191 -56 c 0
 174 -56 160 -42 160 -25 c 0
 160 -14 170 -1 171 0 c 2
 658 630 l 1
 608 610 562 608 541 608 c 0
 492 608 434 619 368 649 c 1
 383 602 383 566 383 548 c 0
 383 406 310 347 236 347 c 0
 155 347 64 404 64 549 c 0
167 548 m 0
 167 486 167 383 238 383 c 0
 276 383 336 418 336 549 c 0
 336 673 281 714 238 714 c 0
 167 714 167 611 167 548 c 0
574 146 m 0
 574 286 662 347 746 347 c 0
 816 347 893 292 893 145 c 0xdf80
 893 3 820 -56 746 -56 c 0
 665 -56 574 1 574 146 c 0
677 145 m 0
 677 83 677 -20 748 -20 c 0
 786 -20 846 15 846 146 c 0
 846 270 791 311 748 311 c 0
 677 311 677 208 677 145 c 0
EndSplineSet
EndChar

StartChar: ampersand
Encoding: 38 38 51
Width: 894
Flags: HW
TeX: 690 0
HStem: -11 47<226.5 271.5 226.5 291.5 647.5 680.5> 397 47<615 626> 669 36<340.5 377.5>
VStem: 48 128<91.5 197.5> 172 104<534 585.5> 415 47<554.5 589> 782 47<118 118>
LayerCount: 2
Fore
SplineSet
48 138 m 0
 48 166 58 193 79 218 c 0
 86 226 120 255 141 273 c 2xf6
 215 336 l 1
 185 405 172 469 172 528 c 0
 172 643 269 705 352 705 c 0
 430 705 462 627 462 574 c 0
 462 535 433 494 407 464 c 0
 379 433 334 391 320 379 c 1
 359 295 434 207 497 141 c 1
 572 213 632 299 688 387 c 1
 664 397 637 397 615 397 c 1
 615 444 l 1
 642 442 726 441 737 441 c 0
 764 441 804 442 836 444 c 1
 836 397 l 1
 783 397 750 397 736 377 c 2
 654 258 l 2
 608 191 575 157 529 110 c 1
 575 66 624 36 671 36 c 0
 690 36 778 43 782 118 c 1
 829 118 l 1
 826 34 748 -11 666 -11 c 0
 563 -11 483 36 455 52 c 1
 394 12 327 -11 256 -11 c 0
 146 -11 48 45 48 138 c 0
176 174 m 0
 176 145 185 36 268 36 c 0
 275 36 347 36 415 80 c 1
 325 148 266 236 231 302 c 1
 190 273 176 221 176 174 c 0
276 565 m 0
 276 503 293 444 305 415 c 1xee
 372 475 415 529 415 574 c 0
 415 604 402 669 353 669 c 0
 328 669 276 648 276 565 c 0
EndSplineSet
EndChar

StartChar: quoteright
Encoding: 8217 8217 52
Width: 319
Flags: HW
TeX: 690 0
HStem: 538 156<104.056 213.352>
VStem: 81 172<562.66 651.195>
LayerCount: 2
Fore
SplineSet
81 616 m 0
 81 659 113 694 159 694 c 0
 215 694 253 639 253 569 c 0
 253 433 148 345 131 345 c 0
 123 345 112 353 112 363 c 0
 112 387 203 413 216 562 c 1
 198 546 184 538 159 538 c 0
 112 538 81 573 81 616 c 0
EndSplineSet
EndChar

StartChar: parenleft
Encoding: 40 40 53
Width: 447
Flags: HW
TeX: 749 249
HStem: -249 21<354.5 368> 730 20<355.5 368>
VStem: 108 97<206 304>
LayerCount: 2
Fore
SplineSet
108 251 m 0
 108 357 131 541 287 696 c 0
 305 713 347 750 364 750 c 0
 372 750 382 747 382 736 c 0
 382 731 381 730 366 715 c 0
 256 604 205 447 205 250 c 0
 205 162 217 70 243 -9 c 0
 285 -137 350 -198 379 -225 c 0
 379 -226 382 -230 382 -235 c 0
 382 -246 372 -249 364 -249 c 0
 345 -249 254 -182 188 -67 c 0
 141 16 108 126 108 251 c 0
EndSplineSet
EndChar

StartChar: parenright
Encoding: 41 41 54
Width: 447
Flags: HW
TeX: 749 249
HStem: -249 21<78 90.5> 730 20<78 91.5>
VStem: 241 97<197 312.5 197 329.5>
LayerCount: 2
Fore
SplineSet
64 -235 m 0
 64 -230 65 -229 80 -214 c 0
 190 -103 241 54 241 251 c 0
 241 408 207 585 81 713 c 0
 64 729 64 731 64 736 c 0
 64 747 74 750 82 750 c 0
 101 750 192 683 258 568 c 0
 305 485 338 375 338 250 c 0
 338 144 315 -40 159 -195 c 0
 141 -212 99 -249 82 -249 c 0
 74 -249 64 -246 64 -235 c 0
EndSplineSet
EndChar

StartChar: asterisk
Encoding: 42 42 55
Width: 575
Flags: HW
TeX: 749 0
HStem: 306 21<278.5 295.5> 730 20<278.5 295.5>
VStem: 242 89
LayerCount: 2
Fore
SplineSet
74 440 m 0
 74 469 95 476 104 479 c 2
 245 528 l 1
 104 577 l 2
 95 580 74 587 74 616 c 0
 74 645 98 664 118 664 c 0
 124 664 133 662 145 653 c 2
 268 560 l 1
 246 688 l 2
 243 704 243 706 243 711 c 0
 243 739 270 750 287 750 c 0
 304 750 331 740 331 711 c 0
 331 706 331 704 328 688 c 2
 306 560 l 1
 429 653 l 2
 441 662 450 664 456 664 c 0
 476 664 500 645 500 616 c 0
 500 587 479 580 470 577 c 2
 329 528 l 1
 470 479 l 2
 479 476 500 469 500 440 c 0
 500 411 476 392 456 392 c 0
 451 392 442 393 429 403 c 2
 307 495 l 1
 320 418 l 2
 324 393 331 350 331 345 c 0
 331 317 304 306 287 306 c 0
 270 306 243 316 243 345 c 0
 243 350 243 352 246 368 c 2
 268 496 l 1
 145 403 l 2
 133 394 124 392 118 392 c 0
 98 392 74 411 74 440 c 0
EndSplineSet
EndChar

StartChar: plus
Encoding: 43 43 56
Width: 894
Flags: HW
TeX: 633 133
HStem: 232 36<64.0138 428 464 827.986>
VStem: 428 36<-131.987 232 268 631.986>
LayerCount: 2
Fore
SplineSet
64 250 m 0
 64 267 83 268 97 268 c 2
 428 268 l 1
 428 601 l 2
 428 614 430 632 446 632 c 0
 462 632 465 613 465 600 c 0
 465 596 464 592 464 590 c 2
 464 268 l 1
 795 268 l 2
 809 268 828 267 828 250 c 0
 828 234 810 231 797 231 c 0
 792 231 788 232 786 232 c 2
 464 232 l 1
 464 -90 l 2
 464 -93 465 -96 465 -100 c 0
 465 -114 462 -132 446 -132 c 0
 430 -132 428 -114 428 -100 c 2
 428 232 l 1
 98 232 l 2
 82 232 64 233 64 250 c 0
EndSplineSet
EndChar

StartChar: comma
Encoding: 44 44 57
Width: 319
Flags: HW
TeX: 155 194
HStem: -194 21<126 137.5> 0 156<135 175>
VStem: 81 169<58 65 -38.5 99.5>
LayerCount: 2
Fore
SplineSet
81 78 m 0
 81 121 112 156 158 156 c 0
 216 156 250 99 250 31 c 0
 250 -108 145 -194 130 -194 c 0
 122 -194 111 -184 111 -174 c 0
 111 -168 114 -165 120 -160 c 0
 141 -142 206 -89 214 20 c 1
 211 17 191 0 159 0 c 0
 108 0 81 38 81 78 c 0
EndSplineSet
EndChar

StartChar: hyphen
Encoding: 45 45 58
Width: 383
Flags: HW
TeX: 444 0
HStem: 174 97<12 318>
VStem: 12 306<174 271>
LayerCount: 2
Fore
SplineSet
12 174 m 1
 12 271 l 1
 318 271 l 1
 318 174 l 1
 12 174 l 1
EndSplineSet
EndChar

StartChar: period
Encoding: 46 46 59
Width: 319
Flags: HW
TeX: 155 0
HStem: 0 156<105.988 212.012>
VStem: 81 156<24.7918 130.64>
LayerCount: 2
Fore
SplineSet
81 78 m 0
 81 125 121 156 159 156 c 0
 200 156 237 123 237 78 c 0
 237 39 205 0 159 0 c 0
 118 0 81 33 81 78 c 0
EndSplineSet
EndChar

StartChar: slash
Encoding: 47 47 60
Width: 575
Flags: HW
TeX: 749 249
DStem2: 76 -197 106 -221 0.392002 0.919964<-35.6798 1023.12>
LayerCount: 2
Fore
SplineSet
64 -231 m 0
 64 -224 68 -217 76 -197 c 2
 468 721 l 2
 472 730 477 748 492 748 c 0
 501 748 509 740 509 731 c 0
 509 723 504 714 501 706 c 2
 106 -221 l 2
 102 -230 96 -249 81 -249 c 0
 72 -249 64 -240 64 -231 c 0
EndSplineSet
EndChar

StartChar: zero
Encoding: 48 48 61
Width: 575
Flags: HW
TeX: 648 0
HStem: -11 36<269 302 269 407> 619 36<275 305.5>
VStem: 45 128<303.5 367 303.5 368> 401 128<303 367.5 269 372>
LayerCount: 2
Fore
SplineSet
45 319 m 0
 45 417 46 655 287 655 c 0
 528 655 529 416 529 319 c 0
 529 219 527 -11 287 -11 c 0
 46 -11 45 220 45 319 c 0
173 331 m 0
 173 276 173 172 182 120 c 0
 195 47 251 25 287 25 c 0
 317 25 380 39 394 132 c 0
 401 184 401 275 401 331 c 0
 401 413 401 519 384 556 c 0
 365 600 324 619 287 619 c 0
 263 619 193 609 181 520 c 0
 173 468 173 403 173 331 c 0
EndSplineSet
Substitution2: "LGC old numerals subtable" zerooldstyle
EndChar

StartChar: one
Encoding: 49 49 62
Width: 575
Flags: HW
TeX: 648 0
HStem: 0 47<96 235> 544 47<85 105 85 105> 635 20<322.5 341>
VStem: 235 119<47 564 564 564>
LayerCount: 2
Fore
SplineSet
85 544 m 1
 85 591 l 1
 105 591 l 2
 126 591 229 591 306 648 c 0
 315 655 317 655 328 655 c 0
 354 655 354 645 354 623 c 2
 354 47 l 1
 494 47 l 1
 494 0 l 1
 450 3 344 3 295 3 c 0
 246 3 140 3 96 0 c 1
 96 47 l 1
 235 47 l 1
 235 564 l 1
 176 545 121 544 105 544 c 2
 85 544 l 1
EndSplineSet
Substitution2: "LGC old numerals subtable" oneoldstyle
EndChar

StartChar: two
Encoding: 50 50 63
Width: 575
Flags: HW
TeX: 648 0
HStem: 0 125<195 342 342 350 195 486> 429 141 608 47<229 290>
VStem: 57 144<476 527 476 548> 379 138<430.5 502.5>
LayerCount: 2
Fore
SplineSet
57 0 m 1
 57 18 l 2
 57 38 57 40 70 52 c 2
 271 257 l 2
 341 328 379 396 379 465 c 0
 379 540 333 608 247 608 c 0
 211 608 173 597 144 573 c 1
 159 569 201 553 201 501 c 0
 201 451 161 429 129 429 c 0
 105 429 57 444 57 503 c 0
 57 593 151 655 272 655 c 0
 413 655 517 581 517 466 c 0
 517 371 453 324 339 240 c 0
 294 207 242 164 195 125 c 1
 342 125 l 2
 358 125 433 125 444 131 c 0
 458 138 467 202 470 222 c 1
 517 222 l 1
 486 0 l 1
 57 0 l 1
EndSplineSet
Substitution2: "LGC old numerals subtable" twooldstyle
EndChar

StartChar: three
Encoding: 51 51 64
Width: 575
Flags: HW
TeX: 648 0
HStem: -11 43<256 321 256 363.5> 64 153 330 39 441 137 616 39<255.5 312.5>
VStem: 48 153<120.5 163.5 120.5 164.5> 80 139<491.5 539 491.5 551> 357 137<512.5 535.5> 373 153<157.5 206.5>
LayerCount: 2
Fore
SplineSet
48 139 m 0
 48 190 83 217 125 217 c 0
 169 217 201 186 201 141 c 0
 201 100 176 75 143 66 c 1
 191 36 243 32 269 32 c 0
 373 32 373 134 373 181 c 0
 373 232 373 330 264 330 c 2
 220 330 l 2xfc80
 202 330 192 330 192 348 c 0
 192 354 194 364 204 365 c 0
 209 366 211 367 252 369 c 0
 356 375 357 506 357 519 c 0
 357 552 354 616 271 616 c 0
 240 616 196 608 161 580 c 1
 165 579 219 568 219 510 c 0
 219 473 194 441 149 441 c 0
 111 441 80 468 80 511 c 0
 80 591 158 655 277 655 c 0
 418 655 494 593 494 516 c 0
 494 430 421 373 352 352 c 1xfb
 497 321 526 235 526 180 c 0
 526 89 453 -11 274 -11 c 0
 145 -11 48 49 48 139 c 0
EndSplineSet
Substitution2: "LGC old numerals subtable" threeoldstyle
EndChar

StartChar: four
Encoding: 52 52 65
Width: 575
Flags: HW
TeX: 648 0
HStem: 0 47<208 320> 156 47<84 320 32 32 445 542> 636 20<404.5 429>
VStem: 320 125<47 156 47 156> 331 114<203 513 513 513>
LayerCount: 2
Fore
SplineSet
32 156 m 1
 32 203 l 1
 381 640 l 2
 393 655 394 656 415 656 c 0
 443 656 445 651 445 624 c 2
 445 203 l 1
 542 203 l 1
 542 156 l 1
 445 156 l 1xf0
 445 47 l 1
 542 47 l 1
 542 0 l 1
 507 3 420 3 380 3 c 0
 337 3 246 3 208 0 c 1
 208 47 l 1
 320 47 l 1
 320 156 l 1
 32 156 l 1
84 203 m 1
 331 203 l 1xe8
 331 513 l 1
 84 203 l 1
EndSplineSet
Substitution2: "LGC old numerals subtable" fouroldstyle
EndChar

StartChar: five
Encoding: 53 53 66
Width: 575
Flags: HW
TeX: 648 0
HStem: -11 43<243 315 243 339> 93 136 373 36<275.5 330.5> 499 124<252 307>
VStem: 57 134<140.5 187.5 140.5 189.5> 108 53<374 506 374 628> 375 142<168.5 245>
LayerCount: 2
Fore
SplineSet
57 159 m 0
 57 220 109 229 124 229 c 0
 148 229 191 214 191 161 c 0
 191 120 162 96 126 94 c 1
 168 37 231 32 255 32 c 0xfa
 375 32 375 132 375 205 c 0
 375 285 375 373 286 373 c 0
 245 373 191 363 152 317 c 0
 145 309 143 305 130 305 c 0
 108 305 108 318 108 336 c 2
 108 628 l 2
 108 644 108 655 122 655 c 0
 125 655 126 654 135 651 c 0
 161 642 214 623 290 623 c 0
 333 623 386 629 443 651 c 0
 454 655 455 655 458 655 c 0
 470 655 472 644 472 637 c 0
 472 612 380 499 234 499 c 0
 200 499 189 501 161 506 c 1
 161 374 l 1
 208 406 261 409 290 409 c 0
 438 409 517 316 517 201 c 0xf6
 517 79 419 -11 259 -11 c 0
 135 -11 57 74 57 159 c 0
EndSplineSet
Substitution2: "LGC old numerals subtable" fiveoldstyle
EndChar

StartChar: six
Encoding: 54 54 67
Width: 575
Flags: HW
TeX: 648 0
HStem: -11 43<263 339.5 263 360.5> 382 36<293 342.5> 466 124 616 39<320.5 360>
VStem: 48 138<201 443> 372 125<511 543> 390 136<156.5 257>
LayerCount: 2
Fore
SplineSet
48 317 m 0
 48 569 213 655 349 655 c 0
 455 655 497 592 497 530 c 0
 497 492 473 466 434 466 c 0
 395 466 372 494 372 528 c 0
 372 558 390 585 426 590 c 1
 403 613 369 616 351 616 c 0
 290 616 236 580 212 533 c 0
 205 518 184 475 184 361 c 2
 184 342 l 1xfc
 226 418 282 418 304 418 c 0
 425 418 526 345 526 205 c 0
 526 71 430 -11 291 -11 c 0
 221 -11 145 13 98 89 c 1xfa
 57 158 48 238 48 317 c 0
186 210 m 0
 186 192 186 119 202 87 c 0
 210 71 237 32 289 32 c 0
 390 32 390 106 390 207 c 0
 390 307 390 382 295 382 c 0
 240 382 186 335 186 210 c 0
EndSplineSet
Substitution2: "LGC old numerals subtable" sixoldstyle
EndChar

StartChar: seven
Encoding: 55 55 68
Width: 575
Flags: HW
TeX: 648 0
HStem: -11 21<252 263> 519 125<238.5 558 354 416> 656 20<99 146 146 146>
VStem: 193 125<27 60 60 106 27 133>
LayerCount: 2
Fore
SplineSet
64 422 m 1
 99 676 l 1
 146 676 l 1
 148 666 149 657 170 653 c 1
 184 649 331 644 354 644 c 2
 558 644 l 1
 558 609 558 607 548 596 c 2
 393 416 l 2
 358 375 337 316 328 249 c 0
 321 202 318 154 318 106 c 2
 318 60 l 2
 318 -6 271 -11 255 -11 c 0
 249 -11 193 -11 193 59 c 0
 193 207 265 342 361 454 c 0
 379 476 398 497 416 519 c 1
 247 519 l 2
 230 519 149 519 138 513 c 0
 134 511 121 498 111 422 c 1
 64 422 l 1
EndSplineSet
Substitution2: "LGC old numerals subtable" sevenoldstyle
EndChar

StartChar: eight
Encoding: 56 56 69
Width: 575
Flags: HW
TeX: 648 0
HStem: -11 43<240 317.5 240 365> 616 39<265 327>
VStem: 48 86<122 198> 80 75<522 528> 419 75<482.5 541> 440 86<132 156>
LayerCount: 2
Fore
SplineSet
48 161 m 0xe4
 48 235 92 292 176 329 c 1
 98 373 80 436 80 480 c 0
 80 576 150 655 289 655 c 0
 403 655 494 610 494 508 c 0
 494 450 463 406 393 370 c 1
 442 342 526 295 526 187 c 0
 526 77 445 -11 285 -11 c 0
 156 -11 48 40 48 161 c 0xe4
134 161 m 0
 134 83 191 32 289 32 c 0
 346 32 440 48 440 132 c 0
 440 180 403 201 359 226 c 0
 304 257 257 284 222 302 c 1
 187 282 134 239 134 161 c 0
155 539 m 0
 155 505 183 488 199 479 c 2xd8
 349 395 l 1
 393 424 419 458 419 507 c 0
 419 575 369 616 285 616 c 0
 245 616 155 609 155 539 c 0
EndSplineSet
Substitution2: "LGC old numerals subtable" eightoldstyle
EndChar

StartChar: nine
Encoding: 57 57 70
Width: 575
Flags: HW
TeX: 648 0
HStem: -11 43<228 271.5 228 304> 53 125 227 36<231.5 287.5> 616 39<237.5 320.5>
VStem: 48 136<388 487 388 507> 77 125<93.5 133 93.5 133> 389 137<201 445>
LayerCount: 2
Fore
SplineSet
48 440 m 0
 48 574 147 655 289 655 c 0xfa
 526 655 526 396 526 329 c 0
 526 73 369 -11 239 -11 c 0
 128 -11 77 46 77 114 c 0
 77 152 101 178 140 178 c 0
 179 178 202 150 202 116 c 0
 202 71 165 57 153 54 c 1
 183 34 219 32 237 32 c 0
 306 32 349 77 366 116 c 0
 381 150 390 209 390 282 c 2
 390 304 l 1xf6
 352 234 305 227 270 227 c 0
 147 227 48 302 48 440 c 0
184 438 m 0
 184 338 184 263 279 263 c 0
 363 263 389 365 389 428 c 0
 389 462 389 520 377 553 c 0
 373 563 350 616 291 616 c 0
 184 616 184 536 184 438 c 0
EndSplineSet
Substitution2: "LGC old numerals subtable" nineoldstyle
EndChar

StartChar: less
Encoding: 60 60 73
Width: 894
Flags: HW
TeX: 585 85
DStem2: 118 272 157 250 0.908458 0.417976<26.2344 724.675> 157 250 118 227 0.908997 -0.416802<0 698.814>
LayerCount: 2
Fore
SplineSet
96 250 m 0
 96 262 109 268 118 272 c 2
 757 566 l 2
 763 569 771 572 778 572 c 0
 787 572 795 565 795 555 c 0
 795 542 780 535 775 533 c 2
 157 250 l 1
 186 238 214 224 242 211 c 2
 775 -34 l 2
 780 -36 795 -43 795 -56 c 0
 795 -66 787 -73 778 -73 c 0
 771 -73 763 -69 757 -66 c 2
 118 227 l 2
 109 231 96 238 96 250 c 0
EndSplineSet
EndChar

StartChar: equal
Encoding: 61 61 74
Width: 894
Flags: HW
TeX: 391 -108
HStem: 120 37<64.015 827.991> 343 36<64.0109 827.962>
LayerCount: 2
Fore
SplineSet
64 139 m 0
 64 154 79 157 93 157 c 2
 802 157 l 1
 825 156 828 145 828 139 c 0
 828 124 815 120 803 120 c 2
 92 120 l 2
 69 120 64 132 64 139 c 0
64 361 m 0
 64 376 79 379 93 379 c 2
 802 379 l 2
 824 379 828 369 828 362 c 0
 828 347 815 343 803 343 c 2
 92 343 l 2
 69 343 64 354 64 361 c 0
EndSplineSet
EndChar

StartChar: greater
Encoding: 62 62 75
Width: 894
Flags: HW
TeX: 585 85
DStem2: 135 566 117 533 0.908458 -0.417976<-21.2858 677.155> 735 250 774 228 0.908458 0.417976<-698.859 0>
LayerCount: 2
Fore
SplineSet
97 -56 m 0
 97 -47 102 -41 117 -34 c 2
 735 250 l 1
 706 262 678 276 649 289 c 2
 117 533 l 2
 112 535 97 542 97 555 c 0
 97 565 105 572 114 572 c 0
 121 572 129 569 135 566 c 2
 774 272 l 2
 783 268 795 262 795 250 c 0
 795 238 783 232 774 228 c 2
 135 -66 l 2
 129 -69 121 -73 114 -73 c 0
 105 -73 97 -66 97 -56 c 0
EndSplineSet
EndChar

StartChar: question
Encoding: 63 63 76
Width: 543
Flags: HW
TeX: 690 0
HStem: 0 156<233.5 276.5> 226 21<243.5 267> 509 124 664 36<234 281.5 193.5 303>
VStem: 64 125<551.5 595.5 551.5 605> 232 47<253 256 256 283 244 291 244 323.5> 350 128<556 601.5>
LayerCount: 2
Fore
SplineSet
64 573 m 0
 64 637 124 700 263 700 c 0
 300 700 478 700 478 571 c 0
 478 508 430 481 410 469 c 0
 372 447 279 386 279 283 c 2
 279 256 l 2
 279 232 279 226 255 226 c 0
 232 226 232 231 232 253 c 2
 232 291 l 2
 232 356 260 433 322 498 c 0
 342 518 350 534 350 578 c 0
 350 625 349 664 257 664 c 0
 211 664 170 652 144 633 c 1
 146 632 189 619 189 572 c 0
 189 531 158 509 126 509 c 0
 101 509 64 525 64 573 c 0
EndSplineSet
Refer: 10 -1 S 1 0 0 1 -33 -746 2
EndChar

StartChar: at
Encoding: 64 64 77
Width: 894
Flags: HW
TeX: 690 0
HStem: -6 36<334.5 500 334.5 549> 128 36<418 465 418 468 692.5 739> 530 36<418 465.5> 664 36<341 537.5>
VStem: 64 47<262 440 262 446.5> 217 114<283 411.5 283 413> 562 114<222 223 223 453> 782 47<315 450.5>
LayerCount: 2
Fore
SplineSet
64 347 m 0
 64 546 201 700 447 700 c 0
 681 700 829 558 829 345 c 0
 829 285 820 128 699 128 c 0
 673 128 605 132 574 173 c 1
 536 141 491 128 445 128 c 0
 308 128 217 216 217 347 c 0
 217 479 309 566 445 566 c 0
 522 566 578 529 607 482 c 1
 646 482 l 2
 675 482 676 480 676 453 c 2
 676 223 l 2
 676 209 676 164 709 164 c 0
 769 164 782 250 782 340 c 0
 782 561 629 664 446 664 c 0
 236 664 111 533 111 347 c 0
 111 177 219 30 450 30 c 0
 550 30 649 50 743 86 c 0
 759 93 761 93 777 93 c 2
 801 93 l 2
 816 93 829 93 829 79 c 0
 829 74 826 70 826 69 c 0
 802 57 647 -6 451 -6 c 0
 184 -6 64 163 64 347 c 0
331 347 m 0
 331 219 388 164 448 164 c 0
 482 164 531 178 562 222 c 1
 562 472 l 1
 531 515 483 530 448 530 c 0
 388 530 331 476 331 347 c 0
EndSplineSet
EndChar

StartChar: A
Encoding: 65 65 78
Width: 869
Flags: HW
TeX: 690 0
HStem: 0 47<41 62> 193 47<275 503 275 523 255 503> 678 20<420 442.5>
VStem: 41 786<0 47 0 47>
AnchorPoint: "ogonek" 647 0 basechar 0
AnchorPoint: "below" 434 0 basechar 0
AnchorPoint: "above" 434 697 basechar 0
LayerCount: 2
Fore
SplineSet
41 0 m 1
 41 47 l 1
 62 47 l 2
 138 47 141 55 147 70 c 2
 395 672 l 2
 402 690 406 698 434 698 c 0
 451 698 463 698 474 672 c 2
 730 47 l 1
 827 47 l 1
 827 0 l 1
 792 3 704 3 664 3 c 0
 621 3 526 3 488 0 c 1
 488 47 l 1
 583 47 l 1
 523 193 l 1
 255 193 l 1
 205 72 l 2
 204 71 201 61 201 60 c 0
 201 47 288 47 290 47 c 1
 290 0 l 1
 253 3 197 3 158 3 c 0
 127 3 79 1 41 0 c 1
275 240 m 1
 503 240 l 1
 389 518 l 1
 275 240 l 1
EndSplineSet
Substitution2: "LC caps to smallcaps subtable" A.sc
EndChar

StartChar: B
Encoding: 66 66 79
Width: 818
Flags: HW
TeX: 690 0
HStem: 0 47<39 147 278 462 462 503 39 147> 339 36<278 434 434 472 278 434> 639 47<39 147 39 473 278 460 278 278>
VStem: 147 131<47 339 47 375 375 639> 579 142<475.5 537> 606 147<181 192.5>
AnchorPoint: "below" 371 0 basechar 0
AnchorPoint: "above" 371 697 basechar 0
LayerCount: 2
Fore
SplineSet
39 0 m 1
 39 47 l 1xf4
 147 47 l 1
 147 639 l 1
 39 639 l 1
 39 686 l 1
 473 686 l 2
 634 686 721 606 721 514 c 0
 721 437 656 377 548 358 c 1
 667 349 753 282 753 186 c 0
 753 88 669 0 503 0 c 2
 39 0 l 1
278 47 m 1
 462 47 l 2
 606 47 606 175 606 187 c 0
 606 198 606 254 573 296 c 0
 539 339 492 339 472 339 c 2
 278 339 l 1
 278 47 l 1
278 375 m 1xf8
 434 375 l 2
 531 375 579 437 579 514 c 0
 579 560 561 639 460 639 c 2
 278 639 l 1
 278 375 l 1xf8
EndSplineSet
Substitution2: "LC caps to smallcaps subtable" B.sc
EndChar

StartChar: C
Encoding: 67 67 80
Width: 830
Flags: HW
TeX: 690 0
HStem: -11 47<451 540.5 451 559.5> 650 47<461 500 341.5 541>
VStem: 64 153<298 371 298 445.5> 717 49
AnchorPoint: "below" 466 0 basechar 0
AnchorPoint: "above" 465 697 basechar 0
LayerCount: 2
Fore
SplineSet
64 343 m 0
 64 548 217 697 466 697 c 0
 534 697 601 679 663 629 c 1
 729 688 l 2
 737 695 739 697 748 697 c 0
 766 697 766 688 766 669 c 2
 766 454 l 2
 766 428 765 426 739 426 c 0
 716 426 715 428 712 447 c 0
 690 574 595 650 487 650 c 0
 435 650 348 639 283 573 c 1
 220 507 217 399 217 343 c 0
 217 253 229 178 276 121 c 1
 328 60 412 36 490 36 c 0
 591 36 712 97 719 231 c 0
 720 248 729 248 742 248 c 0
 759 248 766 247 766 227 c 0
 766 112 653 -11 466 -11 c 0
 217 -11 64 138 64 343 c 0
EndSplineSet
Substitution2: "LC caps to smallcaps subtable" C.sc
EndChar

StartChar: D
Encoding: 68 68 81
Width: 881
Flags: HW
TeX: 690 0
HStem: 0 47<39 147 283 429 429 459.5 39 147> 639 47<39 147 39 469 283 283 283 429>
VStem: 147 136<47 639> 670 147<283.5 384.5>
AnchorPoint: "below" 403 0 basechar 0
AnchorPoint: "above" 403 697 basechar 0
LayerCount: 2
Fore
SplineSet
39 0 m 1
 39 47 l 1
 147 47 l 1
 147 639 l 1
 39 639 l 1
 39 686 l 1
 469 686 l 2
 667 686 817 557 817 337 c 0
 817 123 667 0 470 0 c 2
 39 0 l 1
283 47 m 1
 429 47 l 2
 490 47 578 63 626 131 c 0
 658 176 670 229 670 338 c 0
 670 431 662 499 627 550 c 0
 578 620 495 639 429 639 c 2
 283 639 l 1
 283 47 l 1
EndSplineSet
Substitution2: "LC caps to smallcaps subtable" D.sc
EndChar

StartChar: E
Encoding: 69 69 82
Width: 755
Flags: HW
TeX: 690 0
HStem: 0 47<39 147 289 441 441 533.5 39 147> 329 47<289 344 289 344> 633 53
VStem: 147 142<47 329 376 633> 450 47<212 249 456 493>
AnchorPoint: "ogonek" 381 0 basechar 0
AnchorPoint: "below" 381 0 basechar 0
AnchorPoint: "above" 381 697 basechar 0
LayerCount: 2
Fore
SplineSet
39 0 m 1
 39 47 l 1
 147 47 l 1
 147 633 l 1
 39 633 l 1
 39 680 l 1
 660 680 l 1
 691 439 l 1
 644 439 l 1
 628 560 602 633 441 633 c 2
 289 633 l 1
 289 376 l 1
 344 376 l 2
 441 376 450 419 450 493 c 1
 497 493 l 1
 497 212 l 1
 450 212 l 1
 450 286 440 329 344 329 c 2
 289 329 l 1
 289 47 l 1
 441 47 l 2
 626 47 654 136 676 274 c 1
 723 274 l 1
 677 0 l 1
 39 0 l 1
EndSplineSet
Substitution2: "LC caps to smallcaps subtable" E.sc
EndChar

StartChar: F
Encoding: 70 70 83
Width: 723
Flags: HW
TeX: 690 0
HStem: 0 47<39 147> 317 47<289 339 289 339> 633 53
VStem: 147 142<47 317 364 633> 444 47<200 237 444 481> 628 47<439 439>
AnchorPoint: "below" 357 0 basechar 0
AnchorPoint: "above" 357 697 basechar 0
LayerCount: 2
Fore
SplineSet
39 0 m 1
 39 47 l 1
 147 47 l 1
 147 633 l 1
 39 633 l 1
 39 680 l 1
 644 680 l 1
 675 439 l 1
 628 439 l 1
 613 556 590 633 429 633 c 2
 289 633 l 1
 289 364 l 1
 339 364 l 2
 436 364 444 407 444 481 c 1
 491 481 l 1
 491 200 l 1
 444 200 l 1
 444 274 435 317 339 317 c 2
 289 317 l 1
 289 47 l 1
 424 47 l 1
 424 0 l 1
 380 3 271 3 222 3 c 0
 178 3 77 3 39 0 c 1
EndSplineSet
Substitution2: "LC caps to smallcaps subtable" F.sc
EndChar

StartChar: G
Encoding: 71 71 84
Width: 904
Flags: HW
TeX: 690 0
HStem: -11 47<451 483.5> 0 21<747.5 758> 229 47<479 623 479 479> 650 47<439 491 342 540.5>
VStem: 64 153<298.5 400 298.5 446.5> 623 142<128 229> 716 49
AnchorPoint: "below" 467 0 basechar 0
AnchorPoint: "above" 465 697 basechar 0
LayerCount: 2
Fore
SplineSet
64 343 m 0
 64 550 219 697 465 697 c 0
 517 697 589 687 662 629 c 1
 728 688 l 2
 736 695 738 697 747 697 c 0
 765 697 765 688 765 669 c 2
 765 454 l 2
 765 428 764 426 738 426 c 0
 715 426 714 428 711 447 c 0
 689 574 594 650 487 650 c 0
 391 650 314 613 274 563 c 1
 237 514 217 456 217 344 c 0
 217 253 230 182 273 127 c 0
 322 65 408 36 494 36 c 0
 526 36 558 42 584 57 c 0xba
 623 80 623 109 623 128 c 2
 623 229 l 1
 479 229 l 1
 479 276 l 1
 533 273 626 273 684 273 c 0
 723 273 810 273 845 276 c 1
 845 229 l 1
 765 229 l 1
 765 28 l 2
 765 13 765 0 751 0 c 0
 744 0 684 26 653 53 c 1x7c
 603 -9 500 -11 467 -11 c 0
 209 -11 64 144 64 343 c 0
EndSplineSet
Substitution2: "LC caps to smallcaps subtable" G.sc
EndChar

StartChar: H
Encoding: 72 72 85
Width: 900
Flags: HW
TeX: 690 0
HStem: 0 47<39 147> 333 47<289 610 289 610> 639 47<39 147 39 39>
VStem: 147 142<47 333 47 380 380 639> 610 142<47 333 333 333 380 639 47 639>
AnchorPoint: "below" 450 0 basechar 0
AnchorPoint: "above" 450 697 basechar 0
LayerCount: 2
Fore
SplineSet
39 0 m 1
 39 47 l 1
 147 47 l 1
 147 639 l 1
 39 639 l 1
 39 686 l 1
 77 683 175 683 218 683 c 0
 261 683 359 683 397 686 c 1
 397 639 l 1
 289 639 l 1
 289 380 l 1
 610 380 l 1
 610 639 l 1
 502 639 l 1
 502 686 l 1
 540 683 638 683 681 683 c 0
 724 683 822 683 860 686 c 1
 860 639 l 1
 752 639 l 1
 752 47 l 1
 860 47 l 1
 860 0 l 1
 822 3 724 3 681 3 c 0
 638 3 540 3 502 0 c 1
 502 47 l 1
 610 47 l 1
 610 333 l 1
 289 333 l 1
 289 47 l 1
 397 47 l 1
 397 0 l 1
 359 3 261 3 218 3 c 0
 175 3 77 3 39 0 c 1
EndSplineSet
Substitution2: "LC caps to smallcaps subtable" H.sc
EndChar

StartChar: I
Encoding: 73 73 86
Width: 436
Flags: HW
TeX: 690 0
HStem: 0 47<33 147> 639 47<33 147 33 33>
VStem: 147 142<47 639 47 639>
AnchorPoint: "ogonek" 218 0 basechar 0
AnchorPoint: "below" 218 0 basechar 0
AnchorPoint: "above" 218 697 basechar 0
LayerCount: 2
Fore
SplineSet
33 0 m 1
 33 47 l 1
 147 47 l 1
 147 639 l 1
 33 639 l 1
 33 686 l 1
 74 683 172 683 218 683 c 0
 264 683 362 683 403 686 c 1
 403 639 l 1
 289 639 l 1
 289 47 l 1
 403 47 l 1
 403 0 l 1
 362 3 264 3 218 3 c 0
 172 3 74 3 33 0 c 1
EndSplineSet
EndChar

StartChar: J
Encoding: 74 74 87
Width: 594
Flags: HW
TeX: 690 0
HStem: -11 36<202.5 260.5 202.5 283> 42 149<81.5 130> 639 47<169 310 169 169>
VStem: 23 153<87.5 140> 310 136<149 150 150 639>
AnchorPoint: "below" 275 0 basechar 0
AnchorPoint: "above" 378 697 basechar 0
LayerCount: 2
Fore
SplineSet
23 114 m 0
 23 166 63 191 100 191 c 0
 133 191 176 168 176 114 c 0
 176 61 130 42 130 42 c 1
 161 28 194 25 211 25 c 0
 310 25 310 130 310 149 c 2
 310 639 l 1
 169 639 l 1
 169 686 l 1
 217 683 315 683 368 683 c 0
 407 683 492 683 527 686 c 1
 527 639 l 1
 446 639 l 1
 446 150 l 2
 446 46 350 -11 216 -11 c 0
 102 -11 23 37 23 114 c 0
EndSplineSet
EndChar

StartChar: K
Encoding: 75 75 88
Width: 901
Flags: HW
TeX: 690 0
HStem: 0 47<39 147> 639 47<39 147 39 39>
VStem: 147 142<47 257 47 319 319 639>
AnchorPoint: "below" 446 0 basechar 0
AnchorPoint: "above" 446 697 basechar 0
LayerCount: 2
Fore
SplineSet
39 0 m 1
 39 47 l 1
 147 47 l 1
 147 639 l 1
 39 639 l 1
 39 686 l 1
 77 683 175 683 218 683 c 0
 261 683 359 683 397 686 c 1
 397 639 l 1
 289 639 l 1
 289 319 l 1
 659 628 l 1
 650 631 662 630 646 634 c 0
 621 639 601 639 588 639 c 1
 588 686 l 1
 624 683 696 683 734 683 c 0
 739 683 796 683 836 686 c 1
 836 639 l 1
 819 639 l 2
 789 639 747 639 725 621 c 2
 485 421 l 1
 755 67 l 2
 767 51 770 47 823 47 c 2
 852 47 l 1
 852 0 l 1
 815 3 746 3 706 3 c 0
 661 3 571 3 530 0 c 1
 530 47 l 1
 565 47 585 47 603 55 c 1
 600 61 600 63 595 69 c 2
 389 340 l 1
 289 257 l 1
 289 47 l 1
 397 47 l 1
 397 0 l 1
 359 3 261 3 218 3 c 0
 175 3 77 3 39 0 c 1
EndSplineSet
Substitution2: "LC caps to smallcaps subtable" K.sc
EndChar

StartChar: L
Encoding: 76 76 89
Width: 691
Flags: HW
TeX: 690 0
HStem: 0 47<39 147 289 392 392 481.5 39 147> 639 47<39 147 39 39>
VStem: 147 142<47 639 47 639> 596 47<274 274>
AnchorPoint: "below" 341 0 basechar 0
AnchorPoint: "above" 341 697 basechar 0
LayerCount: 2
Fore
SplineSet
39 0 m 1
 39 47 l 1
 147 47 l 1
 147 639 l 1
 39 639 l 1
 39 686 l 1
 77 683 178 683 222 683 c 0
 271 683 380 683 424 686 c 1
 424 639 l 1
 289 639 l 1
 289 47 l 1
 392 47 l 2
 571 47 588 205 596 274 c 1
 643 274 l 1
 612 0 l 1
 39 0 l 1
EndSplineSet
Substitution2: "LC caps to smallcaps subtable" L.sc
EndChar

StartChar: M
Encoding: 77 77 90
Width: 1091
Flags: HW
TeX: 690 0
HStem: 0 47<40 65> 639 47<40 148 40 262 943 1051 943 943>
VStem: 148 53<76 626> 818 125<47 639 47 639>
AnchorPoint: "below" 546 0 basechar 0
AnchorPoint: "above" 546 697 basechar 0
LayerCount: 2
Fore
SplineSet
40 0 m 1
 40 47 l 1
 65 47 l 2
 93 47 95 47 119 50 c 0
 147 53 148 54 148 76 c 2
 148 639 l 1
 40 639 l 1
 40 686 l 1
 262 686 l 2
 284 686 295 686 306 661 c 2
 546 132 l 1
 786 661 l 2
 797 686 808 686 830 686 c 2
 1051 686 l 1
 1051 639 l 1
 943 639 l 1
 943 47 l 1
 1051 47 l 1
 1051 0 l 1
 1015 3 921 3 880 3 c 0
 839 3 746 3 710 0 c 1
 710 47 l 1
 818 47 l 1
 818 639 l 1
 817 639 l 1
 538 24 l 2
 534 15 526 0 506 0 c 0
 495 0 483 5 474 25 c 2
 202 626 l 1
 201 626 l 1
 201 76 l 2
 201 54 202 53 231 50 c 0
 249 48 266 47 284 47 c 2
 309 47 l 1
 309 0 l 1
 268 3 216 3 174 3 c 0
 135 3 78 3 40 0 c 1
EndSplineSet
Substitution2: "LC caps to smallcaps subtable" M.sc
EndChar

StartChar: N
Encoding: 78 78 91
Width: 900
Flags: HW
TeX: 690 0
HStem: 0 47<39 64> 639 47<39 147 39 268>
VStem: 147 53<76 599> 699 53<205 610>
AnchorPoint: "below" 450 0 basechar 0
AnchorPoint: "above" 450 697 basechar 0
LayerCount: 2
Fore
SplineSet
39 0 m 1
 39 47 l 1
 64 47 l 2
 92 47 94 47 118 50 c 0
 146 53 147 54 147 76 c 2
 147 639 l 1
 39 639 l 1
 39 686 l 1
 268 686 l 2
 289 686 290 685 301 673 c 2
 699 205 l 1
 699 610 l 2
 699 632 698 633 669 636 c 0
 651 638 634 639 616 639 c 2
 591 639 l 1
 591 686 l 1
 632 683 684 683 726 683 c 0
 765 683 822 683 860 686 c 1
 860 639 l 1
 835 639 l 2
 807 639 805 639 781 636 c 0
 753 633 752 632 752 610 c 2
 752 32 l 2
 752 9 752 0 725 0 c 0
 709 0 708 1 698 13 c 2
 200 599 l 1
 200 76 l 2
 200 54 201 53 230 50 c 0
 248 48 265 47 283 47 c 2
 308 47 l 1
 308 0 l 1
 267 3 215 3 173 3 c 0
 134 3 77 3 39 0 c 1
EndSplineSet
Substitution2: "LC caps to smallcaps subtable" N.sc
EndChar

StartChar: O
Encoding: 79 79 92
Width: 863
Flags: HW
TeX: 690 0
HStem: -11 42<401.5 458 401.5 546> 657 40<401.5 463>
VStem: 64 153<311 386 311 444> 646 153<319 388>
AnchorPoint: "ogonek" 431 0 basechar 0
AnchorPoint: "below" 431 0 basechar 0
AnchorPoint: "above" 432 697 basechar 0
LayerCount: 2
Fore
SplineSet
64 339 m 0
 64 549 203 697 432 697 c 0
 654 697 799 555 799 339 c 0
 799 134 661 -11 431 -11 c 0
 204 -11 64 132 64 339 c 0
217 354 m 0
 217 268 225 197 258 135 c 0
 299 59 372 31 431 31 c 0
 485 31 555 53 600 126 c 0
 642 195 646 284 646 354 c 0
 646 422 642 499 604 563 c 0
 564 629 495 657 431 657 c 0
 372 657 305 632 264 571 c 1
 220 503 217 418 217 354 c 0
EndSplineSet
Substitution2: "LC caps to smallcaps subtable" O.sc
EndChar

StartChar: P
Encoding: 80 80 93
Width: 786
Flags: HW
TeX: 690 0
HStem: 0 47<39 147> 302 41<289 289 289 417 417 466> 639 47<39 147 39 456 283 283 283 418>
VStem: 147 136<343 639 343 639 343 639> 147 142<47 302 47 639> 568 153<455.5 527>
AnchorPoint: "below" 355 0 basechar 0
AnchorPoint: "above" 355 697 basechar 0
LayerCount: 2
Fore
SplineSet
39 0 m 1
 39 47 l 1
 147 47 l 1
 147 639 l 1
 39 639 l 1
 39 686 l 1
 456 686 l 2
 622 686 721 601 721 491 c 0
 721 374 605 302 466 302 c 2
 289 302 l 1xec
 289 47 l 1
 397 47 l 1
 397 0 l 1
 359 3 261 3 218 3 c 0
 175 3 77 3 39 0 c 1
283 343 m 1
 417 343 l 2xf4
 568 343 568 420 568 491 c 0
 568 563 568 639 418 639 c 2
 283 639 l 1
 283 343 l 1
EndSplineSet
Substitution2: "LC caps to smallcaps subtable" P.sc
EndChar

StartChar: Q
Encoding: 81 81 94
Width: 863
Flags: HW
TeX: 690 194
HStem: -194 153<672.5 692.5 672.5 719> -11 40<404.5 443> 119 36<415.5 446> 657 40<408.5 458>
VStem: 64 147<301 360 301 444> 334 36<70 86.5 67 97> 652 147<312 369.5>
AnchorPoint: "below" 431 -194 basechar 0
AnchorPoint: "above" 432 697 basechar 0
LayerCount: 2
Fore
SplineSet
64 339 m 0
 64 549 203 697 432 697 c 0
 654 697 799 555 799 339 c 0
 799 230 756 82 592 18 c 1
 631 -41 661 -41 684 -41 c 0
 701 -41 763 -40 769 -2 c 0
 770 5 772 18 787 18 c 0
 805 18 805 0 805 -8 c 0
 805 -76 770 -194 668 -194 c 0
 575 -194 555 -115 527 -2 c 1
 487 -10 454 -11 432 -11 c 0
 200 -11 64 135 64 339 c 0
211 340 m 0
 211 262 214 110 337 51 c 1
 335 56 334 67 334 73 c 0
 334 121 380 155 431 155 c 0
 498 155 534 102 556 69 c 1
 652 135 652 284 652 340 c 0
 652 399 649 485 611 552 c 0
 563 637 485 657 431 657 c 0
 386 657 300 642 248 546 c 1
 211 475 211 380 211 340 c 0
370 73 m 0
 370 61 377 29 432 29 c 0
 459 29 489 34 514 45 c 1
 494 108 460 119 432 119 c 0
 399 119 370 100 370 73 c 0
EndSplineSet
Substitution2: "LC caps to smallcaps subtable" Q.sc
EndChar

StartChar: R
Encoding: 82 82 95
Width: 862
Flags: HW
TeX: 690 0
HStem: -11 36<717.5 762 717 791.5> 0 47<39 147> 325 36<283 399 399 400 283 399> 639 47<39 147 39 419 283 401 283 283>
VStem: 147 136<47 325 47 361 361 639> 521 150 564 153<472 530.5> 808 50
AnchorPoint: "below" 355 0 basechar 0
AnchorPoint: "above" 355 697 basechar 0
LayerCount: 2
Fore
SplineSet
39 0 m 1
 39 47 l 1
 147 47 l 1
 147 639 l 1
 39 639 l 1
 39 686 l 1
 419 686 l 2
 607 686 717 602 717 501 c 0
 717 435 666 370 550 340 c 1
 593 324 648 293 662 223 c 0
 663 218 671 149 673 138 c 0
 678 96 687 25 747 25 c 0
 777 25 806 47 811 94 c 0
 812 107 813 117 834 117 c 0
 844 117 858 117 858 95 c 0
 858 79 845 -11 738 -11 c 0
 697 -11 635 -7 591 15 c 0
 521 49 521 98 521 164 c 0
 521 237 521 256 489 291 c 0
 458 325 414 325 400 325 c 2xbd
 283 325 l 1
 283 47 l 1
 391 47 l 1
 391 0 l 1
 355 3 257 3 215 3 c 0
 173 3 75 3 39 0 c 1
283 361 m 1x7b
 399 361 l 2
 564 361 564 444 564 500 c 0
 564 561 562 639 401 639 c 2
 283 639 l 1
 283 361 l 1x7b
EndSplineSet
Substitution2: "LC caps to smallcaps subtable" R.sc
EndChar

StartChar: S
Encoding: 83 83 96
Width: 638
Flags: HW
TeX: 690 0
HStem: -11 47<326.5 399 309 429.5> 654 43<239 312 212 329>
VStem: 64 46 64 97<518.5 548.5> 477 97<152.5 176> 497 45
AnchorPoint: "below" 347 0 basechar 0
AnchorPoint: "above" 288 697 basechar 0
LayerCount: 2
Fore
SplineSet
64 17 m 2
 64 199 l 2
 64 222 64 228 88 228 c 0
 110 228 110 223 111 205 c 0
 119 56 271 36 347 36 c 0
 451 36 477 105 477 153 c 0
 477 199 452 225 437 240 c 0xe8
 415 261 398 264 310 283 c 0
 201 307 167 314 118 363 c 0
 97 385 64 431 64 496 c 0
 64 601 136 697 288 697 c 0
 336 697 401 688 459 642 c 1
 504 686 l 2
 515 696 516 697 524 697 c 0
 542 697 542 688 542 669 c 2
 542 486 l 2
 542 463 542 458 518 458 c 0
 497 458 497 460 493 484 c 0
 470 620 369 654 289 654 c 0
 189 654 161 592 161 549 c 0
 161 488 217 454 257 445 c 2
 402 414 l 2xd4
 493 395 574 314 574 203 c 0
 574 102 512 -11 347 -11 c 0
 306 -11 213 -5 147 44 c 1
 101 -2 l 2
 93 -9 91 -11 82 -11 c 0
 64 -11 64 -2 64 17 c 2
EndSplineSet
Substitution2: "LC caps to smallcaps subtable" S.sc
EndChar

StartChar: T
Encoding: 84 84 97
Width: 800
Flags: HW
TeX: 690 0
HStem: 0 47<176 329> 628 58
VStem: 42 47<434 434> 329 142<47 628 47 628> 710 47<434 434>
CounterMasks: 1 38
AnchorPoint: "below" 400 0 basechar 0
AnchorPoint: "above" 400 697 basechar 0
LayerCount: 2
Fore
SplineSet
42 434 m 1
 63 675 l 1
 736 675 l 1
 757 434 l 1
 710 434 l 1
 700 548 690 628 547 628 c 2
 471 628 l 1
 471 47 l 1
 624 47 l 1
 624 0 l 1
 570 3 459 3 400 3 c 0
 341 3 230 3 176 0 c 1
 176 47 l 1
 329 47 l 1
 329 628 l 1
 252 628 l 2
 108 628 98 547 89 434 c 1
 42 434 l 1
EndSplineSet
Substitution2: "LC caps to smallcaps subtable" T.sc
EndChar

StartChar: U
Encoding: 85 85 98
Width: 884
Flags: HW
TeX: 690 0
HStem: -11 47<378.5 520.5 378.5 557> 639 47<39 147 39 39>
VStem: 147 142<231 639> 684 53<233 610>
AnchorPoint: "ogonek" 462 0 basechar 0
AnchorPoint: "below" 462 0 basechar 0
AnchorPoint: "above" 442 697 basechar 0
LayerCount: 2
Fore
SplineSet
39 639 m 1
 39 686 l 1
 77 683 175 683 218 683 c 0
 261 683 359 683 397 686 c 1
 397 639 l 1
 289 639 l 1
 289 223 l 2
 289 167 291 36 466 36 c 0
 575 36 684 85 684 233 c 2
 684 610 l 2
 684 632 683 633 654 636 c 0
 636 638 619 639 601 639 c 2
 576 639 l 1
 576 686 l 1
 617 683 669 683 711 683 c 0
 750 683 807 683 845 686 c 1
 845 639 l 1
 820 639 l 2
 792 639 790 639 766 636 c 0
 738 633 737 632 737 610 c 2
 737 229 l 2
 737 106 652 -11 462 -11 c 0
 255 -11 147 98 147 231 c 2
 147 639 l 1
 39 639 l 1
EndSplineSet
Substitution2: "LC caps to smallcaps subtable" U.sc
EndChar

StartChar: V
Encoding: 86 86 99
Width: 869
Flags: HW
TeX: 690 0
ItalicCorrection: 15
HStem: -8 21<420 442> 639 47<26 118 26 26>
VStem: 26 816<639 686 639 686>
AnchorPoint: "below" 434 0 basechar 0
AnchorPoint: "above" 434 697 basechar 0
LayerCount: 2
Fore
SplineSet
26 639 m 1
 26 686 l 1
 61 683 145 683 184 683 c 0
 227 683 323 683 361 686 c 1
 361 639 l 1
 267 639 l 1
 480 160 l 1
 682 615 l 2
 683 618 686 623 686 627 c 0
 686 639 607 639 598 639 c 1
 598 686 l 1
 637 683 689 683 729 683 c 0
 756 683 804 685 842 686 c 1
 842 639 l 1
 823 639 l 2
 750 639 746 630 740 617 c 2
 474 16 l 2
 463 -8 450 -8 434 -8 c 0
 406 -8 402 0 394 18 c 2
 118 639 l 1
 26 639 l 1
EndSplineSet
Substitution2: "LC caps to smallcaps subtable" V.sc
EndChar

StartChar: W
Encoding: 87 87 100
Width: 1188
Flags: HW
TeX: 690 0
ItalicCorrection: 15
HStem: -8 21<372.5 397.5 790.5 815.5> 639 47<24 110 24 24>
VStem: 24 1140<639 686 639 686>
AnchorPoint: "below" 594 0 basechar 0
AnchorPoint: "above" 594 697 basechar 0
LayerCount: 2
Fore
SplineSet
24 639 m 1
 24 686 l 1
 59 683 138 683 177 683 c 0
 220 683 314 683 352 686 c 1
 352 639 l 1
 256 639 l 1
 433 181 l 1
 569 533 l 1
 528 639 l 1
 442 639 l 1
 442 686 l 1
 477 683 556 683 595 683 c 0
 638 683 732 683 770 686 c 1
 770 639 l 1
 674 639 l 1
 851 181 l 1
 1023 628 l 1
 994 639 946 639 921 639 c 1
 921 686 l 1
 957 683 1019 683 1057 683 c 0
 1102 683 1137 685 1164 686 c 1
 1164 639 l 1
 1148 639 1127 639 1107 637 c 0
 1076 634 1075 632 1069 615 c 2
 838 18 l 2
 832 2 828 -8 803 -8 c 0
 778 -8 774 2 768 18 c 2
 594 468 l 1
 420 18 l 2
 414 2 410 -8 385 -8 c 0
 360 -8 356 2 350 18 c 2
 110 639 l 1
 24 639 l 1
EndSplineSet
Substitution2: "LC caps to smallcaps subtable" W.sc
EndChar

StartChar: X
Encoding: 88 88 101
Width: 869
Flags: HW
TeX: 690 0
HStem: 0 47<34 63> 639 47<49 147 49 49>
VStem: 34 801<0 47 0 47>
AnchorPoint: "below" 434 0 basechar 0
AnchorPoint: "above" 434 697 basechar 0
LayerCount: 2
Fore
SplineSet
34 0 m 1
 34 47 l 1
 63 47 l 2
 83 47 104 48 124 50 c 0
 156 53 158 55 167 67 c 2
 369 332 l 1
 147 639 l 1
 49 639 l 1
 49 686 l 1
 84 683 171 683 211 683 c 0
 256 683 351 683 392 686 c 1
 392 639 l 1
 309 639 l 1
 452 442 l 1
 584 617 l 2
 586 620 591 626 592 628 c 1
 557 639 518 639 500 639 c 1
 500 686 l 1
 536 683 613 683 652 683 c 0
 695 683 744 683 786 686 c 1
 786 639 l 1
 757 639 l 2
 729 639 723 639 699 636 c 0
 664 633 663 632 652 618 c 2
 484 397 l 1
 737 47 l 1
 835 47 l 1
 835 0 l 1
 800 3 713 3 673 3 c 0
 628 3 533 3 492 0 c 1
 492 47 l 1
 575 47 l 1
 401 288 l 1
 236 69 l 2
 234 66 229 60 228 58 c 1
 263 47 302 47 320 47 c 1
 320 0 l 1
 284 3 207 3 168 3 c 0
 125 3 76 3 34 0 c 1
EndSplineSet
Substitution2: "LC caps to smallcaps subtable" X.sc
EndChar

StartChar: Y
Encoding: 89 89 102
Width: 869
Flags: HW
TeX: 690 0
ItalicCorrection: 28
HStem: 0 47<258 366> 639 47<19 117 19 19>
VStem: 366 136<47 274 47 274>
AnchorPoint: "below" 434 0 basechar 0
AnchorPoint: "above" 434 697 basechar 0
LayerCount: 2
Fore
SplineSet
19 639 m 1
 19 686 l 1
 54 683 144 683 184 683 c 0
 229 683 326 683 367 686 c 1
 367 639 l 1
 282 639 l 1
 485 342 l 1
 672 617 l 2
 677 623 677 625 679 629 c 1
 653 639 626 639 603 639 c 1
 603 686 l 1
 640 683 696 683 735 683 c 0
 763 683 809 685 849 686 c 1
 849 639 l 1
 828 639 l 2
 811 639 793 638 776 636 c 0
 754 633 746 633 737 619 c 2
 502 274 l 1
 502 47 l 1
 611 47 l 1
 611 0 l 1
 573 3 477 3 434 3 c 0
 392 3 294 3 258 0 c 1
 258 47 l 1
 366 47 l 1
 366 274 l 1
 117 639 l 1
 19 639 l 1
EndSplineSet
Substitution2: "LC caps to smallcaps subtable" Y.sc
EndChar

StartChar: Z
Encoding: 90 90 103
Width: 702
Flags: HW
TeX: 690 0
HStem: 0 51<231 371 371 473.5> 639 47<272 342 342 472>
VStem: 80 47<445 445> 598 47<284 284>
AnchorPoint: "below" 354 0 basechar 0
AnchorPoint: "above" 354 697 basechar 0
LayerCount: 2
Fore
SplineSet
64 26 m 0
 64 37 64 40 72 52 c 2
 472 639 l 1
 342 639 l 2
 202 639 135 578 127 445 c 1
 80 445 l 1
 92 686 l 1
 606 686 l 2
 627 686 638 686 638 661 c 0
 638 650 638 649 630 637 c 2
 231 51 l 1
 371 51 l 2
 576 51 590 173 598 284 c 1
 645 284 l 1
 627 0 l 1
 96 0 l 2
 74 0 64 0 64 26 c 0
EndSplineSet
Substitution2: "LC caps to smallcaps subtable" Z.sc
EndChar

StartChar: bracketleft
Encoding: 91 91 104
Width: 319
Flags: HW
TeX: 749 249
HStem: -250 36<214 294> 714 36<214 294>
VStem: 105 109<-214 714>
LayerCount: 2
Fore
SplineSet
105 -250 m 1
 105 750 l 1
 294 750 l 1
 294 714 l 1
 214 714 l 1
 214 -214 l 1
 294 -214 l 1
 294 -250 l 1
 105 -250 l 1
EndSplineSet
EndChar

StartChar: backslash
Encoding: 92 92 105
Width: 575
Flags: HW
TeX: 749 249
DStem2: 111 710 69 714 0.391908 -0.920004<-38.4002 1022.19>
LayerCount: 2
Fore
SplineSet
64 732 m 0
 64 739 71 748 81 748 c 0
 98 748 104 726 111 710 c 2
 500 -203 l 2
 504 -212 509 -222 509 -232 c 0
 509 -237 503 -249 492 -249 c 0
 478 -249 472 -233 469 -225 c 2
 69 714 l 2
 67 720 64 726 64 732 c 0
EndSplineSet
EndChar

StartChar: bracketright
Encoding: 93 93 106
Width: 319
Flags: HW
TeX: 749 249
HStem: -250 36<25 105> 714 36<25 105>
VStem: 105 109<-214 714>
LayerCount: 2
Fore
SplineSet
25 -214 m 1
 105 -214 l 1
 105 714 l 1
 25 714 l 1
 25 750 l 1
 214 750 l 1
 214 -250 l 1
 25 -250 l 1
 25 -214 l 1
EndSplineSet
EndChar

StartChar: asciicircum
Encoding: 94 94 107
Width: 703
Flags: HW
TeX: 690 0
HStem: 460 172
LayerCount: 2
Fore
SplineSet
132 502 m 1
 351 632 l 1
 569 502 l 1
 547 460 l 1
 351 550 l 1
 154 460 l 1
 132 502 l 1
EndSplineSet
EndChar

StartChar: underscore
Encoding: 95 95 108
Width: 894
Flags: HW
TeX: 0 307
HStem: -308 61<97.3793 794.728>
LayerCount: 2
Fore
SplineSet
96 -278 m 0
 96 -270 99 -247 135 -247 c 2
 756 -247 l 2
 790 -247 796 -266 796 -278 c 0
 796 -290 790 -308 756 -308 c 2
 135 -308 l 2
 100 -308 96 -288 96 -278 c 0
EndSplineSet
EndChar

StartChar: a
Encoding: 97 97 110
Width: 559
Flags: HW
TeX: 444 0
HStem: -6 36<214.5 252.5 214.5 265> 0 47<478 538.5> 234 30 417 36<241 284.5>
VStem: 32 117<87 163 87 180.5> 72 125<340 376 340 405> 357 114<139 234 234 234 265 299>
AnchorPoint: "ogonek" 417 0 basechar 0
AnchorPoint: "affricate-below" 559 -194 basechar 0
AnchorPoint: "affricate-above" 559 694 basechar 0
AnchorPoint: "below" 251 0 basechar 0
AnchorPoint: "above" 251 453 basechar 0
LayerCount: 2
Fore
SplineSet
32 108 m 0xba
 32 253 286 262 357 265 c 1
 357 299 l 2
 357 375 322 417 247 417 c 0
 235 417 203 416 175 410 c 1
 178 408 197 391 197 361 c 0
 197 319 165 298 134 298 c 0
 107 298 72 317 72 361 c 0
 72 449 194 453 251 453 c 0
 400 453 471 388 471 299 c 2
 471 84 l 2
 471 61 471 48 532 47 c 0
 545 47 558 47 558 24 c 0
 558 0 546 0 526 0 c 2
 478 0 l 2
 374 0 374 46 374 77 c 1x76
 352 35 305 -6 225 -6 c 0
 156 -6 32 12 32 108 c 0xba
149 109 m 0
 149 65 189 30 240 30 c 0
 265 30 357 43 357 139 c 2
 357 234 l 1
 307 231 149 217 149 109 c 0
EndSplineSet
Substitution2: "LC small to smallcaps subtable" A.sc
EndChar

StartChar: b
Encoding: 98 98 111
Width: 638
Flags: HW
TeX: 690 0
HStem: -6 36<304 355 304 422.5> 0 21<106 153 106 106> 414 36<324.5 411> 639 55
VStem: 106 108<401 401 401 600 600 619.5> 106 114<99 99 99 350> 472 128<199.5 258>
AnchorPoint: "affricate-below" 638 -194 basechar 0
AnchorPoint: "affricate-above" 638 694 basechar 0
AnchorPoint: "below" 352 0 basechar 0
AnchorPoint: "above" 352 694 basechar 0
LayerCount: 2
Fore
SplineSet
37 639 m 1
 37 686 l 1
 214 694 l 1
 214 401 l 1x7a
 238 421 288 450 361 450 c 0
 506 450 600 356 600 223 c 0
 600 84 497 -6 348 -6 c 0xb6
 259 -6 210 48 202 56 c 1
 186 37 169 19 153 0 c 1
 106 0 l 1
 106 600 l 2
 106 639 99 639 37 639 c 1
220 99 m 1
 230 84 269 30 339 30 c 0
 371 30 417 41 446 82 c 1
 472 121 472 176 472 223 c 0
 472 293 472 414 350 414 c 0
 295 414 247 385 220 350 c 1
 220 99 l 1
EndSplineSet
Substitution2: "LC small to smallcaps subtable" B.sc
EndChar

StartChar: c
Encoding: 99 99 112
Width: 511
Flags: HW
TeX: 444 0
HStem: -6 40<235.5 330.5 235.5 367> 413 40<230.5 312.5>
VStem: 38 128<204 255 204 280> 340 125<340 365.5>
AnchorPoint: "affricate-below" 511 -194 basechar 0
AnchorPoint: "affricate-above" 511 694 basechar 0
AnchorPoint: "below" 286 0 basechar 0
AnchorPoint: "above" 291 453 basechar 0
LayerCount: 2
Fore
SplineSet
38 222 m 0
 38 338 112 453 291 453 c 0
 349 453 465 447 465 361 c 0
 465 319 433 298 402 298 c 0
 375 298 340 317 340 361 c 0
 340 370 342 391 360 407 c 1
 347 410 330 413 295 413 c 0
 166 413 166 283 166 227 c 0
 166 181 166 34 305 34 c 0
 356 34 404 53 430 116 c 0
 435 129 436 131 454 131 c 0
 464 131 478 131 478 117 c 0
 478 110 448 -6 286 -6 c 0
 132 -6 38 89 38 222 c 0
EndSplineSet
Substitution2: "LC small to smallcaps subtable" C.sc
EndChar

StartChar: d
Encoding: 100 100 113
Width: 638
Flags: HW
TeX: 690 0
HStem: -6 36<227 308.5> 0 47<570 601> 414 36<283.5 305.5 216 327.5> 639 55
VStem: 38 128<186 245 186 291.5> 418 114<-6 86 43 86 103 353 353 353> 424 108<405 600 600 619.5>
AnchorPoint: "affricate-below" 638 -194 basechar 0
AnchorPoint: "affricate-above" 638 694 basechar 0
AnchorPoint: "below" 320 0 basechar 0
AnchorPoint: "above" 285 694 basechar 0
LayerCount: 2
Fore
SplineSet
38 221 m 0
 38 362 143 450 289 450 c 0xbc
 322 450 374 444 424 405 c 1
 424 600 l 2
 424 639 417 639 355 639 c 1
 355 686 l 1
 532 694 l 1
 532 86 l 2
 532 47 539 47 601 47 c 1x7a
 601 0 l 1
 418 -6 l 1
 418 43 l 1
 387 18 339 -6 278 -6 c 0
 130 -6 38 89 38 221 c 0
166 221 m 0
 166 151 166 30 288 30 c 0
 364 30 405 85 418 103 c 1
 418 353 l 1
 396 382 356 414 299 414 c 0
 268 414 221 404 192 362 c 0
 166 323 166 269 166 221 c 0
EndSplineSet
Substitution2: "LC small to smallcaps subtable" D.sc
EndChar

StartChar: e
Encoding: 101 101 114
Width: 527
Flags: HW
TeX: 444 0
HStem: -6 40<231.5 334.5 231.5 372> 218 33<160 399 160 462 160 399> 417 36<264.5 313.5 199 337.5>
VStem: 32 128<192.5 218 192.5 251 192.5 287.5> 399 95<251 251>
AnchorPoint: "ogonek" 293 0 basechar 0
AnchorPoint: "affricate-below" 527 -194 basechar 0
AnchorPoint: "affricate-above" 527 694 basechar 0
AnchorPoint: "below" 293 0 basechar 0
AnchorPoint: "above" 278 453 basechar 0
LayerCount: 2
Fore
SplineSet
32 225 m 0
 32 350 119 453 279 453 c 0
 348 453 401 435 438 399 c 0
 488 349 494 276 494 245 c 0
 494 218 484 218 462 218 c 2
 160 218 l 1
 160 167 161 34 302 34 c 0
 367 34 424 66 445 114 c 0
 451 130 453 135 470 135 c 0
 475 135 494 135 494 117 c 0
 494 100 451 -6 293 -6 c 0
 132 -6 32 91 32 225 c 0
160 251 m 1
 399 251 l 1
 398 286 396 417 279 417 c 0
 250 417 210 405 184 365 c 0
 163 332 162 290 160 251 c 1
EndSplineSet
Substitution2: "LC small to smallcaps subtable" E.sc
EndChar

StartChar: f
Encoding: 102 102 115
Width: 351
Flags: HW
TeX: 690 0
ItalicCorrection: 109
HStem: 0 47<48 117> 397 47<42 117 42 117 225 225 225 340> 664 36<307.5 322.5>
VStem: 117 102<47 545 397 545 444 545 444 601.5> 117 108<47 397 47 397 47 545> 314 123<592.5 622.5>
AnchorPoint: "affricate-below" 351 -194 basechar 0
AnchorPoint: "affricate-above" 351 694 basechar 0
AnchorPoint: "above" 322 694 basechar 0
AnchorPoint: "below" 171 0 basechar 0
LayerCount: 2
Fore
SplineSet
42 397 m 1
 42 444 l 1
 117 444 l 1
 117 545 l 2
 117 658 225 700 323 700 c 0
 401 700 437 655 437 613 c 0
 437 572 405 551 375 551 c 0
 349 551 314 570 314 613 c 0
 314 632 322 651 337 662 c 1
 330 664 325 664 320 664 c 0
 295 664 219 655 219 545 c 2
 219 444 l 1xf4
 340 444 l 1
 340 397 l 1
 225 397 l 1
 225 47 l 1
 312 47 l 1
 312 0 l 1
 276 3 212 3 174 3 c 0
 128 3 83 1 48 0 c 1
 48 47 l 1
 117 47 l 1xec
 117 397 l 1
 42 397 l 1
EndSplineSet
Substitution2: "LC small to smallcaps subtable" F.sc
EndChar

StartChar: g
Encoding: 103 103 116
Width: 575
Flags: HW
TeX: 444 194
ItalicCorrection: 15
HStem: -201 36<227 352 227 375.5> -13 96<188 303 242 303 242 312> 154 36<242.5 299 211 327> 414 41
VStem: 32 94 56 111<281.5 324.5 279.5 337> 343 111<279.5 324.5> 454 88 472 86<385 400>
AnchorPoint: "affricate-below" 575 -194 basechar 0
AnchorPoint: "affricate-above" 575 694 basechar 0
AnchorPoint: "below" 287 -194 basechar 0
AnchorPoint: "above" 254 453 basechar 0
LayerCount: 2
Fore
SplineSet
32 -75 m 0xf9
 32 -12 105 9 118 12 c 1
 78 44 74 93 74 108 c 0
 74 129 80 162 108 197 c 1
 76 220 56 261 56 302 c 0
 56 372 111 450 255 450 c 0
 329 450 371 429 389 417 c 1
 433 452 480 455 495 455 c 0
 541 455 558 420 558 397 c 0
 558 373 541 354 515 354 c 0
 489 354 472 372 472 397 c 0
 472 403 474 412 476 417 c 1
 465 416 444 414 414 398 c 1
 429 382 454 349 454 302 c 0
 454 232 399 154 255 154 c 0
 230 154 179 156 133 180 c 1
 127 172 123 157 123 147 c 0
 123 129 134 91 178 84 c 0
 183 83 229 83 255 83 c 0
 351 83 411 83 467 55 c 0
 534 21 542 -42 542 -72 c 0
 542 -142 464 -201 287 -201 c 0
 87 -201 32 -126 32 -75 c 0xf9
118 -73 m 0
 118 -119 167 -165 287 -165 c 0
 417 -165 456 -111 456 -75 c 0
 456 -13 343 -13 312 -13 c 2
 195 -13 l 2
 181 -13 118 -13 118 -73 c 0
167 302 m 0
 167 257 167 190 255 190 c 0xf680
 343 190 343 257 343 302 c 0
 343 347 343 414 255 414 c 0
 167 414 167 347 167 302 c 0
EndSplineSet
Substitution2: "LC small to smallcaps subtable" G.sc
EndChar

StartChar: h
Encoding: 104 104 117
Width: 638
Flags: HW
TeX: 690 0
HStem: 0 47<45 114> 414 36<345.5 394> 639 55
VStem: 114 108<354 600 600 619.5> 114 114<47 256 47 600> 432 114<47 306 47 317 47 355>
AnchorPoint: "affricate-below" 638 -194 basechar 0
AnchorPoint: "affricate-above" 638 694 basechar 0
AnchorPoint: "below" 330 0 basechar 0
AnchorPoint: "above" 330 694 basechar 0
LayerCount: 2
Fore
SplineSet
45 0 m 1
 45 47 l 1
 114 47 l 1xec
 114 600 l 2
 114 639 107 639 45 639 c 1
 45 686 l 1
 222 694 l 1
 222 354 l 1
 223 354 l 1
 245 392 296 450 392 450 c 0
 492 450 546 411 546 306 c 2
 546 47 l 1
 615 47 l 1
 615 0 l 1xf4
 587 1 528 3 489 3 c 0
 451 3 391 1 363 0 c 1
 363 47 l 1
 432 47 l 1
 432 317 l 2
 432 393 411 414 377 414 c 0
 314 414 228 365 228 256 c 2
 228 47 l 1
 297 47 l 1
 297 0 l 1
 269 1 210 3 171 3 c 0
 133 3 73 1 45 0 c 1
EndSplineSet
Substitution2: "LC small to smallcaps subtable" H.sc
EndChar

StartChar: k
Encoding: 107 107 120
Width: 606
Flags: HW
TeX: 690 0
HStem: 0 47<37 106> 397 47<369 380.5> 639 55
VStem: 106 103<47 174 47 600> 106 108<237 600 600 619.5>
AnchorPoint: "affricate-below" 606 -194 basechar 0
AnchorPoint: "affricate-above" 606 694 basechar 0
AnchorPoint: "below" 312 0 basechar 0
AnchorPoint: "above" 312 694 basechar 0
LayerCount: 2
Fore
SplineSet
37 0 m 1
 37 47 l 1xf0
 106 47 l 1
 106 600 l 2
 106 639 99 639 37 639 c 1
 37 686 l 1
 214 694 l 1
 214 237 l 1
 403 386 l 1
 395 394 392 397 369 397 c 1
 369 444 l 1
 392 443 457 441 484 441 c 0
 510 441 535 441 562 444 c 1
 562 397 l 1
 495 397 486 390 472 379 c 2
 342 278 l 1
 511 67 l 2
 524 51 527 47 570 47 c 2
 587 47 l 1
 587 0 l 1
 553 2 519 3 483 3 c 0
 478 3 391 2 361 0 c 1
 361 47 l 1
 374 47 392 47 392 56 c 0
 392 59 376 79 367 91 c 0
 334 133 300 175 266 217 c 1
 246 203 238 197 209 174 c 1xe8
 209 47 l 1
 278 47 l 1
 278 0 l 1
 242 1 194 3 157 3 c 0
 121 3 74 1 37 0 c 1
EndSplineSet
Substitution2: "LC small to smallcaps subtable" K.sc
EndChar

StartChar: l
Encoding: 108 108 121
Width: 319
Flags: HW
TeX: 690 0
HStem: 0 47<47 116> 639 55
VStem: 116 108<47 600 600 619.5>
AnchorPoint: "affricate-below" 319 -194 basechar 0
AnchorPoint: "affricate-above" 319 694 basechar 0
AnchorPoint: "below" 170 0 basechar 0
AnchorPoint: "above" 170 694 basechar 0
LayerCount: 2
Fore
SplineSet
47 0 m 1
 47 47 l 1
 116 47 l 1
 116 600 l 2
 116 639 109 639 47 639 c 1
 47 686 l 1
 224 694 l 1
 224 47 l 1
 293 47 l 1
 293 0 l 1
 259 1 213 3 170 3 c 0
 127 3 79 1 47 0 c 1
EndSplineSet
Substitution2: "LC small to smallcaps subtable" L.sc
EndChar

StartChar: m
Encoding: 109 109 122
Width: 958
Flags: HW
TeX: 444 0
HStem: 0 47<45 114> 395 55 414 36<349.5 394 666.5 713>
VStem: 114 114<47 256 47 356 47 375.5> 433 114<47 256 47 317 47 355.5> 752 114<47 306 47 317 47 355.5>
AnchorPoint: "affricate-below" 958 -194 basechar 0
AnchorPoint: "affricate-above" 958 694 basechar 0
AnchorPoint: "below" 490 0 basechar 0
AnchorPoint: "above" 490 453 basechar 0
LayerCount: 2
Fore
SplineSet
45 0 m 1
 45 47 l 1xbc
 114 47 l 1
 114 356 l 2
 114 395 107 395 45 395 c 1
 45 442 l 1
 217 450 l 1xdc
 217 342 l 1
 249 405 306 450 393 450 c 0
 431 450 523 447 543 354 c 1
 569 400 621 450 712 450 c 0
 815 450 866 409 866 306 c 2
 866 47 l 1
 935 47 l 1
 935 0 l 1
 907 1 848 3 809 3 c 0
 771 3 711 1 683 0 c 1
 683 47 l 1
 752 47 l 1
 752 317 l 2
 752 394 730 414 696 414 c 0
 634 414 547 365 547 256 c 2
 547 47 l 1
 616 47 l 1
 616 0 l 1
 588 1 529 3 490 3 c 0
 452 3 392 1 364 0 c 1
 364 47 l 1
 433 47 l 1
 433 317 l 2
 433 394 411 414 377 414 c 0
 315 414 228 365 228 256 c 2
 228 47 l 1
 297 47 l 1
 297 0 l 1
 269 1 210 3 171 3 c 0
 133 3 73 1 45 0 c 1
EndSplineSet
Substitution2: "LC small to smallcaps subtable" M.sc
EndChar

StartChar: n
Encoding: 110 110 123
Width: 638
Flags: HW
TeX: 444 0
HStem: 0 47<45 114> 395 55 414 36<345.5 394>
VStem: 114 114<47 256 47 356 47 375.5> 432 114<47 306 47 317 47 355>
AnchorPoint: "affricate-below" 638 -194 basechar 0
AnchorPoint: "affricate-above" 638 694 basechar 0
AnchorPoint: "below" 330 0 basechar 0
AnchorPoint: "above" 330 453 basechar 0
LayerCount: 2
Fore
SplineSet
45 0 m 1
 45 47 l 1xb8
 114 47 l 1
 114 356 l 2
 114 395 107 395 45 395 c 1
 45 442 l 1
 217 450 l 1xd8
 217 342 l 1
 243 393 296 450 392 450 c 0
 492 450 546 411 546 306 c 2
 546 47 l 1
 615 47 l 1
 615 0 l 1
 587 1 528 3 489 3 c 0
 451 3 391 1 363 0 c 1
 363 47 l 1
 432 47 l 1
 432 317 l 2
 432 393 411 414 377 414 c 0
 314 414 228 365 228 256 c 2
 228 47 l 1
 297 47 l 1
 297 0 l 1
 269 1 210 3 171 3 c 0
 133 3 73 1 45 0 c 1
EndSplineSet
Substitution2: "LC small to smallcaps subtable" N.sc
EndChar

StartChar: o
Encoding: 111 111 124
Width: 575
Flags: HW
TeX: 444 0
HStem: -6 40<223.5 350.5 223.5 371> 417 36<262.5 308>
VStem: 32 128<185.5 251.5 185.5 284.5> 414 128<185.5 253>
AnchorPoint: "ogonek" 287 0 basechar 0
AnchorPoint: "affricate-below" 575 -194 basechar 0
AnchorPoint: "affricate-above" 575 694 basechar 0
AnchorPoint: "below" 287 0 basechar 0
AnchorPoint: "above" 286 453 basechar 0
LayerCount: 2
Fore
SplineSet
32 218 m 0
 32 351 123 453 287 453 c 0
 450 453 542 352 542 218 c 0
 542 95 455 -6 287 -6 c 0
 120 -6 32 94 32 218 c 0
160 229 m 0
 160 142 160 34 287 34 c 0
 414 34 414 142 414 229 c 0
 414 277 414 332 393 366 c 0
 371 401 329 417 287 417 c 0
 238 417 196 396 177 359 c 0
 160 325 160 274 160 229 c 0
EndSplineSet
Substitution2: "LC small to smallcaps subtable" O.sc
EndChar

StartChar: p
Encoding: 112 112 125
Width: 638
Flags: HW
TeX: 444 194
HStem: -194 47<37 106> -6 36<330 369.5 330 423> 395 55 410 40<338 382.5>
VStem: 106 108<-147 450 357 450> 106 114<-147 39 107.5 117 117 329> 472 128<153.5 286>
AnchorPoint: "affricate-below" 638 -194 basechar 0
AnchorPoint: "affricate-above" 638 694 basechar 0
AnchorPoint: "below" 352 -194 basechar 0
AnchorPoint: "above" 352 453 basechar 0
LayerCount: 2
Fore
SplineSet
37 -147 m 1
 106 -147 l 1
 106 357 l 2
 106 395 99 395 37 395 c 1
 37 442 l 1
 214 450 l 1xea
 214 401 l 1
 237 419 290 450 365 450 c 0
 509 450 600 356 600 223 c 0
 600 84 498 -6 348 -6 c 0
 307 -6 263 4 220 39 c 1
 220 -147 l 1
 289 -147 l 1
 289 -194 l 1
 261 -193 202 -191 163 -191 c 0
 125 -191 65 -193 37 -194 c 1
 37 -147 l 1
220 117 m 2
 220 98 220 97 231 84 c 0
 276 30 323 30 337 30 c 0
 402 30 472 82 472 223 c 0
 472 349 416 410 349 410 c 0
 327 410 275 404 235 363 c 0
 221 349 220 348 220 329 c 2xd6
 220 117 l 2
EndSplineSet
Substitution2: "LC small to smallcaps subtable" P.sc
EndChar

StartChar: q
Encoding: 113 113 126
Width: 606
Flags: HW
TeX: 444 194
HStem: -194 47<349 418> -6 36<257 302.5> 410 40<270 317 214 338> 430 20<214 317 491 532 532 532>
VStem: 38 128<154.5 291.5> 418 114<-147 48 48 48> 424 108<142 281 281 306>
AnchorPoint: "affricate-below" 606 -194 basechar 0
AnchorPoint: "affricate-above" 606 694 basechar 0
AnchorPoint: "below" 285 -194 basechar 0
AnchorPoint: "above" 285 453 basechar 0
LayerCount: 2
Fore
SplineSet
38 222 m 0
 38 361 141 450 287 450 c 0xec
 347 450 403 420 438 371 c 1
 491 450 l 1
 532 450 l 1
 532 -147 l 1
 601 -147 l 1
 601 -194 l 1
 573 -193 514 -191 475 -191 c 0
 437 -191 377 -193 349 -194 c 1
 349 -147 l 1
 418 -147 l 1
 418 48 l 1
 372 8 327 -6 278 -6 c 0
 139 -6 38 81 38 222 c 0
166 221 m 0
 166 88 226 30 288 30 c 0
 318 30 369 41 409 100 c 0
 424 121 424 124 424 142 c 2xda
 424 281 l 2
 424 331 376 410 300 410 c 0
 240 410 166 363 166 221 c 0
EndSplineSet
Substitution2: "LC small to smallcaps subtable" Q.sc
EndChar

StartChar: r
Encoding: 114 114 127
Width: 473
Flags: HW
TeX: 444 0
HStem: 0 47<37 106> 307 143 395 55
VStem: 106 108<47 222 47 356> 320 122<348 382.5>
AnchorPoint: "affricate-below" 473 -194 basechar 0
AnchorPoint: "affricate-above" 473 694 basechar 0
AnchorPoint: "below" 169 0 basechar 0
AnchorPoint: "above" 210 453 basechar 0
LayerCount: 2
Fore
SplineSet
37 0 m 1
 37 47 l 1
 106 47 l 1
 106 356 l 2
 106 395 99 395 37 395 c 1
 37 442 l 1
 203 450 l 1xb8
 203 337 l 1
 226 400 266 450 336 450 c 0
 388 450 442 421 442 368 c 0
 442 328 410 307 381 307 c 0
 352 307 320 327 320 368 c 0
 320 397 338 413 339 414 c 1
 239 414 214 292 214 222 c 2
 214 47 l 1
 301 47 l 1
 301 0 l 1xd8
 265 3 201 3 163 3 c 0
 117 3 72 1 37 0 c 1
EndSplineSet
Substitution2: "LC small to smallcaps subtable" R.sc
EndChar

StartChar: s
Encoding: 115 115 128
Width: 453
Flags: HW
TeX: 444 0
HStem: -6 36<220 241 177 245.5> 421 32<211.5 242 207 258.5>
VStem: 38 42 38 71<335.5 387.5> 344 42 344 71<67.5 134.5>
AnchorPoint: "affricate-below" 453 -194 basechar 0
AnchorPoint: "affricate-above" 453 694 basechar 0
AnchorPoint: "below" 230 0 basechar 0
AnchorPoint: "above" 222 453 basechar 0
LayerCount: 2
Fore
SplineSet
38 22 m 2
 38 131 l 2
 38 154 38 160 62 160 c 0
 76 160 81 160 86 146 c 1
 98 103 124 30 230 30 c 0
 252 30 344 30 344 105 c 0xe4
 344 164 269 177 233 183 c 0
 156 197 118 203 78 238 c 0
 58 255 38 282 38 322 c 0
 38 453 192 453 222 453 c 0
 262 453 297 447 323 434 c 1
 362 453 364 453 368 453 c 0
 386 453 386 444 386 425 c 2
 386 345 l 2
 386 322 386 317 362 317 c 0
 341 317 340 322 339 337 c 0
 334 392 296 421 221 421 c 0
 202 421 109 421 109 359 c 0
 109 312 174 301 211 294 c 0xd8
 289 281 321 275 360 246 c 1
 395 218 415 183 415 140 c 0
 415 -6 261 -6 230 -6 c 0
 210 -6 158 -6 112 26 c 1
 109 24 87 9 86 9 c 0
 65 -6 63 -6 56 -6 c 0
 38 -6 38 3 38 22 c 2
EndSplineSet
Substitution2: "LC small to smallcaps subtable" S.sc
EndChar

StartChar: t
Encoding: 116 116 129
Width: 447
Flags: HW
TeX: 633 0
HStem: -6 40<246 289 246 299> 397 47<217 363 217 363> 615 20<170 217 217 217>
VStem: 103 114<123 397> 335 47<126 177>
AnchorPoint: "affricate-below" 447 -194 basechar 0
AnchorPoint: "affricate-above" 447 694 basechar 0
AnchorPoint: "below" 236 0 basechar 0
AnchorPoint: "above" 160 635 basechar 0
LayerCount: 2
Fore
SplineSet
21 397 m 1
 21 433 l 1
 120 436 169 535 170 635 c 1
 217 635 l 1
 217 444 l 1
 363 444 l 1
 363 397 l 1
 217 397 l 1
 217 121 l 2
 217 98 217 34 275 34 c 0
 303 34 335 58 335 126 c 2
 335 177 l 1
 382 177 l 1
 382 124 l 2
 382 51 337 -6 261 -6 c 0
 190 -6 103 16 103 123 c 2
 103 397 l 1
 21 397 l 1
EndSplineSet
Substitution2: "LC small to smallcaps subtable" T.sc
EndChar

StartChar: u
Encoding: 117 117 130
Width: 638
Flags: HW
TeX: 444 0
HStem: -6 36<269.5 307> -6 53 395 55
VStem: 114 114<123 356 356 375.5> 432 114<165 356 356 375.5> 438 108<66.5 72 72 72>
AnchorPoint: "ogonek" 492 0 basechar 0
AnchorPoint: "affricate-below" 638 -194 basechar 0
AnchorPoint: "affricate-above" 638 694 basechar 0
AnchorPoint: "below" 330 0 basechar 0
AnchorPoint: "above" 330 453 basechar 0
LayerCount: 2
Fore
SplineSet
45 395 m 1
 45 442 l 1
 228 450 l 1
 228 109 l 2
 228 55 231 30 308 30 c 0
 381 30 432 83 432 165 c 2
 432 356 l 2
 432 395 425 395 363 395 c 1
 363 442 l 1
 546 450 l 1xb8
 546 86 l 2
 546 47 553 47 615 47 c 1
 615 0 l 1
 438 -6 l 1
 438 72 l 1x74
 392 -6 320 -6 294 -6 c 0
 195 -6 114 16 114 123 c 2
 114 356 l 2
 114 395 107 395 45 395 c 1
EndSplineSet
Substitution2: "LC small to smallcaps subtable" U.sc
EndChar

StartChar: v
Encoding: 118 118 131
Width: 606
Flags: HW
TeX: 444 0
ItalicCorrection: 15
HStem: -4 21<296.5 311.5> 397 47<26 90 26 26>
VStem: 26 554<397 444 397 444>
AnchorPoint: "affricate-below" 606 -194 basechar 0
AnchorPoint: "affricate-above" 606 694 basechar 0
AnchorPoint: "below" 303 0 basechar 0
AnchorPoint: "above" 303 453 basechar 0
LayerCount: 2
Fore
SplineSet
26 397 m 1
 26 444 l 1
 67 443 112 441 140 441 c 0
 141 441 231 442 264 444 c 1
 264 397 l 1
 210 397 l 1
 337 124 l 1
 453 374 l 2
 458 384 458 385 458 386 c 0
 458 394 429 397 410 397 c 1
 410 444 l 1
 431 443 476 441 501 441 c 0
 526 441 555 442 580 444 c 1
 580 397 l 1
 516 397 512 390 506 376 c 2
 340 20 l 2
 330 -1 320 -4 303 -4 c 0
 290 -4 277 -4 265 21 c 2
 90 397 l 1
 26 397 l 1
EndSplineSet
Substitution2: "LC small to smallcaps subtable" V.sc
EndChar

StartChar: w
Encoding: 119 119 132
Width: 830
Flags: HW
TeX: 444 0
ItalicCorrection: 15
HStem: -4 21<260.5 285.5 544.5 569.5> 397 47<25 84 25 25>
VStem: 25 780<397 444 397 444>
AnchorPoint: "affricate-below" 830 -194 basechar 0
AnchorPoint: "affricate-above" 830 694 basechar 0
AnchorPoint: "below" 415 0 basechar 0
AnchorPoint: "above" 414 453 basechar 0
LayerCount: 2
Fore
SplineSet
25 397 m 1
 25 444 l 1
 59 443 103 441 134 441 c 0
 175 441 216 442 257 444 c 1
 257 397 l 1
 201 397 l 1
 306 139 l 1
 385 331 l 2
 386 334 389 340 389 344 c 0
 389 345 389 347 368 397 c 1
 309 397 l 1
 309 444 l 1
 325 443 367 441 409 441 c 0
 439 441 491 443 523 444 c 1
 523 397 l 1
 467 397 l 1
 581 117 l 1
 686 373 l 2
 687 376 690 382 690 385 c 0
 690 396 641 397 632 397 c 1
 632 444 l 1
 654 443 701 441 728 441 c 0
 752 441 782 442 805 444 c 1
 805 397 l 1
 746 397 742 389 737 376 c 2
 593 23 l 2
 586 6 582 -4 557 -4 c 0
 532 -4 528 6 521 23 c 2
 415 282 l 1
 309 23 l 2
 302 6 298 -4 273 -4 c 0
 248 -4 244 6 237 23 c 2
 84 397 l 1
 25 397 l 1
EndSplineSet
Substitution2: "LC small to smallcaps subtable" W.sc
EndChar

StartChar: x
Encoding: 120 120 133
Width: 606
Flags: HW
TeX: 444 0
HStem: 0 47<22 46> 397 47<27 98 27 27>
VStem: 22 563<0 47 0 47>
AnchorPoint: "affricate-below" 606 -194 basechar 0
AnchorPoint: "affricate-above" 606 694 basechar 0
AnchorPoint: "below" 304 0 basechar 0
AnchorPoint: "above" 304 453 basechar 0
LayerCount: 2
Fore
SplineSet
22 0 m 1
 22 47 l 1
 70 47 106 47 123 66 c 2
 254 213 l 1
 98 397 l 1
 27 397 l 1
 27 444 l 1
 60 443 105 441 137 441 c 0
 169 441 232 443 258 444 c 1
 258 397 l 1
 218 397 l 1
 316 282 l 1
 400 376 l 2
 404 380 404 382 408 388 c 1
 396 395 384 397 370 397 c 1
 370 444 l 1
 398 443 448 441 473 441 c 0
 478 441 530 442 565 444 c 1
 565 397 l 1
 482 397 476 390 463 376 c 2
 346 246 l 1
 514 47 l 1
 585 47 l 1
 585 0 l 1
 552 1 507 3 475 3 c 0
 442 3 381 1 355 0 c 1
 355 47 l 1
 394 47 l 1
 284 177 l 1
 187 68 l 2
 180 60 180 59 180 58 c 0
 180 52 199 47 217 47 c 1
 217 0 l 1
 197 1 139 3 114 3 c 0
 109 3 57 2 22 0 c 1
EndSplineSet
Substitution2: "LC small to smallcaps subtable" X.sc
EndChar

StartChar: y
Encoding: 121 121 134
Width: 606
Flags: HW
TeX: 444 194
ItalicCorrection: 15
HStem: -200 36<122 164.5 122 167.5> 397 47<26 90 26 26>
VStem: 22 115<-124.5 -90.5 -124.5 -88.5>
AnchorPoint: "affricate-below" 606 -194 basechar 0
AnchorPoint: "affricate-above" 606 694 basechar 0
AnchorPoint: "below" 301 -194 basechar 0
AnchorPoint: "above" 302 453 basechar 0
LayerCount: 2
Fore
SplineSet
22 -108 m 0
 22 -69 51 -50 79 -50 c 0
 113 -50 137 -74 137 -107 c 0
 137 -142 114 -156 105 -160 c 1
 113 -163 115 -164 129 -164 c 0
 200 -164 232 -96 254 -48 c 2
 277 0 l 1
 90 397 l 1
 26 397 l 1
 26 444 l 1
 67 443 112 441 140 441 c 0
 141 441 231 442 264 444 c 1
 264 397 l 1
 210 397 l 1
 337 127 l 1
 452 373 l 2
 453 374 457 384 457 385 c 0
 457 397 412 397 410 397 c 1
 410 444 l 1
 431 443 476 441 501 441 c 0
 526 441 556 442 580 444 c 1
 580 397 l 1
 516 397 513 390 506 376 c 2
 291 -81 l 2
 264 -138 206 -200 129 -200 c 0
 69 -200 22 -159 22 -108 c 0
EndSplineSet
Substitution2: "LC small to smallcaps subtable" Y.sc
EndChar

StartChar: z
Encoding: 122 122 135
Width: 511
Flags: HW
TeX: 444 0
HStem: 0 40<172 258 258 324> 408 36<183.5 235 235 320>
VStem: 32 430<11 202>
AnchorPoint: "affricate-below" 511 -194 basechar 0
AnchorPoint: "affricate-above" 511 694 basechar 0
AnchorPoint: "below" 247 0 basechar 0
AnchorPoint: "above" 247 453 basechar 0
LayerCount: 2
Fore
SplineSet
32 22 m 0
 32 31 32 33 41 44 c 2
 320 408 l 1
 235 408 l 2
 132 408 101 372 95 269 c 1
 48 269 l 1
 60 444 l 1
 427 444 l 2
 445 444 459 444 459 423 c 0
 459 414 457 412 449 401 c 2
 172 40 l 1
 258 40 l 2
 390 40 406 101 415 202 c 1
 462 202 l 1
 444 0 l 1
 64 0 l 2
 45 0 32 0 32 22 c 0
EndSplineSet
Substitution2: "LC small to smallcaps subtable" Z.sc
EndChar

StartChar: braceleft
Encoding: 123 123 136
Width: 575
Flags: HW
TeX: 749 249
HStem: -250 37<400.472 495.99>
VStem: 230 114<-169.227 181.375 317.246 668.359>
LayerCount: 2
Fore
SplineSet
78 250 m 0
 78 275 104 264 141 275 c 0
 224 300 230 359 230 379 c 2
 230 603 l 2
 230 634 228 691 316 726 c 0
 361 743 418 750 468 750 c 0
 482 750 495 750 495 732 c 0
 495 706 467 718 425 705 c 0
 349 682 344 631 344 608 c 2
 344 385 l 2
 344 360 346 281 223 250 c 1
 345 219 344 143 344 115 c 2
 344 -108 l 2
 344 -133 350 -204 474 -213 c 0
 483 -214 496 -218 496 -232 c 0
 496 -249 482 -250 471 -250 c 0
 375 -250 250 -230 232 -138 c 0
 230 -126 230 -115 230 -103 c 2
 230 112 l 2
 230 136 228 152 216 172 c 0
 194 207 152 225 112 230 c 0
 96 232 78 231 78 250 c 0
EndSplineSet
EndChar

StartChar: bar
Encoding: 124 124 137
Width: 319
Flags: HW
TeX: 749 249
VStem: 129 60<-247.925 748.031>
LayerCount: 2
Fore
SplineSet
129 -209 m 2
 129 705 l 2
 129 714 127 749 159 749 c 0
 171 749 189 744 189 710 c 2
 189 -205 l 2
 189 -220 189 -249 159 -249 c 0
 128 -249 129 -217 129 -209 c 2
EndSplineSet
EndChar

StartChar: braceright
Encoding: 125 125 138
Width: 575
Flags: HW
TeX: 749 249
HStem: 230 39<401.233 495.984> 713 37<78.0124 170.288>
VStem: 230 114<-167.862 183.123 318.46 667.605>
LayerCount: 2
Fore
SplineSet
78 -231 m 0
 78 -208 103 -216 137 -208 c 0
 225 -187 230 -131 230 -108 c 2
 230 115 l 2
 230 141 227 219 350 250 c 1
 230 280 230 356 230 385 c 2
 230 600 l 2
 230 612 230 624 227 636 c 0
 216 677 168 708 105 713 c 0
 95 714 78 713 78 731 c 0
 78 746 89 750 100 750 c 2
 104 750 l 2
 191 750 321 732 341 640 c 0
 344 628 344 616 344 603 c 2
 344 386 l 2
 344 293 429 273 463 269 c 0
 476 268 496 271 496 250 c 0
 496 230 474 232 461 230 c 0
 411 224 357 196 346 142 c 0
 344 132 344 122 344 112 c 2
 344 -103 l 2
 344 -135 343 -201 242 -232 c 0
 216 -240 172 -250 103 -250 c 0
 90 -250 78 -247 78 -231 c 0
EndSplineSet
EndChar

StartChar: asciitilde
Encoding: 126 126 139
Width: 703
Flags: HW
TeX: 690 0
HStem: 586 74<336.016 544.62> 620 74<156.193 364.037>
LayerCount: 2
Fore
SplineSet
95 611 m 1
 145 665 162 694 237 694 c 0x40
 308 694 412 660 483 660 c 0x80
 540 660 561 678 579 694 c 1x40
 605 669 l 1
 556 616 541 586 464 586 c 0x80
 384 586 297 620 217 620 c 0x40
 160 620 139 601 121 586 c 1x80
 95 611 l 1
EndSplineSet
EndChar

StartChar: Abreve
Encoding: 258 258 141
Width: 869
Flags: HW
TeX: 894 0
HStem: -0 48<40 145.267 203.014 289 487 582 730 827> 192 48<274 503> 678 20<420 445.5> 755 63<336.936 531.196>
VStem: 256 36<856.305 894> 575 36<854.179 894>
DStem2: 148 75 254 192 0.38075 0.924678<9.32398 148.547 200.546 501.393> 475 668 389 518 0.380375 -0.924832<106.013 406.479 458.098 614.096>
AnchorPoint: "below" 434 0 basechar 0
AnchorPoint: "above" 434 873 basechar 0
LayerCount: 2
Fore
SplineSet
256 894 m 1
 292 894 l 1
 297 841 350 818 432 818 c 0
 546 818 572 858 575 894 c 1
 611 894 l 1
 607 802 521 755 434 755 c 0
 353 755 260 797 256 894 c 1
EndSplineSet
Refer: 78 65 S 1 0 0 1 0 -0 3
AlternateSubs2: "Stilistic set 01 subtable" Abreve.vn
AlternateSubs2: "Latin alternatives subtable" Abreve.vn
Substitution2: "Latin Vietnamese substitutions subtable" Abreve.vn
Substitution2: "LC caps to smallcaps subtable" Abreve.sc
EndChar

StartChar: Aogonek
Encoding: 260 260 142
Width: 869
Flags: HW
TeX: 690 194
HStem: -205 68<685.483 768.736> -0 48<40 145.267 203.014 289 487 582 730 827> 192 48<274 503> 678 20G<420 445.5>
VStem: 585 80<-115.763 -35.0333>
DStem2: 148 75 254 192 0.38075 0.924678<9.32398 148.547 200.546 501.393> 475 668 389 518 0.380375 -0.924832<106.013 406.479 458.098 614.096>
AnchorPoint: "above" 433 697 basechar 0
LayerCount: 2
Fore
SplineSet
40 -0 m 1
 40 48 l 1
 134 48 138 53 148 75 c 2
 393 670 l 2
 401 689 407 698 433 698 c 0
 458 698 466 690 475 668 c 2
 730 48 l 1
 827 48 l 1
 827 -0 l 1
 817 0 751 2 731 2 c 0
 715 2 708 2 690 -16 c 0
 675 -31 665 -47 665 -68 c 0
 665 -102 697 -137 730 -137 c 0
 754 -137 763 -117 778 -117 c 0
 786 -117 804 -126 804 -140 c 0
 804 -161 757 -205 701 -205 c 0
 635 -205 585 -154 585 -100 c 0
 585 -59 608 -27 641 3 c 1
 487 -0 l 1
 487 48 l 1
 582 48 l 1
 522 192 l 1
 254 192 l 1
 214 95 203 71 203 62 c 0
 203 53 222 48 289 48 c 1
 289 -0 l 1
 245 2 200 3 156 3 c 0
 144 3 110 3 40 -0 c 1
274 240 m 1
 503 240 l 1
 389 518 l 1
 274 240 l 1
EndSplineSet
Substitution2: "LC caps to smallcaps subtable" Aogonek.sc
Ligature2: "Latin ligatures subtable" A uni0328
EndChar

StartChar: Ccaron
Encoding: 268 268 144
Width: 830
Flags: HW
TeX: 894 0
HStem: -11 48<367.41 592.698> 649 48<369.979 582.403> 768 93<453.559 527.027> 878 26<329.769 335.891 645.901 651.231>
VStem: 63 153<220.723 467.152> 693 73<434.912 547.707> 717 48<151.125 246.909>
AnchorPoint: "below" 466 0 basechar 0
AnchorPoint: "above" 465 884 basechar 0
LayerCount: 2
Fore
SplineSet
321 878 m 1
 333 904 l 1
 474 865 484 861 491 861 c 2xf8
 492 861 l 2
 498 861 500 863 648 904 c 1
 660 878 l 1
 505 775 499 768 491 768 c 0
 482 768 485 769 321 878 c 1
EndSplineSet
Refer: 80 67 S 1 0 0 1 0 0 3
Substitution2: "LC caps to smallcaps subtable" Ccaron.sc
EndChar

StartChar: Dcaron
Encoding: 270 270 145
Width: 881
Flags: HW
TeX: 894 0
HStem: 0 48<39 147 284 542.627> 638 48<39 147 284 543.188> 768 93<345.559 419.027> 878 26<221.769 227.891 537.901 543.231>
VStem: 147 137<48 638> 670 148<210.049 467.331>
AnchorPoint: "below" 403 0 basechar 0
AnchorPoint: "above" 403 895 basechar 0
LayerCount: 2
Fore
SplineSet
213 878 m 1
 225 904 l 1
 366 865 376 861 383 861 c 2
 384 861 l 2
 390 861 392 863 540 904 c 1
 552 878 l 1
 397 775 391 768 383 768 c 0
 374 768 377 769 213 878 c 1
EndSplineSet
Refer: 81 68 S 1 0 0 1 0 0 3
Substitution2: "LC caps to smallcaps subtable" Dcaron.sc
EndChar

StartChar: Ecaron
Encoding: 282 282 146
Width: 755
Flags: HW
TeX: 894 0
HStem: 0 48<39 147 289 565.743> 329 48<289 424.58> 633 47<39 147 289 557.234> 768 93<309.559 383.027> 878 26<185.769 191.891 501.901 507.231>
VStem: 147 142<48 329 377 633> 450 48<212 302.916 402.312 494> 644 47<438 494.467>
AnchorPoint: "below" 381 0 basechar 0
AnchorPoint: "above" 381 901 basechar 0
LayerCount: 2
Fore
SplineSet
177 878 m 1
 189 904 l 1
 330 865 340 861 347 861 c 2
 348 861 l 2
 354 861 356 863 504 904 c 1
 516 878 l 1
 361 775 355 768 347 768 c 0
 338 768 341 769 177 878 c 1
EndSplineSet
Refer: 82 69 S 1 0 0 1 0 0 3
Substitution2: "LC caps to smallcaps subtable" Ecaron.sc
EndChar

StartChar: Eogonek
Encoding: 280 280 147
Width: 755
Flags: HW
TeX: 690 194
HStem: -205 68<565.29 648.196> -0 48<39 147 289 515.415> 329 48<289 424.58> 633 47<39 147 289 557.234>
VStem: 147 142<48 329 377 633> 450 48<212 302.916 402.312 494> 465 80<-116.109 -35.804> 644 47<438 494.467>
AnchorPoint: "above" 350 697 basechar 0
LayerCount: 2
Fore
SplineSet
39 -0 m 1
 39 48 l 1
 147 48 l 1
 147 633 l 1
 39 633 l 1
 39 680 l 1
 661 680 l 1
 691 438 l 1
 644 438 l 1
 635 509 623 565 574 601 c 0
 536 629 486 633 418 633 c 2
 289 633 l 1
 289 377 l 1
 339 377 l 2
 379 377 432 378 446 436 c 0
 451 455 450 475 450 494 c 1
 498 494 l 1
 498 212 l 1
 450 212 l 1xfd
 450 303 428 329 339 329 c 2
 289 329 l 1
 289 48 l 1
 442 48 l 1
 621 51 649 125 675 275 c 1
 723 275 l 1
 677 -0 l 1
 606 -0 l 2
 571 0 545 -40 545 -68 c 0
 545 -102 577 -137 610 -137 c 0xfb
 635 -137 642 -116 658 -116 c 0
 671 -116 684 -131 684 -140 c 0
 684 -160 637 -205 580 -205 c 0
 517 -205 465 -157 465 -100 c 0xfb
 465 -54 496 -21 518 -0 c 1
 39 -0 l 1
EndSplineSet
Substitution2: "LC caps to smallcaps subtable" Eogonek.sc
EndChar

StartChar: Gbreve
Encoding: 286 286 148
Width: 904
Flags: HW
TeX: 894 0
HStem: -11 48<376.539 584.771> 228 45<480 624 766 846> 536 160<710.361 765.865> 649 48<378.893 635.979> 755 63<371.978 567.522>
VStem: 64 153<220.412 463.792> 292 37<852.604 894> 611 37<854.179 894> 624 142<73.0427 228>
LayerCount: 2
Fore
SplineSet
64 343 m 0
 64 496 161 697 474 697 c 0xde80
 610 697 661 666 673 666 c 0
 688 666 729 696 748 696 c 0
 764 696 766 684 766 671 c 2
 766 565 l 2
 766 543 764 536 739 536 c 2
 737 536 l 1xee80
 700 537 724 560 683 599 c 0
 644 636 575 649 506 649 c 2
 503 649 l 2xde80
 380 649 260 603 228 458 c 0
 219 420 217 381 217 342 c 0
 217 253 230 165 294 106 c 0
 348 56 426 37 496 37 c 0
 551 37 624 56 624 128 c 2
 624 228 l 1
 480 228 l 1
 480 275 l 1
 549 273 619 273 688 273 c 0
 736 273 783 273 846 275 c 1
 846 228 l 1
 766 228 l 1
 766 23 l 2
 766 13 764 2 751 2 c 0
 742 2 687 25 655 53 c 1
 654 53 l 1
 637 35 594 -11 468 -11 c 0
 223 -11 64 134 64 343 c 0
292 894 m 1
 329 894 l 1
 332 858 357 818 472 818 c 0xcf
 536 818 605 832 611 894 c 1
 648 894 l 1
 644 802 557 755 470 755 c 0
 389 755 296 797 292 894 c 1
EndSplineSet
Substitution2: "LC caps to smallcaps subtable" Gbreve.sc
EndChar

StartChar: Lacute
Encoding: 313 313 149
Width: 691
Flags: HW
TeX: 876 0
HStem: 0 48<39 147 289 490.966> 638 45<39 147 289 425> 753 122<210.375 302.724>
VStem: 147 142<48 638> 595 48<210.833 275>
LayerCount: 2
Fore
SplineSet
91 778 m 1
 243 875 240 875 262 875 c 0
 296 875 318 841 318 812 c 0
 318 760 267 758 234 753 c 0
 192 746 150 739 108 733 c 1
 91 778 l 1
EndSplineSet
Refer: 89 76 S 1 0 0 1 0 -0 3
Substitution2: "LC caps to smallcaps subtable" Lacute.sc
EndChar

StartChar: Lcaron
Encoding: 317 317 150
Width: 691
Flags: HW
TeX: 894 0
HStem: 0 48<39 147 289 490.966> 638 45<39 147 289 412> 668 156<426.416 517.159>
VStem: 147 142<48 638> 386 171<689.912 787.622> 595 48<210.833 275>
LayerCount: 2
Fore
SplineSet
39 0 m 1
 39 48 l 1
 147 48 l 1
 147 638 l 1
 39 638 l 1
 39 686 l 1
 102 684 165 683 228 683 c 0xdc
 265 683 301 683 412 685 c 1
 408 690 386 710 386 746 c 0
 386 789 417 824 463 824 c 0
 506 824 557 790 557 720 c 0
 557 609 460 540 436 540 c 0xbc
 427 540 417 549 417 558 c 0
 417 580 495 587 518 688 c 1
 500 674 486 668 464 668 c 0xbc
 449 668 440 671 425 677 c 1
 425 638 l 1
 289 638 l 1
 289 48 l 1
 383 48 l 2
 553 48 582 162 595 275 c 1
 643 275 l 1
 613 0 l 1
 39 0 l 1
EndSplineSet
Substitution2: "LC caps to smallcaps subtable" Lcaron.sc
EndChar

StartChar: Lslash
Encoding: 321 321 151
Width: 691
Flags: HW
TeX: 690 0
HStem: -0 48<39 147 289 490.966> 638 45<39 147 289 425>
VStem: 147 142<48 275 318.863 394.5 439 638> 595 48<210.833 275>
DStem2: 50 263 78 224 0.80596 0.59197<0 84.3516 299.281 499.505>
LayerCount: 2
Fore
SplineSet
39 -0 m 1
 39 48 l 1
 147 48 l 1
 147 275 l 1
 78 224 l 1
 50 263 l 1
 153 339 146 331 147 349 c 1
 147 638 l 1
 39 638 l 1
 39 686 l 1
 110 684 163 683 216 683 c 0
 286 683 355 684 425 686 c 1
 425 638 l 1
 289 638 l 1
 289 439 l 1
 453 559 l 1
 481 520 l 1
 279 371 290 386 289 365 c 1
 289 48 l 1
 383 48 l 2
 553 48 582 162 595 275 c 1
 643 275 l 1
 613 -0 l 1
 39 -0 l 1
EndSplineSet
Substitution2: "LC caps to smallcaps subtable" Lslash.sc
EndChar

StartChar: Ncaron
Encoding: 327 327 153
Width: 900
Flags: HW
TeX: 894 0
HStem: 0 48<39 146.916 200.158 309> 638 48<39 147 591 698.46 752.211 860> 768 93<412.559 486.027> 878 26<288.769 294.891 604.901 610.962>
VStem: 147 53<51.6248 599> 699 53<206 634.507>
DStem2: 699 206 200 599 0.647377 -0.76217<-622.263 0>
LayerCount: 2
Fore
SplineSet
280 878 m 1
 292 904 l 1
 433 865 443 861 450 861 c 2
 451 861 l 2
 457 861 460 863 608 904 c 1
 619 878 l 1
 464 775 458 768 450 768 c 0
 441 768 444 769 280 878 c 1
EndSplineSet
Refer: 91 78 S 1 0 0 1 0 0 3
Substitution2: "LC caps to smallcaps subtable" Ncaron.sc
EndChar

StartChar: Eng
Encoding: 330 330 154
Width: 914
Flags: HW
TeX: 690 0
HStem: -11 37<533.269 667.894> -0 48<39 147 289 378> 638 45<39 147> 653 53<387.114 577.04>
VStem: 147 142<48 594.359 636 638> 425 153<61.9844 167.944> 707 142<72.4506 539.491>
LayerCount: 2
Fore
SplineSet
39 -0 m 1
 39 48 l 1
 147 48 l 1
 147 638 l 1
 39 638 l 1
 39 686 l 1
 236 683 l 1x6e
 289 686 l 1
 289 636 l 1
 340 671 417 706 524 706 c 0
 651 706 772 654 824 558 c 0
 845 519 849 485 849 446 c 2
 849 154 l 2
 849 152 850 150 850 148 c 0
 850 53 760 -11 617 -11 c 0
 502 -11 425 38 425 113 c 0
 425 159 459 191 501 191 c 0
 543 191 578 159 578 114 c 0
 578 71 550 53 531 43 c 1
 561 30 587 26 611 26 c 0
 649 26 707 43 707 154 c 2
 707 446 l 2x9e
 707 603 562 653 475 653 c 0x9e
 372 653 301 594 292 573 c 0
 290 567 289 561 289 555 c 2
 289 48 l 1
 378 48 l 1
 378 -0 l 1
 292 3 245 3 224 3 c 2
 217 3 l 2
 158 3 98 2 39 -0 c 1
EndSplineSet
Substitution2: "LC caps to smallcaps subtable" Eng.sc
EndChar

StartChar: Ohungarumlaut
Encoding: 336 336 155
Width: 863
Flags: HW
TeX: 876 0
HStem: -11 43<346.179 520.194> 656 41<343.249 521.02> 753 122<591.597 682.984>
VStem: 63 153<210.586 470.692> 646 153<212.373 470.772>
AnchorPoint: "below" 431 0 basechar 0
AnchorPoint: "above" 432 855 basechar 0
LayerCount: 2
Fore
SplineSet
279 778 m 1
 429 873 429 875 452 875 c 2
 453 875 l 1
 476 874 506 854 506 811 c 2
 506 800 l 1
 606 863 620 875 642 875 c 0
 677 875 698 841 698 813 c 0
 698 759 642 757 617 753 c 0
 574 746 530 739 487 733 c 1
 476 763 l 1
 419 750 356 744 296 733 c 1
 279 778 l 1
EndSplineSet
Refer: 92 79 S 1 0 0 1 -0 -0 3
Substitution2: "LC caps to smallcaps subtable" Ohungarumlaut.sc
EndChar

StartChar: Rcaron
Encoding: 344 344 157
Width: 862
Flags: HW
TeX: 894 0
HStem: -11 37<709.127 788.395> 0 48<39 147 284 392> 325 36<284 467.963> 638 48<39 147 284 509.649> 768 93<334.559 408.598> 878 26<211.038 217.888 527.898 533.231>
VStem: 147 137<48 325 361 638> 565 153<431.016 573.673> 809 49<43.8529 116.852>
AnchorPoint: "below" 355 0 basechar 0
AnchorPoint: "above" 355 895 basechar 0
LayerCount: 2
Fore
SplineSet
203 878 m 1
 214 904 l 1
 355 865 365 861 372 861 c 2x3f80
 373 861 l 2
 379 861 382 863 530 904 c 1
 542 878 l 1
 387 775 380 768 372 768 c 0
 363 768 367 769 203 878 c 1
EndSplineSet
Refer: 95 82 S 1 0 0 1 0 0 3
Substitution2: "LC caps to smallcaps subtable" Rcaron.sc
EndChar

StartChar: Scaron
Encoding: 352 352 159
Width: 638
Flags: HW
TeX: 894 0
HStem: -11 48<221.322 427.55> 653 44<206.133 388.126> 768 93<281.152 354.598> 878 26<157.769 163.888 473.898 479.231>
VStem: 63 51<124.926 227.823> 63 98<491.201 588.033> 476 98<104.912 218.518> 492 50<458.158 548.164>
AnchorPoint: "below" 347 0 basechar 0
AnchorPoint: "above" 288 884 basechar 0
LayerCount: 2
Fore
SplineSet
149 878 m 1
 161 904 l 1
 302 865 311 861 318 861 c 2xf6
 319 861 l 2
 325 861 328 863 476 904 c 1
 488 878 l 1
 333 775 326 768 318 768 c 0
 309 768 313 769 149 878 c 1
EndSplineSet
Refer: 96 83 S 1 0 0 1 0 0 3
Substitution2: "LC caps to smallcaps subtable" Scaron.sc
EndChar

StartChar: Scedilla
Encoding: 350 350 160
Width: 639
Flags: HW
TeX: 690 170
HStem: -199 36<198 356.029> -60 97<295.293 374.109> -10 21G<71.5 84.5> 653 44<205.799 388.126>
VStem: 63 98<491.025 587.979> 63 51<124.926 227.823> 388 115<-142.392 -76.3657> 476 98<104.356 218.924> 492 50<458.158 547.777>
LayerCount: 2
Fore
SplineSet
63 18 m 2
 63 206 l 1
 64 225 73 228 87 228 c 0
 118 228 107 213 114 178 c 0
 136 70 248 37 347 37 c 0
 451 37 476 108 476 152 c 0xd5
 476 201 447 236 414 255 c 0
 377 276 251 290 200 309 c 0
 136 333 63 398 63 497 c 0
 63 604 139 697 287 697 c 0
 390 697 442 654 458 641 c 1
 459 641 l 1
 507 694 517 696 526 696 c 0
 535 696 542 690 542 671 c 2
 542 481 l 1
 541 462 535 458 518 458 c 0
 499 458 495 465 492 481 c 0xd880
 473 606 380 653 288 653 c 0
 198 653 161 600 161 550 c 0
 161 506 189 477 217 461 c 0
 255 439 370 425 421 409 c 0
 495 385 574 314 574 203 c 0xd9
 574 116 528 19 408 -5 c 1
 408 -30 l 1
 430 -34 503 -46 503 -110 c 0
 503 -182 410 -199 198 -199 c 1
 198 -163 l 1
 205 -163 l 2
 323 -163 388 -152 388 -111 c 0xd2
 388 -90 373 -62 293 -60 c 1xd2
 293 -8 l 1
 201 3 158 37 145 45 c 1
 98 -6 89 -10 80 -10 c 0xb2
 63 -10 63 7 63 18 c 2
EndSplineSet
Substitution2: "LC caps to smallcaps subtable" Scedilla.sc
EndChar

StartChar: Tcaron
Encoding: 356 356 161
Width: 800
Flags: HW
TeX: 894 0
HStem: 3 45<175 328 471 624> 627 48<152.286 328 471 644.931> 768 93<362.559 436.027> 878 26<238.769 244.891 554.901 560.231>
VStem: 41 48<433 513.667> 328 143<48 627> 710 48<433 510>
CounterMasks: 1 0e
AnchorPoint: "below" 400 0 basechar 0
AnchorPoint: "above" 400 906 basechar 0
LayerCount: 2
Fore
SplineSet
230 878 m 1
 242 904 l 1
 383 865 393 861 400 861 c 2
 401 861 l 2
 407 861 409 863 557 904 c 1
 569 878 l 1
 414 775 408 768 400 768 c 0
 391 768 394 769 230 878 c 1
EndSplineSet
Refer: 97 84 S 1 0 0 1 -0 0 3
Substitution2: "LC caps to smallcaps subtable" Tcaron.sc
EndChar

StartChar: Tcommaaccent
Encoding: 354 354 162
Width: 800
Flags: HW
TeX: 690 170
HStem: -199 36<246 406.635> 3 45<175 328 471 624> 627 48<152.286 328 471 644.931>
VStem: 41 48<433 513.667> 328 143<48 627> 437 115<-142.338 -75.1307> 710 48<433 510>
LayerCount: 2
Fore
SplineSet
41 433 m 1
 62 675 l 1
 736 675 l 1
 758 433 l 1
 710 433 l 1
 697 578 676 627 532 627 c 2xfa
 471 627 l 1
 471 48 l 1xfa
 624 48 l 1
 624 0 l 1
 456 3 l 1
 456 -30 l 1
 479 -34 552 -46 552 -110 c 0
 552 -197 394 -199 265 -199 c 2
 246 -199 l 1
 246 -163 l 1
 258 -163 l 2
 367 -163 437 -153 437 -111 c 0xf6
 437 -90 423 -61 342 -60 c 1
 342 3 l 1
 175 0 l 1
 175 48 l 1
 328 48 l 1
 328 627 l 1
 267 627 l 2
 219 627 159 626 124 579 c 0
 97 543 93 473 89 433 c 1
 41 433 l 1
EndSplineSet
Substitution2: "LC caps to smallcaps subtable" Tcommaaccent.sc
EndChar

StartChar: Uhungarumlaut
Encoding: 368 368 163
Width: 884
Flags: HW
TeX: 876 0
HStem: -11 48<369.199 578.544> 638 48<39 147 289 398 575 683.765 737.145 845> 753 122<602.597 693.984>
VStem: 147 142<134.854 638> 684 53<137.771 634.292>
AnchorPoint: "below" 462 0 basechar 0
AnchorPoint: "above" 442 866 basechar 0
LayerCount: 2
Fore
SplineSet
290 778 m 1
 440 873 440 875 463 875 c 2
 464 875 l 1
 487 874 517 854 517 811 c 2
 517 800 l 1
 617 863 631 875 653 875 c 0
 688 875 709 841 709 813 c 0
 709 759 653 757 628 753 c 0
 585 746 541 739 498 733 c 1
 487 763 l 1
 430 750 367 744 307 733 c 1
 290 778 l 1
EndSplineSet
Refer: 98 85 S 1 0 0 1 0 0 3
Substitution2: "LC caps to smallcaps subtable" Uhungarumlaut.sc
EndChar

StartChar: Ydieresis
Encoding: 376 376 165
Width: 869
Flags: HW
TeX: 894 0
ItalicCorrection: 28
HStem: 0 48<258 366 503 611> 638 48<19 131.684 283 367 603 674.972 737.298 849> 738 156<270.374 376 492.988 598.15>
VStem: 245 155<762.792 869.012> 366 137<48 302.375> 468 155<762.395 869.208>
DStem2: 283 638 143 600 0.564001 -0.825774<0 356.664> 484 343 512 287 0.563962 0.825801<0 341.262>
AnchorPoint: "below" 434 0 basechar 0
AnchorPoint: "above" 434 885 basechar 0
LayerCount: 2
Fore
SplineSet
245 816 m 0
 245 857 277 894 322 894 c 0
 362 894 400 862 400 816 c 0xf0
 400 777 369 738 323 738 c 0
 283 738 245 771 245 816 c 0
468 816 m 0
 468 855 500 894 546 894 c 0
 586 894 623 861 623 816 c 0
 623 773 589 738 546 738 c 0xe4
 505 738 468 770 468 816 c 0
EndSplineSet
Refer: 102 89 S 1 0 0 1 -0 0 3
Substitution2: "LC caps to smallcaps subtable" Ydieresis.sc
EndChar

StartChar: Zcaron
Encoding: 381 381 167
Width: 702
Flags: HW
TeX: 894 0
HStem: 0 52<231 491.623> 444 21<79 133> 638 48<223.227 471> 768 93<295.559 369.027> 878 26<171.769 177.891 487.901 493.231>
VStem: 79 48<444 541.488> 597 47<174.167 285>
DStem2: 77 60 231 52 0.563248 0.826288<80.1299 699.514>
AnchorPoint: "below" 354 0 basechar 0
AnchorPoint: "above" 354 895 basechar 0
LayerCount: 2
Fore
SplineSet
163 878 m 1
 175 904 l 1
 316 865 326 861 333 861 c 2
 334 861 l 2
 340 861 342 863 490 904 c 1
 502 878 l 1
 347 775 341 768 333 768 c 0
 324 768 327 769 163 878 c 1
EndSplineSet
Refer: 103 90 S 1 0 0 1 0 0 3
Substitution2: "LC caps to smallcaps subtable" Zcaron.sc
EndChar

StartChar: IJ
Encoding: 306 306 169
Width: 1011
Flags: HW
TeX: 690 0
HStem: -11 37<546.289 684.183> 0 48<33 147 289 403> 638 45<33 147 289 403 585 726 863 944>
VStem: 147 142<48 638> 438 154<61.9844 167.796> 726 137<73.7969 638>
LayerCount: 2
Fore
SplineSet
438 113 m 0
 438 162 474 191 514 191 c 0
 556 191 592 160 592 114 c 0
 592 92 584 61 544 43 c 1
 567 34 594 26 627 26 c 0
 681 26 708 60 718 90 c 0
 726 112 726 137 726 160 c 2
 726 638 l 1
 585 638 l 1
 585 686 l 1
 653 684 722 683 790 683 c 0
 852 683 898 684 944 686 c 1
 944 638 l 1
 863 638 l 1
 863 153 l 2
 863 26 737 -11 632 -11 c 0xbc
 514 -11 438 38 438 113 c 0
EndSplineSet
Refer: 86 73 S 1 0 0 1 0 0 2
Substitution2: "LC caps to smallcaps subtable" IJ.sc
Ligature2: "Latin Dutch ligatures subtable" I J
EndChar

StartChar: dcroat
Encoding: 273 273 171
Width: 639
Flags: HW
TeX: 690 0
HStem: -5 36<225.214 358.016> 0 48<534.085 602> 413 37<228.526 370.289> 520 48<201 424 533 584> 638 48<354 422.701> 674 20G<354 533>
VStem: 38 128<121.863 320.592> 418 115<76.9951 377.007 405 520 568 636.525>
LayerCount: 2
Fore
SplineSet
38 222 m 0
 38 359 138 450 289 450 c 0
 343 450 386 433 424 405 c 1
 424 520 l 1
 201 520 l 1
 201 568 l 1
 424 568 l 1
 424 592 l 2
 424 631 423 638 363 638 c 2
 354 638 l 1
 354 686 l 1xbb
 533 694 l 1
 533 568 l 1
 584 568 l 1
 584 520 l 1
 533 520 l 1
 533 80 l 1
 534 52 545 48 591 48 c 2
 602 48 l 1
 602 0 l 1x77
 418 -5 l 1
 418 44 l 1
 380 14 336 -5 276 -5 c 0
 140 -5 38 81 38 222 c 0
166 204 m 2
 166 128 179 96 193 77 c 0
 214 47 250 31 288 31 c 0
 360 31 410 84 417 105 c 0
 419 111 418 119 418 125 c 2
 418 335 l 2xb3
 418 378 353 413 299 413 c 0
 253 413 215 395 192 360 c 0
 167 323 166 270 166 233 c 2
 166 204 l 2
EndSplineSet
AlternateSubs2: "Stilistic set 01 subtable" dcroat.vn
AlternateSubs2: "Latin alternatives subtable" dcroat.vn
Substitution2: "Latin Vietnamese substitutions subtable" dcroat.vn
Substitution2: "LC small to smallcaps subtable" Eth.sc
EndChar

StartChar: section
Encoding: 167 167 172
Width: 529
Flags: HW
TeX: 690 194
HStem: -200 37<192.332 324.256> 663 36<206.867 335.455>
VStem: 80 70<222.036 323.524 509.687 611.017> 96 114<-116.357 -29.5251> 319 114<529.277 618.243> 378 71<-112.81 -9.90033 175.222 277.527>
LayerCount: 2
Fore
SplineSet
80 253 m 0
 80 330 133 367 155 381 c 1
 115 421 80 471 80 542 c 0
 80 636 168 699 265 699 c 0
 358 699 433 645 433 575 c 0
 433 535 402 517 375 517 c 0
 344 517 319 540 319 573 c 0xe8
 319 610 346 623 360 629 c 1
 335 650 307 663 266 663 c 0
 197 663 150 601 150 548 c 0xe8
 150 494 245 480 303 453 c 0
 413 401 448 308 448 246 c 0
 448 169 396 132 374 118 c 1
 407 84 449 34 449 -43 c 0
 449 -137 360 -200 263 -200 c 0
 170 -200 96 -146 96 -76 c 0
 96 -38 124 -17 153 -17 c 0
 184 -17 210 -41 210 -74 c 0
 210 -94 201 -117 168 -129 c 1
 192 -148 220 -163 263 -163 c 0
 315 -163 368 -126 377 -59 c 0
 377 -56 378 -54 378 -51 c 0xd4
 378 8 289 17 225 47 c 0
 114 100 80 191 80 253 c 0
150 263 m 0xe4
 150 202 234 203 334 149 c 1
 369 182 378 215 378 237 c 0
 378 298 295 297 195 351 c 1
 160 318 150 285 150 263 c 0xe4
EndSplineSet
EndChar

StartChar: aogonek
Encoding: 261 261 174
Width: 559
Flags: HW
TeX: 444 194
HStem: -205 69<438.658 520.66> -5 36<182.486 306.296> 234 31<260.563 357> 416 37<176.284 313.422>
VStem: 31 118<59.3876 166.819> 71 125<314.141 409.438> 339 80<-116.737 -34.7087> 357 114<73.2497 234 265 373.992>
AnchorPoint: "above" 251 453 basechar 0
LayerCount: 2
Fore
SplineSet
31 109 m 0xfa
 31 233 233 264 357 265 c 1
 357 292 l 2
 357 357 335 416 249 416 c 0
 234 416 204 415 174 410 c 1
 185 398 196 387 196 361 c 0
 196 324 167 299 133 299 c 0
 96 299 71 327 71 362 c 0
 71 442 170 453 251 453 c 0
 433 453 463 358 469 326 c 0
 471 314 471 302 471 290 c 2
 471 93 l 2xf5
 471 86 470 77 472 70 c 0
 481 38 542 57 553 39 c 0
 556 34 558 30 558 24 c 0
 558 0 540 0 525 0 c 2
 479 0 l 2
 439 0 419 -44 419 -67 c 0xf2
 419 -109 456 -136 482 -136 c 0
 507 -136 517 -114 532 -114 c 0
 539 -114 558 -124 558 -138 c 0
 558 -154 516 -205 453 -205 c 0
 392 -205 339 -159 339 -100 c 0
 339 -47 380 -8 406 13 c 1
 372 35 374 52 373 78 c 1
 348 29 297 -5 224 -5 c 0
 149 -5 31 15 31 109 c 0xfa
149 110 m 0
 149 63 191 31 240 31 c 0xf9
 278 31 357 51 357 141 c 2
 357 234 l 1
 277 229 196 213 162 156 c 0
 154 142 149 126 149 110 c 0
EndSplineSet
Substitution2: "LC small to smallcaps subtable" Aogonek.sc
EndChar

StartChar: cacute
Encoding: 263 263 175
Width: 511
Flags: HW
TeX: 648 0
HStem: -5 40<235.917 376.487> 412 41<223.581 359.573>
VStem: 38 128<123.202 324.029> 341 125<313.79 407.484> 429 48<80.6059 131.941>
AnchorPoint: "below" 286 0 basechar 0
AnchorPoint: "above" 291 642 basechar 0
LayerCount: 2
Fore
SplineSet
195 535 m 1
 321 652 327 662 355 662 c 0xe0
 388 662 413 630 413 599 c 0
 413 554 386 552 219 494 c 1
 195 535 l 1
EndSplineSet
Refer: 112 99 S 1 0 0 1 0 -0 3
Substitution2: "LC small to smallcaps subtable" Cacute.sc
EndChar

StartChar: dcaron
Encoding: 271 271 177
Width: 810
Flags: HW
TeX: 690 0
HStem: -5 36<225.214 358.016> -0 48<534.015 602> 413 37<228.526 370.289> 598 156<600.669 709.061> 638 48<354 422.748> 674 20<354 533>
VStem: 38 128<121.863 320.592> 418 115<76.9951 377.007 405 636.389> 578 172<624.368 716.333>
LayerCount: 2
Fore
SplineSet
578 676 m 0
 578 719 609 754 655 754 c 0
 701 754 750 717 750 650 c 0
 750 537 651 470 628 470 c 0
 619 470 610 480 610 489 c 0
 610 511 685 515 710 619 c 1
 693 605 678 598 656 598 c 0x3380
 609 598 578 633 578 676 c 0
EndSplineSet
Refer: 113 100 S 1 0 0 1 -0 -0 2
Substitution2: "LC small to smallcaps subtable" Dcaron.sc
EndChar

StartChar: eogonek
Encoding: 281 281 179
Width: 527
Flags: HW
TeX: 444 194
HStem: -205 68<347.679 430.828> -5 40<225.694 294> 218 33<159 399> 416 37<216.661 339.481>
VStem: 31 128<126.339 218 251 325.19> 248 79<-116.49 -35.5473> 443 49<82.3708 134.588>
AnchorPoint: "above" 279 453 basechar 0
LayerCount: 2
Fore
SplineSet
31 225 m 0
 31 354 122 453 279 453 c 0
 451 453 494 336 494 245 c 0
 494 219 478 218 463 218 c 2
 159 218 l 1
 159 168 162 115 197 77 c 0
 224 48 264 35 303 35 c 0
 366 35 421 65 443 113 c 0
 448 123 452 135 470 135 c 0
 481 135 492 131 492 116 c 0
 492 91 461 49 417 24 c 0
 403 16 327 -14 327 -68 c 0
 327 -100 357 -137 392 -137 c 0
 416 -137 425 -116 440 -116 c 0
 448 -116 466 -125 466 -139 c 0
 466 -159 421 -205 363 -205 c 0
 297 -205 248 -155 248 -101 c 0
 248 -62 269 -31 294 -5 c 1
 119 -4 31 100 31 225 c 0
159 251 m 1
 399 251 l 1
 397 289 393 343 362 380 c 0
 342 404 310 416 279 416 c 0
 239 416 204 397 184 365 c 0
 162 331 161 290 159 251 c 1
EndSplineSet
Substitution2: "LC small to smallcaps subtable" Eogonek.sc
EndChar

StartChar: lcaron
Encoding: 318 318 182
Width: 502
Flags: HW
TeX: 690 0
HStem: -0 48<46 116 224 294> 598 156<292.669 401.061> 638 48<46 114.893> 674 20<46 224>
VStem: 116 108<48 635.526> 270 172<624.368 716.333>
LayerCount: 2
Fore
SplineSet
270 676 m 0
 270 719 301 754 347 754 c 0
 393 754 442 717 442 650 c 0
 442 537 343 470 320 470 c 0
 311 470 301 480 301 489 c 0
 301 511 377 515 402 619 c 1
 385 605 370 598 348 598 c 0xcc
 301 598 270 633 270 676 c 0
EndSplineSet
Refer: 121 108 S 1 0 0 1 -0 -0 2
Substitution2: "LC small to smallcaps subtable" Lcaron.sc
EndChar

StartChar: lslash
Encoding: 322 322 183
Width: 386
Flags: HW
TeX: 690 0
HStem: 3 45<78 147 256 325> 638 48<78 145.7> 674 20G<78 256>
VStem: 147 109<48 287 346 367 426 635.061>
DStem2: 65 286 93 247 0.806306 0.591499<0 66.7086 236.814 320.726>
AnchorPoint: "above" 202 694 basechar 0
LayerCount: 2
Fore
SplineSet
65 286 m 1
 147 346 l 1
 147 600 l 2xb0
 147 632 139 638 86 638 c 2
 78 638 l 1
 78 686 l 1xd0
 256 694 l 1
 256 426 l 1
 324 476 l 1
 352 437 l 1
 256 367 l 1
 256 48 l 1
 325 48 l 1
 325 -0 l 1
 282 2 240 3 197 3 c 0
 149 3 114 1 78 -0 c 1
 78 48 l 1
 147 48 l 1
 147 287 l 1
 93 247 l 1
 65 286 l 1
EndSplineSet
Substitution2: "LC small to smallcaps subtable" Lslash.sc
EndChar

StartChar: nacute
Encoding: 324 324 184
Width: 638
Flags: HW
TeX: 648 0
HStem: -0 48<44 114 228 297 363 432 546 616> 394 48<44 112.663> 413 37<308.704 413.41>
VStem: 114 103<341 391.047> 114 114<48 340.401> 432 114<48 396>
LayerCount: 2
Fore
SplineSet
254 535 m 1
 382 653 387 662 414 662 c 0x84
 446 662 472 630 472 599 c 0
 472 553 444 551 279 494 c 1
 254 535 l 1
EndSplineSet
Refer: 123 110 S 1 0 0 1 0 -0 3
Substitution2: "LC small to smallcaps subtable" Nacute.sc
EndChar

StartChar: eng
Encoding: 331 331 186
Width: 639
Flags: HW
TeX: 444 194
HStem: -200 154<309.379 366.254> 3 45<44 114 228 297> 394 48<44 112.663> 413 37<308.554 413.827>
VStem: 114 114<48 338.157> 114 103<341 391.047> 269 125<-156.344 -61.5937> 432 114<-95.5505 396.239>
AnchorPoint: "affricate-below" 639 -194 basechar 0
AnchorPoint: "affricate-above" 639 694 basechar 0
AnchorPoint: "below" 330 -194 basechar 0
AnchorPoint: "above" 330 453 basechar 0
LayerCount: 2
Fore
SplineSet
44 -0 m 1
 44 48 l 1
 114 48 l 1xdb
 114 358 l 2
 114 390 100 394 53 394 c 2
 44 394 l 1
 44 442 l 1xe7
 217 450 l 1
 217 341 l 1
 236 382 287 450 392 450 c 0
 539 450 546 361 546 295 c 2
 546 25 l 2
 546 -108 483 -200 387 -200 c 0
 324 -200 269 -164 269 -109 c 0
 269 -72 296 -46 331 -46 c 0
 363 -46 394 -71 394 -109 c 0
 394 -141 375 -154 367 -161 c 1
 377 -162 388 -165 397 -161 c 0
 431 -147 432 -58 432 0 c 2
 432 301 l 2
 432 354 432 413 375 413 c 0xd7
 330 413 227 381 227 249 c 0
 227 240 228 231 228 222 c 2
 228 48 l 1
 297 48 l 1
 297 -0 l 1
 260 1 224 3 175 3 c 0
 131 3 88 2 44 -0 c 1
EndSplineSet
Substitution2: "LC small to smallcaps subtable" Eng.sc
EndChar

StartChar: ohungarumlaut
Encoding: 337 337 187
Width: 575
Flags: HW
TeX: 648 0
ItalicCorrection: 14
HStem: -5 40<212.301 357.895> 416 37<216.163 356.962>
VStem: 31 128<121.965 319.067> 414 128<122.79 319.033>
AnchorPoint: "below" 287 0 basechar 0
AnchorPoint: "above" 286 642 basechar 0
LayerCount: 2
Fore
SplineSet
146 535 m 1
 274 653 279 662 306 662 c 0
 338 662 365 630 365 599 c 0
 365 553 336 551 171 494 c 1
 146 535 l 1
338 535 m 1
 469 656 471 662 498 662 c 0
 533 662 556 627 556 599 c 0
 556 553 526 551 362 494 c 1
 338 535 l 1
EndSplineSet
Refer: 124 111 S 1 0 0 1 -0 -0 3
Substitution2: "LC small to smallcaps subtable" Ohungarumlaut.sc
EndChar

StartChar: racute
Encoding: 341 341 188
Width: 473
Flags: HW
TeX: 648 0
HStem: 3 45<35 105 213 300> 394 48<35 103.663> 414 36<283.099 336.711>
VStem: 105 97<336 391.047> 105 108<48 335.131> 318 122<320.76 413.3>
AnchorPoint: "below" 169 0 basechar 0
AnchorPoint: "above" 210 645 basechar 0
LayerCount: 2
Fore
SplineSet
175 535 m 1
 306 656 309 662 336 662 c 0x84
 371 662 394 627 394 599 c 0
 394 553 364 551 200 494 c 1
 175 535 l 1
EndSplineSet
Refer: 127 114 S 1 0 0 1 0 -0 3
Substitution2: "LC small to smallcaps subtable" Racute.sc
EndChar

StartChar: sacute
Encoding: 347 347 190
Width: 454
Flags: HW
TeX: 648 0
HStem: -5 36<153.82 312.826> 420 33<135.012 298.225>
VStem: 38 71<261.016 396.507> 38 53<87.0951 159.452> 344 71<57.4547 150.266>
AnchorPoint: "above" 222 642 basechar 0
LayerCount: 2
Fore
SplineSet
38 22 m 2
 38 128 l 2
 38 151 40 160 62 160 c 0
 86 160 85 147 91 131 c 0xd8
 118 52 173 31 231 31 c 0
 291 31 344 46 344 104 c 0
 344 119 339 165 250 180 c 0
 202 188 38 201 38 322 c 0
 38 398 85 453 220 453 c 0
 293 453 305 436 322 436 c 0
 337 436 353 452 369 452 c 0
 385 452 386 439 386 427 c 2
 386 343 l 2
 386 326 383 317 363 317 c 0
 320 317 358 361 304 400 c 0
 280 417 249 420 220 420 c 0
 162 420 109 408 109 359 c 0xe8
 109 293 237 296 295 278 c 0
 348 262 415 219 415 139 c 0
 415 52 364 -5 232 -5 c 0
 176 -5 142 7 113 27 c 1
 112 27 l 1
 87 9 69 -5 55 -5 c 0
 38 -5 38 10 38 22 c 2
150 535 m 1
 281 656 284 662 311 662 c 0xc8
 346 662 369 627 369 599 c 0
 369 553 339 551 175 494 c 1
 150 535 l 1
EndSplineSet
Substitution2: "LC small to smallcaps subtable" Sacute.sc
EndChar

StartChar: scaron
Encoding: 353 353 191
Width: 454
Flags: HW
TeX: 648 0
HStem: -5 36<153.82 313.701> 420 33<136.297 297.032> 470 194
VStem: 38 71<261.016 395.474> 38 53<87.0951 159.452> 344 71<57.73 149.928>
AnchorPoint: "above" 222 644 basechar 0
LayerCount: 2
Fore
SplineSet
38 22 m 2
 38 128 l 2
 38 151 40 160 62 160 c 0
 86 160 85 147 91 131 c 0xec
 118 52 173 31 231 31 c 0
 273 31 344 37 344 104 c 0
 344 165 261 178 250 180 c 0
 202 188 38 201 38 322 c 0
 38 400 89 453 220 453 c 0
 293 453 305 436 322 436 c 0
 337 436 353 452 369 452 c 0
 385 452 386 439 386 427 c 2
 386 343 l 2
 386 326 383 317 363 317 c 0
 318 317 360 359 303 400 c 0
 279 417 249 420 220 420 c 2
 218 420 l 2
 193 420 109 420 109 359 c 0
 109 293 236 296 295 278 c 0
 348 262 415 219 415 139 c 0xf4
 415 52 364 -5 232 -5 c 0
 176 -5 142 7 113 27 c 1
 112 27 l 1
 87 9 69 -5 55 -5 c 0
 38 -5 38 10 38 22 c 2
EndSplineSet
Refer: 21 711 S 1 0 0 1 -75 0 2
Substitution2: "LC small to smallcaps subtable" Scaron.sc
EndChar

StartChar: scedilla
Encoding: 351 351 192
Width: 454
Flags: HW
TeX: 444 170
HStem: -199 36<73 233.635> -5 21G<47 60> 420 33<136.135 296.24>
VStem: 38 71<261.755 395.487> 38 54<84.8797 159.452> 264 115<-142.446 -76.1624> 343 72<59.6875 150.398>
LayerCount: 2
Fore
SplineSet
38 22 m 2
 38 128 l 2
 38 151 39 160 62 160 c 0
 85 160 84 151 92 128 c 0xec
 119 50 176 31 231 31 c 0
 290 31 343 44 343 104 c 0
 343 136 321 169 240 182 c 0
 200 189 38 202 38 321 c 0
 38 426 126 453 220 453 c 0
 297 453 306 436 321 436 c 0
 336 436 353 452 370 452 c 0
 385 452 387 439 387 425 c 0
 387 419 386 412 386 407 c 2
 386 342 l 2
 386 329 384 317 363 317 c 0
 322 317 352 350 316 389 c 0
 291 415 253 420 219 420 c 2
 218 420 l 2xf2
 164 420 109 410 109 359 c 0
 109 294 231 296 290 280 c 0
 341 266 415 224 415 139 c 0xf2
 415 26 325 4 283 -2 c 1
 283 -30 l 1
 306 -34 379 -46 379 -110 c 0
 379 -197 221 -199 92 -199 c 2
 73 -199 l 1
 73 -163 l 1
 85 -163 l 2
 187 -163 263 -156 264 -111 c 0
 264 -90 249 -61 169 -60 c 1
 169 -0 l 1
 173 -0 l 1
 141 7 124 20 113 27 c 1
 112 27 l 1
 79 4 65 -5 55 -5 c 0
 39 -5 38 10 38 22 c 2
EndSplineSet
Substitution2: "LC small to smallcaps subtable" Scedilla.sc
EndChar

StartChar: tcaron
Encoding: 357 357 193
Width: 447
Flags: HW
TeX: 690 0
HStem: -5 40<232.04 314.638> 397 48<216 363> 397 36<21 81.8937> 635 156<308.532 416.205>
VStem: 102 114<46.9507 397> 169 47<529.713 635> 286 171<661.368 755.007> 335 48<53.3733 177>
LayerCount: 2
Fore
SplineSet
21 397 m 1
 21 433 l 1xb9
 128 438 168 547 169 635 c 1
 216 635 l 1
 216 445 l 1xd4
 363 445 l 1
 363 397 l 1
 216 397 l 1
 216 123 l 2
 216 81 221 35 273 35 c 0
 298 35 335 53 335 127 c 2xd9
 335 177 l 1
 383 177 l 1
 383 134 l 2
 383 94 378 69 356 40 c 0
 333 10 301 -5 260 -5 c 0
 113 -5 102 73 102 131 c 2
 102 397 l 1
 21 397 l 1
286 713 m 0
 286 756 317 791 363 791 c 0
 409 791 457 754 457 687 c 0
 457 574 359 507 336 507 c 0
 327 507 317 517 317 526 c 0
 317 548 392 551 417 655 c 1
 400 641 385 635 363 635 c 0x92
 316 635 286 670 286 713 c 0
EndSplineSet
Substitution2: "LC small to smallcaps subtable" Tcaron.sc
EndChar

StartChar: tcommaaccent
Encoding: 355 355 194
Width: 447
Flags: HW
TeX: 633 170
HStem: -199 36<123 283.34> 397 48<216 363> 397 36<21 81.4931>
VStem: 102 114<46.9893 397> 169 47<529.277 635> 314 114<-142.003 -76.1624> 335 48<54.5663 177>
LayerCount: 2
Fore
SplineSet
21 397 m 1
 21 433 l 1xb4
 127 438 168 546 169 635 c 1
 216 635 l 1
 216 445 l 1xc8
 363 445 l 1
 363 397 l 1
 216 397 l 1
 216 123 l 2
 216 81 221 35 273 35 c 0
 297 35 335 53 335 127 c 2
 335 177 l 1
 383 177 l 1xd2
 383 125 l 2xd2
 383 85 372 30 301 0 c 1
 333 0 l 1
 333 -30 l 1
 356 -34 428 -46 428 -110 c 0
 428 -197 271 -199 142 -199 c 2
 123 -199 l 1
 123 -163 l 1
 134 -163 l 2
 242 -163 313 -154 314 -111 c 0
 314 -90 299 -61 219 -60 c 1
 219 -3 l 1
 112 13 102 77 102 127 c 2
 102 397 l 1
 21 397 l 1
EndSplineSet
Substitution2: "LC small to smallcaps subtable" Tcommaaccent.sc
EndChar

StartChar: uhungarumlaut
Encoding: 369 369 195
Width: 638
Flags: HW
TeX: 648 0
HStem: -5 36<240.652 372.906> 0 48<547.338 616> 394 48<44 112.167 363 431.148> 430 20<44 228 363 546>
VStem: 114 114<46.1392 391.24> 432 114<50.6661 72 85.6002 391.492>
AnchorPoint: "below" 330 0 basechar 0
AnchorPoint: "above" 330 645 basechar 0
LayerCount: 2
Fore
SplineSet
190 535 m 1
 318 653 323 662 350 662 c 0
 382 662 408 630 408 599 c 0
 408 553 379 551 214 494 c 1
 190 535 l 1
381 535 m 1
 512 656 515 662 542 662 c 0x0c
 577 662 600 627 600 599 c 0
 600 553 570 551 406 494 c 1
 381 535 l 1
EndSplineSet
Refer: 130 117 S 1 0 0 1 -0 -0 3
Substitution2: "LC small to smallcaps subtable" Uhungarumlaut.sc
EndChar

StartChar: uring
Encoding: 367 367 196
Width: 638
Flags: HW
TeX: 648 0
HStem: -5 36<240.652 372.906> 0 48<547.338 616> 394 48<44 112.167 363 431.148> 430 20<44 228 363 546> 487 35<268.452 390.824> 626 35<269.099 392.554>
VStem: 114 114<46.1392 391.24> 211 47<529.222 617.466> 402 47<531.039 618.778> 432 114<50.6661 72 85.6002 391.492>
LayerCount: 2
Fore
SplineSet
211 574 m 0
 211 626 257 661 328 661 c 0
 423 661 449 609 449 574 c 0
 449 539 423 487 330 487 c 0
 237 487 211 539 211 574 c 0
258 574 m 0
 258 522 294 522 335 522 c 0
 362 522 402 525 402 574 c 0x0d80
 402 626 366 626 324 626 c 0
 297 626 258 623 258 574 c 0
EndSplineSet
Refer: 130 117 S 1 0 0 1 0 -0 3
Substitution2: "LC small to smallcaps subtable" Uring.sc
EndChar

StartChar: ydieresis
Encoding: 255 255 197
Width: 606
Flags: HW
TeX: 690 194
ItalicCorrection: 15
HStem: -200 37<107.562 184.818> 397 48<26 90 210 263 409 453.992 506.281 580> 530 156<138.988 244.012 361.988 467.012>
VStem: 22 116<-152.823 -62.2021> 114 155<554.792 661.208> 337 155<554.792 661.208>
DStem2: 210 397 90 397 0.425225 -0.905088<0 297.047> 267 -20 304 -55 0.424978 0.905204<-142.377 20.7807 163.719 376.737>
AnchorPoint: "below" 301 -194 basechar 0
AnchorPoint: "above" 302 675 basechar 0
LayerCount: 2
Fore
SplineSet
114 608 m 0
 114 655 153 686 191 686 c 0
 232 686 269 653 269 608 c 0xec
 269 565 234 530 192 530 c 0
 151 530 114 563 114 608 c 0
337 608 m 0
 337 651 372 686 414 686 c 0
 455 686 492 653 492 608 c 0
 492 569 461 530 415 530 c 0xe4
 374 530 337 563 337 608 c 0
EndSplineSet
Refer: 134 121 S 1 0 0 1 -0 0 3
Substitution2: "LC small to smallcaps subtable" Ydieresis.sc
EndChar

StartChar: zacute
Encoding: 378 378 198
Width: 511
Flags: HW
TeX: 648 0
HStem: 0 40<171 351.668> 408 37<145.249 320>
VStem: 47 48<270 361.448> 414 48<123.444 202>
DStem2: 41 47 171 40 0.61151 0.791237<73.9576 456.248>
AnchorPoint: "below" 247 0 basechar 0
AnchorPoint: "above" 247 651 basechar 0
LayerCount: 2
Fore
SplineSet
178 535 m 1
 309 656 311 662 338 662 c 0
 371 662 396 630 396 599 c 0
 396 554 370 552 203 494 c 1
 178 535 l 1
EndSplineSet
Refer: 135 122 S 1 0 0 1 0 -0 3
Substitution2: "LC small to smallcaps subtable" Zacute.sc
EndChar

StartChar: zdotaccent
Encoding: 380 380 200
Width: 511
Flags: HW
TeX: 690 0
HStem: 0 40<171 351.668> 408 37<145.249 320> 539 155<216.998 324.002>
VStem: 47 48<270 361.448> 193 155<563.375 669.625> 414 48<123.444 202>
DStem2: 41 47 171 40 0.61151 0.791237<73.9576 456.248>
AnchorPoint: "below" 247 0 basechar 0
AnchorPoint: "above" 247 683 basechar 0
LayerCount: 2
Fore
SplineSet
193 617 m 0
 193 656 224 694 270 694 c 0
 317 694 348 655 348 616 c 0
 348 577 317 539 271 539 c 0
 224 539 193 578 193 617 c 0
EndSplineSet
Refer: 135 122 S 1 0 0 1 -0 -0 3
Substitution2: "LC small to smallcaps subtable" Zdotaccent.sc
EndChar

StartChar: ij
Encoding: 307 307 201
Width: 671
Flags: HW
TeX: 690 194
HStem: -200 37<380.53 453.939> 0 48<65 135 243 305> 394 48<69 133.972 409 483.514> 430 20G<69 243 409 594> 539 155<121.395 227.536 462.75 569.012>
VStem: 97 155<563.395 669.755> 135 108<48 391.415> 279 125<-155.959 -61.2435> 438 156<563.375 669.208> 485 109<-120.073 391.181>
LayerCount: 2
Fore
SplineSet
97 617 m 0
 97 657 129 694 175 694 c 0
 216 694 252 662 252 617 c 0xcd
 252 574 218 539 175 539 c 0
 135 539 97 571 97 617 c 0
279 -109 m 0
 279 -71 308 -46 342 -46 c 0
 374 -46 404 -71 404 -109 c 0
 404 -139 384 -155 380 -159 c 1
 396 -162 407 -163 415 -163 c 0
 463 -163 479 -108 483 -75 c 0
 485 -61 485 -47 485 -32 c 2
 485 360 l 1
 484 389 474 394 421 394 c 2
 409 394 l 1
 409 442 l 1xe940
 594 450 l 1
 594 -34 l 2xd940
 594 -167 480 -200 416 -200 c 0
 336 -200 279 -163 279 -109 c 0
438 617 m 0
 438 664 478 694 516 694 c 0
 557 694 594 661 594 616 c 0
 594 577 562 539 516 539 c 0xc980
 469 539 438 578 438 617 c 0
EndSplineSet
Refer: 38 305 S 1 0 0 1 19 0 2
Substitution2: "LC small to smallcaps subtable" IJ.sc
Ligature2: "Latin Dutch ligatures subtable" i j
EndChar

StartChar: exclamdown
Encoding: 161 161 202
Width: 350
Flags: HW
TeX: 499 194
HStem: 344 156<120.998 228.002>
VStem: 96 157<-182.817 21.2656 369.76 474.24>
LayerCount: 2
Fore
SplineSet
96 -134 m 0
 96 -123 99 -113 100 -102 c 2
 148 241 l 2
 151 263 151 274 174 274 c 0
 202 274 198 256 202 235 c 1
 251 -116 l 2
 252 -122 253 -128 253 -134 c 0
 253 -176 214 -205 175 -205 c 0
 138 -205 96 -179 96 -134 c 0
97 422 m 0
 97 461 128 500 174 500 c 0
 221 500 252 461 252 422 c 0
 252 383 221 344 175 344 c 0
 128 344 97 383 97 422 c 0
EndSplineSet
EndChar

StartChar: questiondown
Encoding: 191 191 203
Width: 543
Flags: HW
TeX: 499 194
HStem: -200 36<206.055 365.197> -29 20G<398.5 433.5> 344 156<200.998 308.002>
VStem: 63 128<-139.914 -2.18761> 177 155<368.375 475.625> 231 47<129.173 273.941> 353 125<-117.039 -23.3758>
LayerCount: 2
Fore
SplineSet
63 -71 m 0
 63 -4 111 24 125 34 c 0
 222 103 231 180 231 226 c 2xf6
 231 248 l 2
 231 264 233 274 255 274 c 0
 276 274 279 265 279 247 c 0
 279 244 278 241 278 238 c 2
 278 225 l 2
 278 77 211 13 199 -17 c 0
 191 -36 191 -59 191 -73 c 2
 191 -78 l 2
 191 -136 194 -164 258 -164 c 0
 341 -164 379 -141 396 -131 c 1
 361 -118 353 -92 353 -71 c 0
 353 -34 381 -9 416 -9 c 0
 451 -9 478 -34 478 -73 c 0
 478 -124 438 -200 251 -200 c 0
 89 -200 63 -123 63 -71 c 0
177 422 m 0
 177 461 208 500 254 500 c 0
 301 500 332 461 332 422 c 0
 332 383 301 344 255 344 c 0xea
 208 344 177 383 177 422 c 0
EndSplineSet
EndChar

StartChar: sterling
Encoding: 163 163 204
Width: 735
Flags: HW
TeX: 690 0
HStem: -5 71<431.001 620.569> -5 36<128.881 218.717> 67 72<128.085 235.003> 323 48<177.059 262 376 491.935> 458 125<558.559 607.045> 667 37<417.451 545.062>
VStem: 63 65<32.6222 63.9038> 262 114<134.708 323 371 605.703> 544 125<473.452 567.828> 653 48<93.1712 152.896>
LayerCount: 2
Fore
SplineSet
63 51 m 0
 63 104 120 139 204 139 c 0
 223 139 242 137 261 134 c 1
 262 212 l 1
 262 323 l 1
 201 323 l 2
 186 323 177 325 177 347 c 0
 177 369 189 371 203 371 c 2
 262 371 l 1
 262 483 l 2
 262 492 261 501 261 510 c 0
 261 665 385 704 476 704 c 0
 598 704 669 608 669 524 c 0
 669 472 628 458 606 458 c 0
 573 458 544 483 544 520 c 0x7f80
 544 540 554 580 608 583 c 1
 570 655 513 667 478 667 c 0
 435 667 403 646 389 616 c 0
 377 592 376 560 376 526 c 2
 376 371 l 1
 466 371 l 2
 482 371 492 369 492 347 c 0
 492 326 482 323 466 323 c 2
 376 323 l 1
 376 185 l 2
 376 154 374 137 363 108 c 1
 445 84 492 66 551 66 c 0
 599 66 644 86 653 130 c 0xbf40
 656 144 658 153 676 153 c 0
 694 153 701 147 701 132 c 0
 701 77 645 -5 527 -5 c 0xbf40
 440 -5 334 40 319 40 c 0
 302 40 268 -5 161 -5 c 0
 113 -5 63 4 63 51 c 0
128 49 m 0
 128 42 135 31 162 31 c 0x7f
 192 31 215 41 236 62 c 1
 211 66 193 67 178 67 c 0
 135 67 128 56 128 49 c 0
EndSplineSet
EndChar

StartChar: Agrave
Encoding: 192 192 205
Width: 869
Flags: HW
TeX: 876 0
HStem: 0 48<40 145.267 203.014 289 487 582 730 827> 192 48<274 503> 678 20<420 445.5> 757 118<292.988 386.067>
DStem2: 148 75 254 192 0.38075 0.924678<9.32398 148.547 200.546 501.393> 475 668 389 518 0.380375 -0.924832<106.013 406.479 458.098 614.096>
AnchorPoint: "below" 434 0 basechar 0
AnchorPoint: "above" 434 854 basechar 0
LayerCount: 2
Fore
SplineSet
279 812 m 0
 279 841 300 875 335 875 c 0
 357 875 368 865 505 778 c 1
 489 733 l 1
 443 739 428 743 337 757 c 0
 329 758 279 763 279 812 c 0
EndSplineSet
Refer: 78 65 S 1 0 0 1 -0 0 3
AlternateSubs2: "Stilistic set 01 subtable" Agrave.vn
AlternateSubs2: "Latin alternatives subtable" Agrave.vn
Substitution2: "Latin Vietnamese substitutions subtable" Agrave.vn
Substitution2: "LC caps to smallcaps subtable" Agrave.sc
EndChar

StartChar: Aacute
Encoding: 193 193 206
Width: 869
Flags: HW
TeX: 876 0
HStem: 0 48<40 145.267 203.014 289 487 582 730 827> 192 48<274 503> 678 20<420 445.5> 753 122<448.375 540.491>
DStem2: 148 75 254 192 0.38075 0.924678<9.32398 148.547 200.546 501.393> 475 668 389 518 0.380375 -0.924832<106.013 406.479 458.098 614.096>
AnchorPoint: "below" 434 0 basechar 0
AnchorPoint: "above" 434 854 basechar 0
LayerCount: 2
Fore
SplineSet
330 778 m 1
 482 875 478 875 500 875 c 0
 534 875 556 841 556 812 c 0
 556 760 504 758 472 753 c 0
 430 746 388 739 346 733 c 1
 330 778 l 1
EndSplineSet
Refer: 78 65 S 1 0 0 1 0 0 3
AlternateSubs2: "Stilistic set 01 subtable" Aacute.vn
AlternateSubs2: "Latin alternatives subtable" Aacute.vn
Substitution2: "Latin Vietnamese substitutions subtable" Aacute.vn
Substitution2: "LC caps to smallcaps subtable" Aacute.sc
EndChar

StartChar: Acircumflex
Encoding: 194 194 207
Width: 869
Flags: HW
TeX: 894 0
HStem: 0 48<40 145.267 203.014 289 487 582 730 827> 192 48<274 503> 678 20<420 445.5>
DStem2: 148 75 254 192 0.38075 0.924678<9.32398 148.547 200.546 501.393> 475 668 389 518 0.380375 -0.924832<106.013 406.479 458.098 614.096>
AnchorPoint: "below" 434 0 basechar 0
AnchorPoint: "above" 434 879 basechar 0
LayerCount: 2
Fore
SplineSet
276 774 m 1
 276 775 l 1
 433 900 l 1
 434 900 l 1
 591 775 l 1
 591 774 l 1
 564 736 l 1
 434 817 l 1
 433 817 l 1
 304 736 l 1
 276 774 l 1
EndSplineSet
Refer: 78 65 S 1 0 0 1 -0 0 3
AlternateSubs2: "Stilistic set 01 subtable" Acircumflex.vn
AlternateSubs2: "Latin alternatives subtable" Acircumflex.vn
Substitution2: "Latin Vietnamese substitutions subtable" Acircumflex.vn
Substitution2: "LC caps to smallcaps subtable" Acircumflex.sc
EndChar

StartChar: Atilde
Encoding: 195 195 208
Width: 869
Flags: HW
TeX: 894 0
HStem: -0 48<40 145.267 203.014 289 487 582 730 827> 192 48<274 503> 678 20<420 445.5> 786 74<425.822 593.721> 820 74<272.882 441.178>
DStem2: 148 75 254 192 0.38075 0.924678<9.32398 148.547 200.546 501.393> 475 668 389 518 0.380375 -0.924832<106.013 406.479 458.098 614.096>
AnchorPoint: "below" 434 0 basechar 0
AnchorPoint: "above" 434 873 basechar 0
LayerCount: 2
Fore
SplineSet
210 812 m 1
 260 863 282 894 345 894 c 0xe8
 412 894 476 860 543 860 c 0xf0
 596 860 621 885 631 894 c 1xe8
 657 868 l 1
 607 817 585 786 522 786 c 0xf0
 455 786 391 820 324 820 c 0xe8
 286 820 263 810 235 786 c 1xf0
 210 812 l 1
EndSplineSet
Refer: 78 65 S 1 0 0 1 0 -0 3
AlternateSubs2: "Stilistic set 01 subtable" Atilde.vn
AlternateSubs2: "Latin alternatives subtable" Atilde.vn
Substitution2: "Latin Vietnamese substitutions subtable" Atilde.vn
Substitution2: "LC caps to smallcaps subtable" Atilde.sc
EndChar

StartChar: Adieresis
Encoding: 196 196 209
Width: 869
Flags: HW
TeX: 894 0
HStem: 0 48<40 145.267 203.014 289 487 582 730 827> 192 48<274 503> 678 20<420 445.5> 738 156<269.374 375.152 491.988 597.626>
VStem: 244 155<762.792 869.605> 467 156<762.395 869.208>
DStem2: 148 75 254 192 0.38075 0.924678<9.32398 148.547 200.546 501.393> 475 668 389 518 0.380375 -0.924832<106.013 406.479 458.098 614.096>
AnchorPoint: "below" 434 0 basechar 0
AnchorPoint: "above" 434 873 basechar 0
LayerCount: 2
Fore
SplineSet
244 816 m 0
 244 861 280 894 321 894 c 0
 362 894 399 862 399 816 c 0
 399 777 368 738 322 738 c 0
 282 738 244 771 244 816 c 0
467 816 m 0
 467 855 499 894 545 894 c 0
 585 894 623 861 623 816 c 0
 623 773 588 738 545 738 c 0
 504 738 467 770 467 816 c 0
EndSplineSet
Refer: 78 65 S 1 0 0 1 0 0 3
Substitution2: "LC caps to smallcaps subtable" Adieresis.sc
EndChar

StartChar: Aring
Encoding: 197 197 210
Width: 869
Flags: HW
TeX: 852 0
HStem: -0 48<40 146.176 203.014 289 487 582 730 827> 192 48<274 503> 866 36<378.824 486.036>
VStem: 314 47<712.067 851.788> 505 48<712.693 851.843>
DStem2: 150 78 254 192 0.379488 0.925197<5.71346 144.939 196.938 497.784> 475 668 389 518 0.380375 -0.924832<106.013 406.479 458.098 614.096>
LayerCount: 2
Fore
SplineSet
40 -0 m 1
 40 48 l 1
 139 48 139 52 150 78 c 2
 392 668 l 1
 328 691 314 740 314 782 c 0
 314 854 361 902 433 902 c 0
 505 902 553 854 553 782 c 0
 553 741 539 691 475 668 c 1
 730 48 l 1
 827 48 l 1
 827 -0 l 1
 764 2 716 3 669 3 c 0
 608 3 548 2 487 -0 c 1
 487 48 l 1
 582 48 l 1
 522 192 l 1
 254 192 l 1
 214 95 203 71 203 62 c 0
 203 53 222 48 289 48 c 1
 289 -0 l 1
 245 2 200 3 156 3 c 0
 144 3 110 3 40 -0 c 1
274 240 m 1
 503 240 l 1
 389 518 l 1
 274 240 l 1
361 785 m 0
 361 748 362 698 432 698 c 0
 492 698 505 730 505 779 c 0
 505 816 504 866 434 866 c 0
 373 866 361 833 361 785 c 0
EndSplineSet
Substitution2: "LC caps to smallcaps subtable" Aring.sc
EndChar

StartChar: AE
Encoding: 198 198 211
Width: 1041
Flags: HW
TeX: 690 0
HStem: -0 48<40 146.641 204.025 290 400 481 614 858.705> 306 48<325 481 614 755.901> 444 21G<921 976> 638 48<309 386 444 481 614 847.76>
VStem: 481 133<48 306 354 638> 783 48<189 280.138 380.442 470> 929 47<444 500.467>
DStem2: 150 77 304 306 0.387763 0.921759<50.5193 270.798 323.186 608.619>
AnchorPoint: "below" 524 0 basechar 0
AnchorPoint: "above" 548 697 basechar 0
LayerCount: 2
Fore
SplineSet
40 -0 m 1
 40 48 l 1
 139 48 139 52 150 77 c 2
 386 638 l 1
 309 638 l 1
 309 686 l 1
 946 686 l 1
 976 444 l 1
 929 444 l 1
 913 569 893 636 738 638 c 1
 614 638 l 1
 614 354 l 1
 669 354 l 2
 710 354 763 355 778 412 c 0
 783 431 783 450 783 470 c 1
 831 470 l 1
 831 189 l 1
 783 189 l 1
 783 237 778 270 751 289 c 0
 727 306 697 306 669 306 c 2
 614 306 l 1
 614 48 l 1
 718 48 l 2
 782 48 865 48 911 115 c 0
 940 157 950 217 960 275 c 1
 1008 275 l 1
 962 -0 l 1
 400 -0 l 1
 400 48 l 1
 481 48 l 1
 481 306 l 1
 304 306 l 1
 250 171 204 74 204 63 c 0
 204 49 238 48 290 48 c 1
 290 -0 l 1
 246 2 201 3 157 3 c 0
 145 3 110 3 40 -0 c 1
325 354 m 1
 481 354 l 1
 481 638 l 1
 444 638 l 1
 325 354 l 1
EndSplineSet
Substitution2: "LC caps to smallcaps subtable" AE.sc
EndChar

StartChar: Ccedilla
Encoding: 199 199 212
Width: 830
Flags: HW
TeX: 690 170
HStem: -199 36<317 475.92> -60 97<412.514 494.2> -6 43<370.653 412 526 590.464> 649 48<368.425 583.002>
VStem: 63 153<219.909 465.279> 507 115<-142.639 -75.716> 686 80<465.898 557.904> 717 49<147.531 246.889>
AnchorPoint: "above" 463 697 basechar 0
LayerCount: 2
Fore
SplineSet
63 343 m 0
 63 555 227 697 464 697 c 0
 583 697 651 638 662 629 c 1
 663 629 l 1
 721 681 735 696 748 696 c 0
 766 696 766 679 766 667 c 2
 766 451 l 2xdd
 766 431 759 426 742 426 c 2
 740 426 l 2
 695 426 726 448 686 525 c 0xde
 666 563 607 649 488 649 c 0
 407 649 322 623 271 559 c 0
 246 527 216 473 216 344 c 0
 216 239 232 141 321 82 c 0
 369 50 432 37 489 37 c 0
 613 37 709 118 717 218 c 0
 719 234 718 247 742 247 c 0
 760 247 766 241 766 226 c 0xdd
 766 147 699 22 526 -6 c 1xbd
 526 -30 l 1
 548 -34 622 -45 622 -109 c 0
 622 -185 516 -199 317 -199 c 1
 317 -163 l 1
 326 -163 l 2
 442 -163 507 -152 507 -111 c 0
 507 -90 492 -61 412 -60 c 1
 412 -8 l 1
 310 1 134 49 77 240 c 0
 67 273 63 308 63 343 c 0
EndSplineSet
Substitution2: "LC caps to smallcaps subtable" Ccedilla.sc
EndChar

StartChar: Ecircumflex
Encoding: 202 202 215
Width: 755
Flags: HW
TeX: 894 0
HStem: 0 48<39 147 289 565.743> 329 48<289 424.58> 633 47<39 147 289 557.234>
VStem: 147 142<48 329 377 633> 450 48<212 302.916 402.312 494> 644 47<438 494.467>
AnchorPoint: "below" 381 0 basechar 0
AnchorPoint: "above" 381 897 basechar 0
LayerCount: 2
Fore
SplineSet
230 775 m 1
 387 900 l 1
 388 900 l 1
 544 775 l 1
 517 736 l 1
 388 817 l 1
 387 817 l 1
 257 736 l 1
 230 775 l 1
EndSplineSet
Refer: 82 69 S 1 0 0 1 -0 0 3
AlternateSubs2: "Stilistic set 01 subtable" Ecircumflex.vn
AlternateSubs2: "Latin alternatives subtable" Ecircumflex.vn
Substitution2: "Latin Vietnamese substitutions subtable" Ecircumflex.vn
Substitution2: "LC caps to smallcaps subtable" Ecircumflex.sc
EndChar

StartChar: Edieresis
Encoding: 203 203 216
Width: 755
Flags: HW
TeX: 894 0
HStem: 0 48<39 147 289 565.743> 329 48<289 424.58> 633 47<39 147 289 557.234> 738 156<222.988 327.626 446.374 552.012>
VStem: 147 142<48 329 377 633> 198 155<762.988 868.64> 421 156<763.36 869.012> 450 48<212 302.916 402.312 494> 644 47<438 494.467>
AnchorPoint: "below" 381 0 basechar 0
AnchorPoint: "above" 381 891 basechar 0
LayerCount: 2
Fore
SplineSet
198 816 m 0
 198 863 237 894 275 894 c 0
 315 894 353 861 353 816 c 0xf480
 353 775 321 738 276 738 c 0
 235 738 198 771 198 816 c 0
421 816 m 0
 421 857 454 894 499 894 c 0
 540 894 577 861 577 816 c 0
 577 769 537 738 499 738 c 0xf280
 459 738 421 771 421 816 c 0
EndSplineSet
Refer: 82 69 S 1 0 0 1 -0 0 3
Substitution2: "LC caps to smallcaps subtable" Edieresis.sc
EndChar

StartChar: Igrave
Encoding: 204 204 217
Width: 436
Flags: HW
TeX: 876 0
HStem: 0 48<33 147 289 403> 638 45<33 147 289 403> 757 118<94.0743 186.897>
VStem: 147 142<48 638>
AnchorPoint: "below" 218 0 basechar 0
AnchorPoint: "above" 218 866 basechar 0
LayerCount: 2
Fore
SplineSet
79 812 m 0
 79 843 103 875 135 875 c 0
 157 875 170 864 305 778 c 1
 289 733 l 1
 243 739 228 743 137 757 c 0
 126 759 79 764 79 812 c 0
EndSplineSet
Refer: 86 73 S 1 0 0 1 0 0 3
AlternateSubs2: "Stilistic set 01 subtable" Igrave.vn
AlternateSubs2: "Latin alternatives subtable" Igrave.vn
Substitution2: "Latin Vietnamese substitutions subtable" Igrave.vn
Substitution2: "LC caps to smallcaps subtable" Igrave.sc
EndChar

StartChar: Iacute
Encoding: 205 205 218
Width: 436
Flags: HW
TeX: 876 0
HStem: 0 48<33 147 289 403> 638 45<33 147 289 403> 753 122<228.631 318.724>
VStem: 147 142<48 638>
AnchorPoint: "below" 218 0 basechar 0
AnchorPoint: "above" 218 866 basechar 0
LayerCount: 2
Fore
SplineSet
108 778 m 1
 255 871 256 875 278 875 c 0
 310 875 334 843 334 812 c 0
 334 760 283 758 250 753 c 0
 208 746 166 739 124 733 c 1
 108 778 l 1
EndSplineSet
Refer: 86 73 S 1 0 0 1 0 -0 3
AlternateSubs2: "Stilistic set 01 subtable" Iacute.vn
AlternateSubs2: "Latin alternatives subtable" Iacute.vn
Substitution2: "Latin Vietnamese substitutions subtable" Iacute.vn
Substitution2: "LC caps to smallcaps subtable" Iacute.sc
EndChar

StartChar: Idieresis
Encoding: 207 207 220
Width: 436
Flags: HW
TeX: 894 0
HStem: 0 48<33 147 289 403> 638 45<33 147 289 403> 738 155<275.395 382.012> 738 156<52.9875 159.012>
VStem: 28 156<762.792 869.208> 147 142<48 638> 251 156<762.375 868.208>
AnchorPoint: "below" 218 0 basechar 0
AnchorPoint: "above" 218 885 basechar 0
LayerCount: 2
Fore
SplineSet
28 816 m 0
 28 855 60 894 106 894 c 0
 147 894 184 861 184 816 c 0
 184 777 152 738 106 738 c 0xd8
 65 738 28 771 28 816 c 0
EndSplineSet
Refer: 24 729 S 1 0 0 1 154 199 2
Refer: 86 73 S 1 0 0 1 -0 0 3
Substitution2: "LC caps to smallcaps subtable" Idieresis.sc
EndChar

StartChar: Eth
Encoding: 208 208 221
Width: 882
Flags: HW
TeX: 690 0
HStem: 0 48<39 147 284 542.627> 313 47<39.072 147 284 483.945> 638 48<39 147 284 536.707>
VStem: 147 137<48 313 360 638> 670 148<210.049 467.331>
LayerCount: 2
Fore
SplineSet
39 0 m 1
 39 48 l 1
 147 48 l 1
 147 313 l 1
 67 313 l 2
 50 313 39 318 39 337 c 0
 39 354 50 360 67 360 c 2
 147 360 l 1
 147 638 l 1
 39 638 l 1
 39 686 l 1
 444 686 l 2
 540 686 639 672 720 593 c 0
 788 527 818 431 818 338 c 0
 818 136 687 18 510 2 c 0
 488 0 466 0 444 0 c 2
 39 0 l 1
284 48 m 1
 416 48 l 2
 480 48 563 56 619 122 c 0
 666 178 670 261 670 318 c 2
 670 352 l 2
 670 467 659 638 415 638 c 2
 284 638 l 1
 284 360 l 1
 454 360 l 2
 467 360 484 358 484 336 c 0
 484 313 465 313 454 313 c 2
 284 313 l 1
 284 48 l 1
EndSplineSet
Substitution2: "LC caps to smallcaps subtable" Eth.sc
EndChar

StartChar: Ntilde
Encoding: 209 209 222
Width: 900
Flags: HW
TeX: 894 0
HStem: 0 48<39 146.916 200.158 309> 638 48<39 147 591 698.46 752.211 860> 786 74<442.002 610.033> 820 74<289.155 457.417>
VStem: 147 53<51.6248 599> 699 53<206 634.507>
DStem2: 699 206 200 599 0.647377 -0.76217<-622.263 0>
LayerCount: 2
Fore
SplineSet
226 812 m 1
 276 863 298 894 361 894 c 0xdc
 428 894 493 860 560 860 c 0xec
 613 860 638 885 648 894 c 1xdc
 673 868 l 1
 622 817 601 786 538 786 c 0xec
 471 786 407 820 340 820 c 0xdc
 302 820 280 810 252 786 c 1xec
 226 812 l 1
EndSplineSet
Refer: 91 78 S 1 0 0 1 0 -0 3
Substitution2: "LC caps to smallcaps subtable" Ntilde.sc
EndChar

StartChar: Ograve
Encoding: 210 210 223
Width: 863
Flags: HW
TeX: 876 0
HStem: -11 43<346.179 520.194> 656 41<343.249 521.02> 757 118<323.074 413.836>
VStem: 63 153<210.586 470.692> 646 153<212.373 470.772>
AnchorPoint: "below" 431 0 basechar 0
AnchorPoint: "above" 432 855 basechar 0
LayerCount: 2
Fore
SplineSet
308 812 m 0
 308 843 332 875 364 875 c 0
 385 875 384 873 535 778 c 1
 518 733 l 1
 472 739 458 743 367 757 c 0
 352 759 308 766 308 812 c 0
EndSplineSet
Refer: 92 79 S 1 0 0 1 0 0 3
AlternateSubs2: "Stilistic set 01 subtable" Ograve.vn
AlternateSubs2: "Latin alternatives subtable" Ograve.vn
Substitution2: "Latin Vietnamese substitutions subtable" Ograve.vn
Substitution2: "LC caps to smallcaps subtable" Ograve.sc
EndChar

StartChar: Ocircumflex
Encoding: 212 212 225
Width: 863
Flags: HW
TeX: 894 0
HStem: -11 43<346.179 520.194> 656 41<343.249 521.02>
VStem: 63 153<210.586 470.692> 646 153<212.373 470.772>
AnchorPoint: "below" 431 0 basechar 0
AnchorPoint: "above" 432 880 basechar 0
LayerCount: 2
Fore
SplineSet
274 775 m 1
 431 900 l 1
 432 900 l 1
 588 775 l 1
 561 736 l 1
 432 817 l 1
 431 817 l 1
 301 736 l 1
 274 775 l 1
EndSplineSet
Refer: 92 79 S 1 0 0 1 -0 0 3
AlternateSubs2: "Stilistic set 01 subtable" Ocircumflex.vn
AlternateSubs2: "Latin alternatives subtable" Ocircumflex.vn
Substitution2: "Latin Vietnamese substitutions subtable" Ocircumflex.vn
Substitution2: "LC caps to smallcaps subtable" Ocircumflex.sc
EndChar

StartChar: Otilde
Encoding: 213 213 226
Width: 863
Flags: HW
TeX: 894 0
HStem: -11 43<346.179 520.194> 656 41<343.249 521.02> 786 74<423.322 591.033> 820 74<270.655 438.678>
VStem: 63 153<210.586 470.692> 646 153<212.373 470.772>
AnchorPoint: "below" 431 0 basechar 0
AnchorPoint: "above" 432 874 basechar 0
LayerCount: 2
Fore
SplineSet
208 812 m 1
 258 863 280 894 343 894 c 0xdc
 410 894 474 860 541 860 c 0xec
 594 860 619 885 629 894 c 1xdc
 654 868 l 1
 603 817 582 786 519 786 c 0xec
 452 786 388 820 321 820 c 0xdc
 283 820 261 810 233 786 c 1xec
 208 812 l 1
EndSplineSet
Refer: 92 79 S 1 0 0 1 0 -0 3
AlternateSubs2: "Stilistic set 01 subtable" Otilde.vn
AlternateSubs2: "Latin alternatives subtable" Otilde.vn
Substitution2: "Latin Vietnamese substitutions subtable" Otilde.vn
Substitution2: "LC caps to smallcaps subtable" Otilde.sc
EndChar

StartChar: Odieresis
Encoding: 214 214 227
Width: 863
Flags: HW
TeX: 894 0
HStem: -11 43<346.179 520.194> 656 41<343.249 521.02> 738 156<266.464 372.012 489.988 595.012>
VStem: 63 153<210.586 470.692> 242 155<763.36 869.208> 465 155<762.792 869.208> 646 153<212.373 470.772>
AnchorPoint: "below" 431 0 basechar 0
AnchorPoint: "above" 432 874 basechar 0
LayerCount: 2
Fore
SplineSet
242 816 m 0
 242 859 277 894 319 894 c 0
 360 894 397 861 397 816 c 0
 397 769 357 738 319 738 c 0
 278 738 242 771 242 816 c 0
465 816 m 0
 465 855 496 894 542 894 c 0
 583 894 620 861 620 816 c 0
 620 772 584 738 543 738 c 0
 502 738 465 771 465 816 c 0
EndSplineSet
Refer: 92 79 S 1 0 0 1 -0 0 3
Substitution2: "LC caps to smallcaps subtable" Odieresis.sc
EndChar

StartChar: OE
Encoding: 338 338 228
Width: 1169
Flags: HW
TeX: 690 0
HStem: -11 36<389.053 551.102> 0 48<717 982.161> 332 48<717 896.53> 444 21G<1048.5 1105> 638 48<717 973.22> 660 37<381.962 551.449>
VStem: 83 148<211.084 466.594> 594 123<65.625 332 380 618.275> 928 47<215 300.738 411.021 497> 1057 48<444 498.645>
AnchorPoint: "above" 655 697 basechar 0
LayerCount: 2
Fore
SplineSet
83 339 m 0
 83 548 228 697 467 697 c 0xb7c0
 536 697 578 686 670 686 c 2
 1074 686 l 1
 1105 444 l 1
 1057 444 l 1
 1040 574 1016 638 853 638 c 2
 717 638 l 1x3bc0
 717 380 l 1
 808 380 l 1
 896 382 927 403 928 497 c 1
 975 497 l 1
 975 215 l 1
 928 215 l 1
 927 321 884 332 795 332 c 2
 717 332 l 1
 717 48 l 1
 838 48 l 2
 907 48 996 49 1043 122 c 0
 1070 163 1080 220 1089 275 c 1
 1137 275 l 1
 1091 0 l 1
 668 0 l 2x7bc0
 587 0 527 -11 467 -11 c 0
 229 -11 83 132 83 339 c 0
231 356 m 0
 231 111 358 25 471 25 c 0
 577 25 594 67 594 224 c 2
 594 477 l 2xb7c0
 594 624 570 660 473 660 c 0
 320 660 231 539 231 356 c 0
EndSplineSet
Substitution2: "LC caps to smallcaps subtable" OE.sc
EndChar

StartChar: Oslash
Encoding: 216 216 229
Width: 894
Flags: HW
TeX: 734 48
HStem: -11 36<346.736 542.303> 660 37<350.051 544.928>
VStem: 63 142<209.688 471.052> 687 142<212.37 467.066>
DStem2: 154 -37 188 -60 0.575493 0.817806<0.757228 104.861 178.676 777.31 851.124 957.439>
LayerCount: 2
Fore
SplineSet
63 340 m 0
 63 554 213 697 445 697 c 0
 539 697 594 676 642 656 c 1
 705 746 l 1
 706 746 l 1
 738 723 l 1
 678 635 l 1
 775 575 829 465 829 339 c 0
 829 130 681 -11 447 -11 c 0
 348 -11 294 11 250 29 c 1
 188 -60 l 1
 154 -37 l 1
 214 49 l 1
 70 139 63 292 63 340 c 0
205 338 m 0
 205 199 225 155 257 109 c 1
 606 605 l 1
 606 606 l 1
 594 616 542 660 446 660 c 0
 359 660 285 623 246 558 c 0
 206 492 205 402 205 338 c 0
285 79 m 1
 298 69 349 25 446 25 c 0
 533 25 607 60 647 125 c 0
 686 188 687 275 687 326 c 2
 687 340 l 2
 687 488 665 532 635 575 c 1
 285 79 l 1
EndSplineSet
Substitution2: "LC caps to smallcaps subtable" Oslash.sc
EndChar

StartChar: Ugrave
Encoding: 217 217 230
Width: 884
Flags: HW
TeX: 876 0
HStem: -11 48<369.199 578.544> 638 48<39 147 289 398 575 683.765 737.145 845> 757 118<334.074 424.836>
VStem: 147 142<134.854 638> 684 53<137.771 634.292>
AnchorPoint: "below" 462 0 basechar 0
AnchorPoint: "above" 442 866 basechar 0
LayerCount: 2
Fore
SplineSet
319 812 m 0
 319 843 343 875 375 875 c 0
 396 875 395 873 546 778 c 1
 529 733 l 1
 483 739 469 743 378 757 c 0
 363 759 319 766 319 812 c 0
EndSplineSet
Refer: 98 85 S 1 0 0 1 0 0 3
AlternateSubs2: "Stilistic set 01 subtable" Ugrave.vn
AlternateSubs2: "Latin alternatives subtable" Ugrave.vn
Substitution2: "Latin Vietnamese substitutions subtable" Ugrave.vn
Substitution2: "LC caps to smallcaps subtable" Ugrave.sc
EndChar

StartChar: Ucircumflex
Encoding: 219 219 232
Width: 884
Flags: HW
TeX: 894 0
HStem: -11 48<369.199 578.544> 638 48<39 147 289 398 575 683.765 737.145 845>
VStem: 147 142<134.854 638> 684 53<137.771 634.292>
AnchorPoint: "below" 462 0 basechar 0
AnchorPoint: "above" 442 891 basechar 0
LayerCount: 2
Fore
SplineSet
307 775 m 1
 464 900 l 1
 465 900 l 1
 622 775 l 1
 594 736 l 1
 465 817 l 1
 464 817 l 1
 334 736 l 1
 307 775 l 1
EndSplineSet
Refer: 98 85 S 1 0 0 1 -0 0 3
Substitution2: "LC caps to smallcaps subtable" Ucircumflex.sc
EndChar

StartChar: Udieresis
Encoding: 220 220 233
Width: 884
Flags: HW
TeX: 894 0
HStem: -11 48<369.199 578.544> 638 48<39 147 289 398 575 683.765 737.145 845> 738 156<277.464 383.012 500.988 606.012>
VStem: 147 142<134.854 638> 253 155<763.36 869.208> 476 155<762.792 869.208> 684 53<137.771 634.292>
AnchorPoint: "below" 462 0 basechar 0
AnchorPoint: "above" 442 885 basechar 0
LayerCount: 2
Fore
SplineSet
253 816 m 0
 253 859 288 894 330 894 c 0
 371 894 408 861 408 816 c 0xee
 408 769 368 738 330 738 c 0
 289 738 253 771 253 816 c 0
476 816 m 0
 476 855 507 894 553 894 c 0
 594 894 631 861 631 816 c 0
 631 773 596 738 554 738 c 0xe6
 513 738 476 771 476 816 c 0
EndSplineSet
Refer: 98 85 S 1 0 0 1 -0 -0 3
Substitution2: "LC caps to smallcaps subtable" Udieresis.sc
EndChar

StartChar: Yacute
Encoding: 221 221 234
Width: 869
Flags: HW
TeX: 876 0
ItalicCorrection: 28
HStem: 0 48<258 366 503 611> 638 48<19 131.684 283 367 603 674.972 737.298 849> 753 122<496.375 589.218>
VStem: 366 137<48 302.375>
DStem2: 283 638 143 600 0.564001 -0.825774<0 356.664> 484 343 512 287 0.563962 0.825801<0 341.262>
AnchorPoint: "below" 434 0 basechar 0
AnchorPoint: "above" 434 866 basechar 0
LayerCount: 2
Fore
SplineSet
378 778 m 1
 530 875 527 875 549 875 c 0
 583 875 605 841 605 812 c 0
 605 760 552 758 520 753 c 0
 478 746 436 739 394 733 c 1
 378 778 l 1
EndSplineSet
Refer: 102 89 S 1 0 0 1 0 -0 3
AlternateSubs2: "Stilistic set 01 subtable" Yacute.vn
AlternateSubs2: "Latin alternatives subtable" Yacute.vn
Substitution2: "Latin Vietnamese substitutions subtable" Yacute.vn
Substitution2: "LC caps to smallcaps subtable" Yacute.sc
EndChar

StartChar: Thorn
Encoding: 222 222 235
Width: 722
Flags: HW
TeX: 690 0
HStem: 3 45<39 147 279 387> 178 48<279 454.167> 517 48<279 458.63> 638 45<39 147 279 387>
VStem: 147 132<48 178 226 517 565 638> 510 148<284.793 456.322>
LayerCount: 2
Fore
SplineSet
39 0 m 1
 39 48 l 1
 147 48 l 1
 147 638 l 1
 39 638 l 1
 39 686 l 1
 99 684 159 683 219 683 c 2
 223 683 l 2
 243 683 293 683 387 686 c 1
 387 638 l 1
 279 638 l 1
 279 565 l 1
 417 565 l 2
 605 565 658 451 658 371 c 0
 658 263 576 192 458 180 c 0
 439 178 420 178 401 178 c 2
 279 178 l 1
 279 48 l 1
 387 48 l 1
 387 -0 l 1
 328 2 268 3 208 3 c 0
 174 3 124 3 39 0 c 1
279 226 m 1
 375 226 l 2
 483 226 510 304 510 372 c 0
 510 435 487 517 394 517 c 2
 279 517 l 1
 279 226 l 1
EndSplineSet
Substitution2: "LC caps to smallcaps subtable" Thorn.sc
EndChar

StartChar: Germandbls
Encoding: 61699 61699 236
Width: 1277
Flags: HW
TeX: 690 0
HStem: -11 48<221.314 427.677 859.603 1066.36> 653 44<207.657 389.992 845.919 1026.08>
VStem: 63 98<490.731 587.791> 63 51<124.926 227.791> 476 98<105.075 218.663> 493 49<458.083 549.429> 702 98<490.731 588.52> 702 51<124.926 227.716> 1115 97<105.296 218.663> 1131 50<458.158 548.153>
LayerCount: 2
Fore
SplineSet
63 18 m 2
 63 206 l 1
 64 220 68 228 85 228 c 2
 87 228 l 2
 118 228 107 213 114 178 c 0
 136 70 248 37 346 37 c 0
 451 37 476 108 476 152 c 0xd8
 476 201 447 235 414 254 c 0
 378 274 250 291 205 307 c 0
 135 332 63 398 63 496 c 0
 63 594 129 697 287 697 c 2
 289 697 l 1
 392 696 443 654 460 641 c 1
 508 694 517 696 526 696 c 0
 535 696 542 690 542 671 c 2
 542 481 l 1xe4
 541 462 535 458 518 458 c 0
 499 458 496 465 493 481 c 0
 477 589 401 653 288 653 c 0
 194 653 161 596 161 549 c 0xe4
 161 491 212 461 236 452 c 0
 265 441 396 419 434 404 c 0
 503 377 574 308 574 204 c 0
 574 97 508 -11 346 -11 c 0
 225 -11 165 31 145 45 c 1
 97 -8 88 -10 80 -10 c 0
 63 -10 63 7 63 18 c 2
702 18 m 2
 702 206 l 1
 703 220 706 228 723 228 c 2
 725 228 l 2
 756 228 746 213 753 178 c 0
 775 70 886 37 985 37 c 0
 1090 37 1115 108 1115 152 c 0xc180
 1115 201 1086 235 1053 254 c 0
 1017 274 889 291 844 307 c 0
 774 332 702 398 702 496 c 0
 702 607 781 697 926 697 c 2
 928 697 l 1
 1031 696 1081 654 1098 641 c 1
 1135 682 1152 696 1165 696 c 0
 1174 696 1181 690 1181 671 c 2
 1181 481 l 1
 1180 462 1174 458 1157 458 c 0xc240
 1138 458 1134 465 1131 481 c 0
 1113 596 1034 653 927 653 c 0
 833 653 800 596 800 549 c 0xc240
 800 491 850 461 874 452 c 0
 903 441 1035 419 1073 404 c 0
 1142 377 1212 308 1212 204 c 0
 1212 98 1147 -11 984 -11 c 0
 863 -11 803 31 783 45 c 1
 735 -8 727 -10 719 -10 c 0
 702 -10 702 7 702 18 c 2
EndSplineSet
Substitution2: "LC caps to smallcaps subtable" Germandbls.sc
EndChar

StartChar: aacute
Encoding: 225 225 238
Width: 559
Flags: HW
TeX: 648 0
HStem: -5 36<182.486 305.926> 234 31<260.563 357> 416 37<176.254 315.818>
VStem: 31 118<59.3876 166.819> 71 125<313.79 409.804> 357 114<73.2497 234 265 373.233>
AnchorPoint: "below" 251 0 basechar 0
AnchorPoint: "above" 251 642 basechar 0
LayerCount: 2
Fore
SplineSet
178 535 m 1
 306 653 311 662 338 662 c 0xe4
 370 662 397 630 397 599 c 0
 397 553 368 551 203 494 c 1
 178 535 l 1
EndSplineSet
Refer: 110 97 S 1 0 0 1 0 -0 3
AlternateSubs2: "Stilistic set 01 subtable" aacute.vn
AlternateSubs2: "Latin alternatives subtable" aacute.vn
Substitution2: "Latin Vietnamese substitutions subtable" aacute.vn
Substitution2: "LC small to smallcaps subtable" Aacute.sc
EndChar

StartChar: aring
Encoding: 229 229 242
Width: 559
Flags: HW
TeX: 648 0
HStem: -5 36<182.486 305.926> 234 31<260.563 357> 416 37<176.254 315.818> 487 35<192.971 315.238> 626 35<193.575 316.142>
VStem: 31 118<59.3876 166.819> 71 125<313.79 409.804> 135 48<529.283 617.079> 326 48<530.497 617.495> 357 114<73.2497 234 265 373.233>
LayerCount: 2
Fore
SplineSet
135 574 m 0
 135 609 161 661 255 661 c 0
 348 661 374 609 374 574 c 0
 374 539 348 487 253 487 c 0
 161 487 135 539 135 574 c 0
183 574 m 0
 183 524 218 522 252 522 c 0
 290 522 326 524 326 574 c 0
 326 613 307 626 257 626 c 0xf980
 215 626 183 620 183 574 c 0
EndSplineSet
Refer: 110 97 S 1 0 0 1 0 -0 3
Substitution2: "LC small to smallcaps subtable" Aring.sc
EndChar

StartChar: ae
Encoding: 230 230 243
Width: 830
Flags: HW
TeX: 444 0
HStem: -5 36<185.59 317.539 553.132 683.618> 218 33<472 703> 416 37<175.763 315.845 535.075 652.788>
VStem: 37 118<55.0229 155.748> 71 125<313.781 409.804> 358 114<251 354.034> 377 95<109.51 211.95> 703 95<251 351.573> 747 50<79.7715 134.586>
AnchorPoint: "below" 418 0 basechar 0
AnchorPoint: "above" 410 453 basechar 0
LayerCount: 2
Fore
SplineSet
37 103 m 0xf280
 37 161 89 241 358 248 c 1
 358 290 l 2
 358 335 352 366 324 391 c 0
 303 410 276 416 250 416 c 0
 235 416 205 415 175 410 c 1
 179 406 196 390 196 361 c 0
 196 324 168 299 134 299 c 0
 103 299 71 320 71 362 c 0
 72 437 157 453 250 453 c 0
 337 453 390 434 432 397 c 1
 447 410 499 453 599 453 c 0
 758 453 798 337 798 247 c 0xed
 798 219 784 218 767 218 c 2
 472 218 l 1
 473 183 472 35 621 35 c 0
 679 35 727 66 747 112 c 0
 752 123 755 135 774 135 c 0
 787 135 797 129 797 116 c 0
 797 92 748 -5 611 -5 c 0
 500 -5 444 44 427 59 c 1
 408 39 360 -5 227 -5 c 0
 143 -5 37 16 37 103 c 0xf280
155 104 m 0xf4
 155 61 193 31 242 31 c 0
 314 31 377 75 377 124 c 0xf2
 377 143 363 149 358 215 c 1
 341 214 252 210 200 177 c 0
 178 163 155 137 155 104 c 0xf4
472 251 m 1
 703 251 l 1
 700 316 690 416 597 416 c 0xe5
 561 416 524 399 502 368 c 0
 478 334 473 291 472 251 c 1
EndSplineSet
Substitution2: "LC small to smallcaps subtable" AE.sc
EndChar

StartChar: ccedilla
Encoding: 231 231 244
Width: 511
Flags: HW
TeX: 444 170
HStem: -199 36<134 292.16> -60 95<231.396 311.127> 412 41<223.964 357.846>
VStem: 38 128<119.693 321.887> 325 115<-139.53 -75.1307> 341 125<313.79 407.484> 428 49<79.7188 130.908>
AnchorPoint: "above" 291 453 basechar 0
LayerCount: 2
Fore
SplineSet
38 222 m 0
 38 324 99 453 291 453 c 0
 381 453 466 434 466 361 c 0
 466 323 437 299 403 299 c 0
 370 299 341 323 341 360 c 0xf4
 341 386 351 397 360 408 c 1
 347 410 320 412 293 412 c 0
 221 412 187 366 174 316 c 0
 166 284 166 253 166 217 c 0
 166 61 250 35 306 35 c 0
 361 35 406 63 428 113 c 0
 432 123 435 131 453 131 c 0xf2
 467 131 477 129 477 116 c 0xf2
 477 98 441 19 344 0 c 1
 344 -30 l 1
 367 -34 440 -46 440 -110 c 0
 440 -197 277 -199 152 -199 c 2
 134 -199 l 1
 134 -163 l 1
 161 -163 l 2
 213 -163 325 -158 325 -111 c 0xf8
 325 -90 311 -61 230 -60 c 1
 230 -1 l 1
 230 -1 38 23 38 222 c 0
EndSplineSet
Substitution2: "LC small to smallcaps subtable" Ccedilla.sc
EndChar

StartChar: egrave
Encoding: 232 232 245
Width: 527
Flags: HW
TeX: 648 0
HStem: -5 40<227.913 383.007> 218 33<159 399> 416 37<216.966 338.789>
VStem: 31 128<125.63 218 251 326.049>
AnchorPoint: "below" 293 0 basechar 0
AnchorPoint: "above" 278 642 basechar 0
LayerCount: 2
Fore
SplineSet
184 599 m 0
 184 630 210 661 242 662 c 1
 243 662 l 2
 269 662 275 652 363 571 c 0
 376 559 389 547 402 534 c 1
 378 494 l 1
 207 553 184 554 184 599 c 0
EndSplineSet
Refer: 114 101 S 1 0 0 1 0 0 3
AlternateSubs2: "Stilistic set 01 subtable" egrave.vn
AlternateSubs2: "Latin alternatives subtable" egrave.vn
Substitution2: "Latin Vietnamese substitutions subtable" egrave.vn
Substitution2: "LC small to smallcaps subtable" Egrave.sc
EndChar

StartChar: eacute
Encoding: 233 233 246
Width: 527
Flags: HW
TeX: 648 0
HStem: -5 40<227.913 383.007> 218 33<159 399> 416 37<216.966 338.789>
VStem: 31 128<125.63 218 251 326.049>
AnchorPoint: "below" 293 0 basechar 0
AnchorPoint: "above" 278 642 basechar 0
LayerCount: 2
Fore
SplineSet
154 535 m 1
 280 652 286 662 314 662 c 0
 347 662 372 630 372 599 c 0
 372 554 346 552 179 494 c 1
 154 535 l 1
EndSplineSet
Refer: 114 101 S 1 0 0 1 0 0 3
AlternateSubs2: "Stilistic set 01 subtable" eacute.vn
AlternateSubs2: "Latin alternatives subtable" eacute.vn
Substitution2: "Latin Vietnamese substitutions subtable" eacute.vn
Substitution2: "LC small to smallcaps subtable" Eacute.sc
EndChar

StartChar: ecircumflex
Encoding: 234 234 247
Width: 527
Flags: HW
TeX: 648 0
HStem: -5 40<227.913 383.007> 218 33<159 399> 416 37<216.966 338.789>
VStem: 31 128<125.63 218 251 326.049>
AnchorPoint: "below" 293 0 basechar 0
AnchorPoint: "above" 278 638 basechar 0
LayerCount: 2
Fore
SplineSet
103 510 m 1
 262 658 l 1
 263 658 l 1
 421 510 l 1
 391 475 l 1
 390 475 l 1
 263 576 l 1
 262 576 l 1
 135 475 l 1
 134 475 l 1
 103 510 l 1
EndSplineSet
Refer: 114 101 S 1 0 0 1 0 -0 3
AlternateSubs2: "Stilistic set 01 subtable" ecircumflex.vn
AlternateSubs2: "Latin alternatives subtable" ecircumflex.vn
Substitution2: "Latin Vietnamese substitutions subtable" ecircumflex.vn
Substitution2: "LC small to smallcaps subtable" Ecircumflex.sc
EndChar

StartChar: edieresis
Encoding: 235 235 248
Width: 527
Flags: HW
TeX: 690 0
HStem: -5 40<227.913 383.007> 218 33<159 399> 416 37<216.966 338.789> 530 156<96.9981 203.012 320.988 427.012>
VStem: 31 128<125.63 218 251 326.049> 73 155<554.375 661.208> 296 156<554.792 661.208>
AnchorPoint: "below" 293 0 basechar 0
AnchorPoint: "above" 278 666 basechar 0
LayerCount: 2
Fore
SplineSet
73 608 m 0
 73 647 104 686 150 686 c 0
 191 686 228 653 228 608 c 0xf6
 228 564 192 530 151 530 c 0
 104 530 73 569 73 608 c 0
296 608 m 0
 296 651 332 686 374 686 c 0
 415 686 452 653 452 608 c 0
 452 569 420 530 374 530 c 0xf2
 333 530 296 563 296 608 c 0
EndSplineSet
Refer: 114 101 S 1 0 0 1 -0 0 3
Substitution2: "LC small to smallcaps subtable" Edieresis.sc
EndChar

StartChar: idieresis
Encoding: 239 239 252
Width: 383
Flags: HW
TeX: 690 0
HStem: 0 48<79 148 257 319> 394 48<82 146.977> 430 20G<82 257> 530 156<37.9875 143.536 261.464 367.012>
VStem: 13 155<554.395 661.208> 148 109<48 391.678> 237 155<555.36 661.208>
AnchorPoint: "above" 202 666 basechar 0
LayerCount: 2
Fore
SplineSet
79 0 m 1
 79 48 l 1
 148 48 l 1
 148 359 l 2
 148 389 138 394 91 394 c 2xd4
 82 394 l 1
 82 442 l 1xd4
 257 450 l 1xb4
 257 48 l 1
 319 48 l 1
 319 0 l 1
 257 3 223 3 209 3 c 2
 205 3 l 2
 163 3 121 2 79 0 c 1
EndSplineSet
Refer: 18 168 S 1 0 0 1 -84 0 2
Substitution2: "LC small to smallcaps subtable" Idieresis.sc
Ligature2: "Latin ligatures excepting Turkic subtable" i uni0308
EndChar

StartChar: eth
Encoding: 240 240 253
Width: 575
Flags: HW
TeX: 690 0
HStem: -5 40<217.934 353.879> 416 37<219.586 347.085> 655 40<83.6062 175.547>
VStem: 31 128<121.965 318.844> 414 128<122.943 341.56>
LayerCount: 2
Fore
SplineSet
31 219 m 0
 31 369 146 453 282 453 c 0
 334 453 365 434 393 411 c 1
 367 480 333 523 286 568 c 1
 285 568 l 1
 226 531 203 519 193 519 c 0
 187 519 184 523 181 528 c 0
 178 533 176 537 175 543 c 1
 175 554 181 556 250 596 c 1
 205 624 167 645 108 655 c 0
 89 658 83 664 83 671 c 0
 83 681 92 695 136 695 c 0
 247 695 314 646 329 646 c 0
 345 646 408 692 422 692 c 0
 432 692 443 680 443 669 c 0
 443 661 445 656 371 617 c 1
 396 598 413 585 440 555 c 0
 538 447 542 330 542 294 c 2
 542 236 l 2
 542 43 399 -5 286 -5 c 0
 131 -5 31 84 31 219 c 0
159 215 m 0
 159 156 162 63 251 40 c 0
 263 37 274 35 286 35 c 0
 317 35 352 46 376 71 c 0
 413 110 414 173 414 218 c 0
 414 385 337 416 285 416 c 0
 245 416 213 399 193 377 c 0
 163 343 160 294 159 251 c 0
 159 239 159 227 159 215 c 0
EndSplineSet
Substitution2: "LC small to smallcaps subtable" Eth.sc
EndChar

StartChar: oacute
Encoding: 243 243 256
Width: 575
Flags: HW
TeX: 648 0
HStem: -5 40<212.301 357.895> 416 37<216.163 356.962>
VStem: 31 128<121.965 319.067> 414 128<122.79 319.033>
AnchorPoint: "below" 287 0 basechar 0
AnchorPoint: "above" 286 642 basechar 0
LayerCount: 2
Fore
SplineSet
178 535 m 1
 306 653 311 662 338 662 c 0
 370 662 397 630 397 599 c 0
 397 553 368 551 203 494 c 1
 178 535 l 1
EndSplineSet
Refer: 124 111 S 1 0 0 1 0 -0 3
AlternateSubs2: "Stilistic set 01 subtable" oacute.vn
AlternateSubs2: "Latin alternatives subtable" oacute.vn
Substitution2: "Latin Vietnamese substitutions subtable" oacute.vn
Substitution2: "LC small to smallcaps subtable" Oacute.sc
EndChar

StartChar: oe
Encoding: 339 339 260
Width: 894
Flags: HW
TeX: 444 0
HStem: -5 36<215.03 352.084 614.947 747.065> 218 33<536 766> 416 37<214.421 355.021 598.937 716.748>
VStem: 31 117<126.49 323.592> 421 114<109.51 218 251 353.156> 766 95<251 351.73> 810 50<79.7715 134.586>
AnchorPoint: "below" 446 0 basechar 0
AnchorPoint: "above" 467 453 basechar 0
LayerCount: 2
Fore
SplineSet
31 225 m 0
 31 362 133 453 283 453 c 0
 399 453 453 403 476 380 c 1
 477 380 l 1
 495 399 551 453 661 453 c 0
 821 453 861 337 861 247 c 0xfc
 861 219 847 218 831 218 c 2
 535 218 l 1
 536 183 535 35 684 35 c 0
 742 35 790 66 810 112 c 0
 815 123 818 135 837 135 c 0
 850 135 860 129 860 116 c 0xfa
 860 92 812 -5 675 -5 c 0
 557 -5 500 49 478 70 c 1
 456 46 400 -5 283 -5 c 0
 130 -5 31 89 31 225 c 0
148 225 m 2
 148 182 149 122 180 80 c 0
 201 51 238 31 284 31 c 0
 317 31 354 43 380 70 c 0
 418 110 421 174 421 220 c 2
 421 243 l 2
 421 285 417 330 392 365 c 0
 368 399 327 416 284 416 c 0
 249 416 211 405 185 376 c 0
 154 341 149 293 148 248 c 1
 148 225 l 2
536 251 m 1
 766 251 l 1
 763 317 753 416 660 416 c 0xfc
 624 416 588 399 566 368 c 0
 542 335 537 291 536 251 c 1
EndSplineSet
Substitution2: "LC small to smallcaps subtable" OE.sc
EndChar

StartChar: oslash
Encoding: 248 248 261
Width: 575
Flags: HW
TeX: 541 97
HStem: -5 36<207.802 363.162> 416 37<209.864 361.898>
VStem: 31 114<120.154 322.691> 428 114<121.965 320.145>
DStem2: 73 -87 104 -107 0.527363 0.84964<0 132.925 193.132 557.13 618.186 750.262>
LayerCount: 2
Fore
SplineSet
31 219 m 0
 31 354 126 453 286 453 c 0
 330 453 366 445 397 434 c 1
 469 551 l 1
 470 551 l 1
 500 532 l 1
 500 531 l 1
 430 419 l 1
 532 363 542 259 542 219 c 0
 542 84 443 -5 286 -5 c 0
 245 -5 209 1 177 12 c 1
 104 -107 l 1
 73 -88 l 1
 73 -87 l 1
 143 26 l 1
 43 80 31 176 31 219 c 0
145 209 m 2
 145 165 146 116 175 77 c 1
 371 393 l 1
 344 408 322 416 286 416 c 0
 241 416 199 401 174 367 c 0
 147 331 145 280 145 222 c 2
 145 209 l 2
202 52 m 1
 209 48 236 31 287 31 c 0
 428 31 428 148 428 208 c 2
 428 231 l 2
 428 281 427 323 399 367 c 1
 398 367 l 1
 202 52 l 1
EndSplineSet
Substitution2: "LC small to smallcaps subtable" Oslash.sc
EndChar

StartChar: yacute
Encoding: 253 253 266
Width: 606
Flags: HW
TeX: 648 194
ItalicCorrection: 15
HStem: -200 37<107.562 184.818> 397 48<26 90 210 263 409 453.992 506.281 580>
VStem: 22 116<-152.823 -62.2021>
DStem2: 210 397 90 397 0.425225 -0.905088<0 297.047> 267 -20 304 -55 0.424978 0.905204<-142.377 20.7807 163.719 376.737>
AnchorPoint: "below" 301 -194 basechar 0
AnchorPoint: "above" 302 651 basechar 0
LayerCount: 2
Fore
SplineSet
259 535 m 1
 387 653 392 662 419 662 c 0
 451 662 477 630 477 599 c 0
 477 553 448 551 283 494 c 1
 259 535 l 1
EndSplineSet
Refer: 134 121 S 1 0 0 1 -0 -0 3
AlternateSubs2: "Stilistic set 01 subtable" yacute.vn
AlternateSubs2: "Latin alternatives subtable" yacute.vn
Substitution2: "Latin Vietnamese substitutions subtable" yacute.vn
Substitution2: "LC small to smallcaps subtable" Yacute.sc
EndChar

StartChar: thorn
Encoding: 254 254 267
Width: 639
Flags: HW
TeX: 690 194
HStem: -195 48<35 105 219 288> -5 36<271.735 396.068> 409 41<269.652 408.844> 644 47<35 103.698> 680 20G<35 213>
VStem: 105 114<-147 40 71.3134 368.872 401 641.196> 471 128<123.014 323.944>
LayerCount: 2
Fore
SplineSet
35 -147 m 1
 105 -147 l 1
 105 611 l 1
 104 641 89 644 42 644 c 2
 35 644 l 1
 35 691 l 1xf6
 213 700 l 1xee
 213 401 l 1
 241 421 290 450 366 450 c 0
 499 450 599 363 599 223 c 0
 599 81 492 -5 349 -5 c 0
 294 -5 257 11 219 40 c 1
 219 -147 l 1
 288 -147 l 1
 288 -195 l 1
 244 -193 201 -192 157 -192 c 0
 108 -192 72 -194 35 -195 c 1
 35 -147 l 1
218 113 m 0xe6
 218 81 274 31 337 31 c 0
 391 31 471 69 471 224 c 0
 471 338 422 409 348 409 c 0
 284 409 235 370 223 350 c 0
 219 344 219 337 219 330 c 2
 219 120 l 2
 219 118 218 116 218 113 c 0xe6
EndSplineSet
Substitution2: "LC small to smallcaps subtable" Thorn.sc
EndChar

StartChar: germandbls
Encoding: 223 223 268
Width: 597
Flags: HW
TeX: 690 0
HStem: -5 36<360.274 463.028> 0 48<35 105> 397 48<35 105> 663 37<238.666 383.345>
VStem: 35 178<3 48 397 445> 105 108<48 397 445 635.691> 277 71<307.144 404.174> 277 49<66.1626 156.906> 420 48<453.863 630.362> 487 71<56.0542 156.946>
LayerCount: 2
Fore
SplineSet
35 0 m 1
 35 48 l 1x78c0
 105 48 l 1
 105 397 l 1x74c0
 35 397 l 1
 35 445 l 1x78c0
 105 445 l 1
 105 532 l 2
 105 539 104 546 104 553 c 0
 104 670 194 700 300 700 c 0
 345 700 468 697 468 556 c 0
 468 403 403 425 380 417 c 0
 361 411 348 391 348 360 c 0x76c0
 348 299 396 293 410 291 c 0
 439 286 491 280 530 227 c 0
 545 206 558 178 558 140 c 0
 558 75 527 -5 407 -5 c 0
 378 -5 360 0 336 16 c 1
 319 4 305 -5 294 -5 c 0
 280 -5 277 6 277 18 c 2
 277 133 l 1
 278 149 281 157 301 157 c 0xb1c0
 319 157 323 149 326 134 c 0
 339 67 357 31 407 31 c 0xb1c0
 471 31 487 71 487 105 c 0
 487 139 466 162 442 174 c 0
 414 187 375 182 337 206 c 0
 313 221 277 257 277 323 c 0
 277 396 313 446 392 452 c 0
 410 454 419 459 420 550 c 0
 420 598 417 663 303 663 c 0
 215 663 213 607 213 558 c 2
 213 0 l 1x76c0
 174 3 l 1
 35 0 l 1
EndSplineSet
Substitution2: "LC small to smallcaps subtable" Germandbls.sc
EndChar

StartChar: grave.uc
Encoding: 65543 -1 269
Width: 575
Flags: HW
TeX: 633 0
HStem: 515 119<130.074 220.943>
VStem: 115 227<528.065 549.756>
LayerCount: 2
Fore
SplineSet
115 571 m 0
 115 602 139 634 171 634 c 2
 172 634 l 2
 193 634 191 632 342 537 c 1
 326 492 l 1
 280 498 265 501 174 515 c 0
 159 517 115 525 115 571 c 0
EndSplineSet
EndChar

StartChar: acute.uc
Encoding: 65544 -1 270
Width: 575
Flags: HW
TeX: 633 0
HStem: 511 123<351.631 442.724>
VStem: 231 227<528.466 549.5>
LayerCount: 2
Fore
SplineSet
231 537 m 1
 378 630 379 634 401 634 c 2
 402 634 l 2
 434 634 458 602 458 571 c 0
 458 519 407 516 374 511 c 0
 332 504 289 498 247 492 c 1
 231 537 l 1
EndSplineSet
EndChar

StartChar: tilde.uc
Encoding: 65545 -1 271
Width: 575
Flags: HW
TeX: 648 0
HStem: 545 73<281.872 447.408> 579 74<127.455 294.877>
LayerCount: 2
Fore
SplineSet
63 570 m 1
 113 621 135 653 198 653 c 0x40
 258 653 337 618 397 618 c 0x80
 450 618 475 644 485 653 c 1x40
 510 627 l 1
 460 576 439 545 375 545 c 0x80
 316 545 236 579 177 579 c 0x40
 139 579 116 569 88 545 c 1x80
 63 570 l 1
EndSplineSet
EndChar

StartChar: hungarumlaut.uc
Encoding: 65546 -1 273
Width: 575
Flags: HW
TeX: 633 0
ItalicCorrection: 10
HStem: 512 122<446.597 537.984>
LayerCount: 2
Fore
SplineSet
135 537 m 1
 285 632 283 634 307 634 c 2
 308 634 l 1
 331 633 362 612 362 569 c 0
 362 566 361 562 361 559 c 1
 461 622 475 634 497 634 c 0
 532 634 553 599 553 571 c 0
 553 517 497 516 472 512 c 0
 429 505 386 498 343 492 c 1
 332 522 l 1
 275 509 211 503 151 492 c 1
 135 537 l 1
EndSplineSet
EndChar

StartChar: ring.uc
Encoding: 65547 -1 274
Width: 885
Flags: HW
TeX: 648 0
HStem: 478 36<381.052 502.3> 625 36<380.519 501.991>
VStem: 322 48<522.271 616.229> 514 47<523.494 615.06>
LayerCount: 2
Fore
SplineSet
322 569 m 0
 322 606 348 661 442 661 c 0
 514 661 561 624 561 569 c 0
 561 532 535 478 441 478 c 0
 368 478 322 515 322 569 c 0
370 570 m 0
 370 518 403 514 439 514 c 2
 444 514 l 2
 475 514 514 516 514 569 c 0
 514 612 491 625 443 625 c 0
 398 625 370 618 370 570 c 0
EndSplineSet
EndChar

StartChar: twelveudash
Encoding: 61700 61700 275
Width: 766
Flags: HW
TeX: 444 0
ItalicCorrection: 31
HStem: 256 37<0 766>
LayerCount: 2
Fore
SplineSet
0 256 m 1
 0 293 l 1
 766 293 l 1
 766 256 l 1
 0 256 l 1
EndSplineSet
EndChar

StartChar: threequartersemdash
Encoding: 63198 63198 276
Width: 862
Flags: HW
TeX: 444 0
ItalicCorrection: 31
HStem: 256 37<0 862>
LayerCount: 2
Fore
SplineSet
0 256 m 1
 0 293 l 1
 862 293 l 1
 862 256 l 1
 0 256 l 1
EndSplineSet
EndChar

StartChar: arrowleft
Encoding: 8592 8592 277
Width: 1150
Flags: HW
TeX: 391 -108
HStem: 0 21G<269 348> 220 60<223 1083.02>
VStem: 288 60<0 65.5971 433.703 500>
LayerCount: 2
Fore
SplineSet
63 250 m 1
 174 286 261 375 288 500 c 1
 348 500 l 1
 329 406 283 335 223 280 c 1
 1040 280 l 2
 1055 280 1084 280 1084 250 c 0
 1084 221 1057 220 1044 220 c 2
 223 220 l 1
 283 164 329 94 348 0 c 1
 288 0 l 1
 250 171 123 228 63 250 c 1
EndSplineSet
EndChar

StartChar: arrowright
Encoding: 8594 8594 278
Width: 1150
Flags: HW
TeX: 391 -108
HStem: 0 21G<799 873.5> 220 60<65.1426 925>
VStem: 799 61<0 66.1562 437.66 500>
LayerCount: 2
Fore
SplineSet
64 249 m 0
 64 278 90 280 103 280 c 2
 925 280 l 1
 858 342 817 414 799 500 c 1
 860 500 l 1
 899 318 1043 266 1085 250 c 1
 974 214 887 125 860 0 c 1
 799 0 l 1
 818 94 865 164 925 220 c 1
 108 220 l 2
 94 220 64 219 64 249 c 0
EndSplineSet
EndChar

StartChar: uni0361.alt
Encoding: 61701 61701 279
Width: 319
Flags: HW
TeX: 690 0
ItalicCorrection: 311
HStem: 615 52<221.844 507.507>
VStem: 136 49<541.213 584.169>
LayerCount: 2
Fore
SplineSet
136 561 m 0
 136 603 191 667 370 667 c 0
 540 667 596 603 596 561 c 0
 596 550 592 541 575 541 c 0
 531 541 575 574 494 599 c 0
 453 612 410 615 367 615 c 0
 281 615 201 599 185 563 c 0
 180 553 180 541 159 541 c 0
 145 541 136 545 136 561 c 0
EndSplineSet
EndChar

StartChar: uni0361
Encoding: 865 865 280
Width: 0
Flags: HW
TeX: 935 0
ItalicCorrection: 342
HStem: 601 52<-146.923 156.216>
VStem: -262 49<500.187 555.635>
AnchorPoint: "affricate-above" 4 453 mark 0
LayerCount: 2
Fore
SplineSet
-262 521 m 0
 -262 574 -196 653 5 653 c 0
 232 653 269 555 269 521 c 0
 269 507 263 500 247 500 c 0
 202 500 249 544 157 579 c 0
 109 598 56 601 5 601 c 0
 -158 601 -204 553 -213 527 c 0
 -217 515 -215 500 -239 500 c 0
 -240 500 -241 500 -242 500 c 0
 -252 500 -262 505 -262 521 c 0
EndSplineSet
EndChar

StartChar: uni2040.alt
Encoding: 61702 61702 281
Width: 575
Flags: HW
TeX: 690 0
ItalicCorrection: 311
HStem: 615 51<183.621 387.709>
VStem: 415 49<541.197 589.382>
LayerCount: 2
Fore
SplineSet
110 562 m 0
 110 586 134 666 289 666 c 0
 417 666 464 604 464 562 c 0
 464 546 454 541 442 541 c 0
 418 541 419 552 415 564 c 0
 400 606 329 615 289 615 c 0
 155 615 160 559 154 550 c 0
 149 543 141 542 133 542 c 0
 119 542 110 546 110 562 c 0
EndSplineSet
EndChar

StartChar: uni2040
Encoding: 8256 8256 282
Width: 575
Flags: HW
TeX: 690 0
ItalicCorrection: 342
HStem: 601 52<152.135 420.853>
VStem: 46 49<500.149 556.391> 467 61<503.483 565.481>
LayerCount: 2
Fore
SplineSet
46 521 m 0
 46 556 80 653 290 653 c 0
 471 653 528 571 528 521 c 0
 528 508 524 500 504 500 c 0
 473 500 489 522 467 548 c 0
 447 572 399 601 286 601 c 0
 153 601 104 559 95 525 c 0
 92 513 92 500 70 500 c 2
 67 500 l 2
 52 500 46 508 46 521 c 0
EndSplineSet
EndChar

StartChar: uni2422
Encoding: 9250 9250 283
Width: 639
Flags: HW
TeX: 690 0
HStem: -5 36<271.879 406.111> 413 37<274.46 413.358> 638 48<35 103.716> 674 20G<35 213>
VStem: 105 108<80.6232 366.172 402 447 506 541.996 587 635.311> 471 128<125.781 326.011>
DStem2: 30 452 58 413 0.80523 0.592963<0 57.4274 227.407 432.838>
LayerCount: 2
Fore
SplineSet
30 452 m 1
 105 506 l 1
 105 602 l 2
 105 635 92 638 40 638 c 2
 35 638 l 1
 35 686 l 1xec
 213 694 l 1xdc
 213 587 l 1
 379 709 l 1
 407 670 l 1
 234 542 l 2
 217 529 213 528 213 510 c 2
 213 402 l 1
 255 433 303 450 362 450 c 0
 501 450 599 360 599 223 c 0
 599 77 487 -5 349 -5 c 0
 283 -5 240 18 201 56 c 1
 154 1 156 0 136 -0 c 2
 105 -0 l 1
 105 447 l 1
 58 413 l 1
 30 452 l 1
219 121 m 2xcc
 219 106 218 101 229 87 c 0
 256 52 294 31 338 31 c 0
 372 31 410 43 435 71 c 0
 452 90 471 120 471 210 c 2
 471 238 l 2
 471 323 457 349 443 369 c 0
 424 395 391 413 349 413 c 0
 273 413 228 362 223 353 c 0
 219 347 219 339 219 332 c 2
 219 121 l 2xcc
EndSplineSet
EndChar

StartChar: quotesingle
Encoding: 39 39 284
Width: 319
Flags: HW
TeX: 690 0
VStem: 95 127<508.062 696.116>
LayerCount: 2
Fore
SplineSet
95 650 m 0
 95 689 125 710 159 710 c 0
 192 710 222 688 222 650 c 0
 222 641 220 633 219 624 c 2
 177 359 l 1
 140 359 l 1
 100 614 l 2
 98 626 95 638 95 650 c 0
EndSplineSet
EndChar

StartChar: fraction
Encoding: 8260 8260 287
Width: 575
Flags: HW
TeX: 749 249
DStem2: 75 -184 129 -211 0.381111 0.924529<-37.0366 1000.78>
LayerCount: 2
Fore
SplineSet
64 -220 m 0
 64 -210 71 -195 75 -184 c 2
 445 714 l 2
 451 728 459 749 480 749 c 0
 495 749 509 736 509 720 c 0
 509 711 504 699 500 689 c 2
 129 -211 l 2
 124 -224 116 -249 93 -249 c 0
 78 -249 64 -236 64 -220 c 0
EndSplineSet
EndChar

StartChar: zerooldstyle
Encoding: 63280 63280 288
Width: 575
Flags: HW
TeX: 444 0
HStem: -11 37<215.134 358.734> 419 36<211.559 360.342>
VStem: 44 128<97.0121 342.414> 401 128<98.3145 342.758>
LayerCount: 2
Fore
SplineSet
44 218 m 0
 44 387 125 455 287 455 c 0
 481 455 529 355 529 215 c 0
 529 34 422 -11 285 -11 c 0
 128 -11 44 52 44 218 c 0
172 218 m 2
 172 143 175 95 188 71 c 0
 205 40 242 26 286 26 c 0
 397 26 400 95 401 198 c 1
 401 240 l 2
 401 309 398 356 385 377 c 0
 367 407 330 419 287 419 c 0
 179 419 172 362 172 250 c 2
 172 218 l 2
EndSplineSet
EndChar

StartChar: oneoldstyle
Encoding: 63281 63281 289
Width: 575
Flags: HW
TeX: 444 0
HStem: 3 45<96 235 355 495> 360 48<85 232.941> 433 20G<309.5 340>
VStem: 235 120<48 374>
LayerCount: 2
Fore
SplineSet
85 360 m 1
 85 408 l 1
 282 408 291 453 328 453 c 0
 352 453 355 439 355 422 c 2
 355 48 l 1
 495 48 l 1
 495 -0 l 1
 427 2 358 3 290 3 c 2
 285 3 l 2
 261 3 203 3 96 -0 c 1
 96 48 l 1
 235 48 l 1
 235 374 l 1
 191 364 152 360 85 360 c 1
EndSplineSet
EndChar

StartChar: twooldstyle
Encoding: 63282 63282 290
Width: 575
Flags: HW
TeX: 444 0
HStem: 0 116<235 457.209> 408 47<153.378 328.349>
VStem: 63 109<307.583 394.391> 378 138<254.68 367.13> 469 47<138.767 181>
LayerCount: 2
Fore
SplineSet
50 0 m 1
 50 22 l 2
 50 42 53 44 79 60 c 0
 308 206 378 239 378 315 c 0
 378 358 340 408 231 408 c 0
 204 408 177 404 152 395 c 1
 166 382 172 370 172 351 c 0
 172 318 146 297 117 297 c 0
 86 297 63 320 63 354 c 0xf0
 63 435 163 455 271 455 c 0
 482 455 516 372 516 316 c 0xf0
 516 226 422 206 343 170 c 0
 332 165 322 160 235 116 c 1
 254 116 l 2
 297 116 394 116 425 118 c 0
 447 119 458 120 469 181 c 1
 516 181 l 1xe8
 486 0 l 1
 50 0 l 1
EndSplineSet
EndChar

StartChar: threeoldstyle
Encoding: 63283 63283 291
Width: 575
Flags: HW
TeX: 444 194
HStem: -205 43<167.192 333.115> 132 33<193.234 288.928> 416 39<189.953 330.105>
VStem: 47 154<-106.525 0.0426331> 79 140<260.625 360.359> 356 138<242.38 382.527> 373 153<-97.4956 61.0261>
LayerCount: 2
Fore
SplineSet
47 -56 m 0
 47 -5 84 23 124 23 c 0
 166 23 201 -8 201 -54 c 0
 201 -81 188 -113 143 -129 c 1
 162 -140 203 -162 267 -162 c 0
 308 -162 332 -147 348 -126 c 0
 372 -95 373 -53 373 -15 c 0
 373 41 368 82 334 110 c 0
 315 125 295 132 265 132 c 2xf2
 227 132 l 2
 202 132 198 134 193 143 c 0
 189 151 192 162 198 165 c 0
 211 172 255 169 277 176 c 0
 330 192 356 256 356 320 c 0
 356 354 353 416 271 416 c 2
 270 416 l 2
 205 416 170 387 161 380 c 1
 202 372 219 340 219 311 c 0
 219 270 188 241 149 241 c 0
 113 241 79 268 79 313 c 0
 79 380 144 455 277 455 c 0
 410 455 494 400 494 316 c 0xec
 494 200 361 157 352 153 c 1
 440 138 526 82 526 -16 c 0
 526 -92 468 -205 274 -205 c 0
 144 -205 47 -146 47 -56 c 0
EndSplineSet
EndChar

StartChar: fouroldstyle
Encoding: 63284 63284 292
Width: 575
Flags: HW
TeX: 444 194
HStem: -195 48<208 320 445 542> -0 48<86 320 445 542>
VStem: 320 125<-147 0> 331 114<48 326>
DStem2: 43 61 86 48 0.659911 0.751344<18.6087 389.16>
LayerCount: 2
Fore
SplineSet
31 -0 m 1
 31 33 l 2
 31 43 32 48 43 61 c 2
 375 439 l 2
 386 451 391 457 412 457 c 0
 445 457 445 445 445 423 c 2
 445 48 l 1xd0
 542 48 l 1
 542 -0 l 1
 445 -0 l 1
 445 -147 l 1
 542 -147 l 1
 542 -195 l 1
 456 -192 409 -192 389 -192 c 2
 383 -192 l 2
 325 -192 266 -193 208 -195 c 1
 208 -147 l 1
 320 -147 l 1
 320 -0 l 1xe0
 31 -0 l 1
86 48 m 1
 331 48 l 1xd0
 331 326 l 1
 86 48 l 1
EndSplineSet
EndChar

StartChar: fiveoldstyle
Encoding: 63285 63285 293
Width: 575
Flags: HW
TeX: 444 194
HStem: -205 43<174.479 327.724> 175 36<200.909 336.257> 300 124<161.162 339.832> 434 20G<114.5 131.5>
VStem: 57 135<-85.1149 14.625> 107 53<176 307> 375 142<-85.729 97.8965>
LayerCount: 2
Fore
SplineSet
57 -38 m 0
 57 9 91 32 124 32 c 0
 158 32 192 9 192 -35 c 0xfa
 192 -74 165 -99 127 -102 c 1
 155 -135 194 -162 255 -162 c 0
 298 -162 335 -145 355 -113 c 0
 372 -85 375 -45 375 -2 c 2
 375 10 l 2
 375 87 374 139 327 165 c 0
 314 172 298 175 283 175 c 0
 174 175 156 107 129 107 c 0
 125 107 121 108 116 112 c 0
 108 118 107 129 107 138 c 2
 107 425 l 2
 107 436 106 454 123 454 c 0
 140 454 190 424 290 424 c 0
 390 424 441 454 457 454 c 0
 465 454 471 448 471 438 c 0xf6
 471 412 382 300 233 300 c 0
 209 300 184 303 160 307 c 1
 160 176 l 1xf6
 194 197 230 211 290 211 c 0
 428 211 517 127 517 5 c 0
 517 -121 411 -205 259 -205 c 0
 126 -205 57 -114 57 -38 c 0
EndSplineSet
EndChar

StartChar: sevenoldstyle
Encoding: 63287 63287 295
Width: 575
Flags: HW
TeX: 444 194
HStem: 319 126<150.91 416>
VStem: 63 48<222 273> 98 48<454.13 477> 192 126<-189.729 2.43582>
LayerCount: 2
Fore
SplineSet
63 222 m 1xd0
 98 477 l 1
 146 477 l 1
 153 448 176 451 245 448 c 2
 345 445 l 1
 558 445 l 1
 558 426 l 2
 558 404 548 396 538 385 c 0
 414 242 398 225 384 206 c 0
 313 110 318 -54 318 -120 c 2
 318 -134 l 2
 318 -196 274 -205 255 -205 c 0
 232 -205 192 -191 192 -137 c 0xb0
 192 90 359 253 416 319 c 1
 317 319 l 2
 165 319 144 317 136 310 c 0
 122 298 117 261 111 222 c 1
 63 222 l 1xd0
EndSplineSet
EndChar

StartChar: nineoldstyle
Encoding: 63289 63289 297
Width: 575
Flags: HW
TeX: 444 194
HStem: -205 43<154.027 309.62> 30 36<218.378 330.569> 416 39<220.655 344.312>
VStem: 47 136<142.308 340.365> 76 125<-124.007 -30.9051> 388 138<-12.4443 293.035>
LayerCount: 2
Fore
SplineSet
47 242 m 0xf4
 47 301 60 345 106 389 c 0
 157 438 216 455 289 455 c 0
 425 455 526 371 526 131 c 0
 526 -131 357 -205 238 -205 c 0
 149 -205 76 -166 76 -81 c 0
 76 -29 118 -16 139 -16 c 0
 173 -16 201 -42 201 -79 c 0xec
 201 -111 180 -133 153 -140 c 1
 171 -151 194 -162 235 -162 c 0
 312 -162 350 -110 363 -85 c 0
 378 -55 390 -3 390 93 c 0
 390 98 389 102 389 107 c 1
 355 42 307 30 271 30 c 0
 207 30 157 44 111 86 c 0
 66 128 47 175 47 242 c 0xf4
183 215 m 1
 184 143 185 66 278 66 c 0xf4
 344 66 388 131 388 236 c 0
 388 284 385 334 376 355 c 0
 367 378 341 416 289 416 c 0
 183 416 183 335 183 252 c 2
 183 215 l 1
EndSplineSet
EndChar

StartChar: angleleft
Encoding: 9001 9001 298
Width: 447
Flags: HW
TeX: 749 249
VStem: 128 254
DStem2: 132 269 196 265 0.383879 0.923384<-16.1472 511.102> 374 -193 138 217 0.383412 -0.923577<-501.483 27.5712>
LayerCount: 2
Fore
SplineSet
128 250 m 0
 128 257 130 263 132 269 c 2
 317 714 l 2
 323 728 332 749 353 749 c 0
 368 749 382 737 382 719 c 0
 382 710 378 702 375 694 c 2
 196 265 l 2
 190 250 192 246 196 236 c 2
 374 -193 l 2
 378 -202 382 -210 382 -220 c 0
 382 -234 370 -250 352 -250 c 0
 332 -250 324 -230 319 -219 c 2
 138 217 l 2
 135 224 128 238 128 250 c 0
EndSplineSet
EndChar

StartChar: minus
Encoding: 8722 8722 299
Width: 894
Flags: HW
TeX: 633 133
HStem: 232 36<64.0095 827.99>
LayerCount: 2
Fore
SplineSet
64 250 m 0
 64 258 68 268 93 268 c 2
 800 268 l 2
 814 268 828 265 828 250 c 0
 828 243 824 233 803 232 c 1
 92 232 l 2
 77 232 64 235 64 250 c 0
EndSplineSet
EndChar

StartChar: angleright
Encoding: 9002 9002 300
Width: 447
Flags: HW
TeX: 749 249
VStem: 253 65<195.914 307.539>
DStem2: 133 702 91 647 0.385397 -0.922751<-42.6614 463.115> 249 235 314 231 0.384465 0.923139<-490.675 15.168>
LayerCount: 2
Fore
SplineSet
64 -220 m 0
 64 -209 71 -195 72 -192 c 2
 249 235 l 2
 251 240 253 245 253 250 c 0
 253 255 252 259 250 264 c 2
 91 647 l 2
 81 671 64 708 64 720 c 0
 64 733 73 749 93 749 c 0
 117 749 123 724 133 702 c 2
 308 283 l 2
 312 273 318 262 318 250 c 0
 318 243 316 237 314 231 c 2
 132 -206 l 2
 124 -226 116 -250 93 -250 c 0
 78 -250 64 -236 64 -220 c 0
EndSplineSet
EndChar

StartChar: uni2127
Encoding: 8487 8487 301
Width: 830
Flags: HW
TeX: 690 0
HStem: -11 36<320.327 504.223> 583 103<116.167 255 573 711.257>
VStem: 50 48<486 523.838> 63 153<141.981 325.273> 612 153<137.011 324.323> 730 48<486 523.838>
LayerCount: 2
Fore
SplineSet
50 486 m 1xe0
 87 686 l 1
 284 686 l 1
 304 685 310 678 310 656 c 0
 310 521 216 374 216 227 c 0
 216 66 324 25 414 25 c 0
 503 25 612 66 612 227 c 0xd8
 612 368 518 528 518 656 c 0
 518 673 520 685 545 686 c 1
 741 686 l 1
 778 486 l 1
 730 486 l 1xc4
 712 579 719 583 627 583 c 2
 573 583 l 1
 632 460 765 371 765 229 c 0
 765 85 628 -11 416 -11 c 0
 137 -11 63 133 63 229 c 0
 63 371 198 462 255 583 c 1
 201 583 l 2xd8
 110 583 116 580 98 486 c 1
 50 486 l 1xe0
EndSplineSet
EndChar

StartChar: circle
Encoding: 9675 9675 302
Width: 1277
Flags: HW
TeX: 749 249
HStem: -261 61<467.015 811.764> 700 61<463.825 811.863>
VStem: 63 61<110.896 391.634> 1152 61<106.438 393.86>
LayerCount: 2
Fore
SplineSet
63 250 m 0
 63 504 236 761 640 761 c 0
 987 761 1213 553 1213 249 c 0
 1213 -46 997 -261 635 -261 c 0
 289 -261 63 -55 63 250 c 0
124 250 m 0
 124 31 268 -200 637 -200 c 0
 955 -200 1152 -20 1152 250 c 0
 1152 518 956 700 638 700 c 0
 321 700 124 520 124 250 c 0
EndSplineSet
EndChar

StartChar: uni2126
Encoding: 8486 8486 303
Width: 830
Flags: HW
TeX: 690 0
HStem: 0 103<116.254 255 573 711.962> 660 37<320.087 508.2>
VStem: 50 48<162.162 200> 63 153<360.718 543.965> 612 153<361.511 543.965>
DStem2: 718 143 778 200 0.181913 0.983315<-40.325 58.2319>
LayerCount: 2
Fore
SplineSet
50 200 m 1
 98 200 l 1xe8
 115 108 110 103 196 103 c 2
 255 103 l 1
 196 226 63 315 63 457 c 0
 63 553 140 697 414 697 c 0
 690 697 765 553 765 457 c 0
 765 317 637 232 573 103 c 1
 624 103 l 1
 704 104 708 107 718 143 c 0
 723 162 726 181 730 200 c 1
 778 200 l 1
 741 0 l 1
 545 0 l 1
 524 1 518 8 518 30 c 0xd8
 518 165 612 311 612 459 c 0
 612 620 504 660 414 660 c 0
 324 660 216 620 216 459 c 0xd8
 216 311 310 166 310 29 c 0
 310 7 304 0 284 0 c 2
 87 0 l 1
 50 200 l 1
EndSplineSet
EndChar

StartChar: uni301A
Encoding: 12314 12314 304
Width: 463
Flags: HW
TeX: 749 249
HStem: -250 60<189 272 333 437> 690 60<189 272 333 437>
VStem: 129 60<-190 690> 272 61<-190 690>
LayerCount: 2
Fore
SplineSet
129 -250 m 1
 129 750 l 1
 437 750 l 1
 437 690 l 1
 333 690 l 1
 333 -190 l 1
 437 -190 l 1
 437 -250 l 1
 129 -250 l 1
189 -190 m 1
 272 -190 l 1
 272 690 l 1
 189 690 l 1
 189 -190 l 1
EndSplineSet
EndChar

StartChar: uni301B
Encoding: 12315 12315 305
Width: 463
Flags: HW
TeX: 749 249
HStem: -250 60<25 129 190 272> 690 60<25 129 190 272>
VStem: 129 61<-190 690> 272 61<-190 690>
LayerCount: 2
Fore
SplineSet
25 -190 m 1
 129 -190 l 1
 129 690 l 1
 25 690 l 1
 25 750 l 1
 333 750 l 1
 333 -250 l 1
 25 -250 l 1
 25 -190 l 1
190 -190 m 1
 272 -190 l 1
 272 690 l 1
 190 690 l 1
 190 -190 l 1
EndSplineSet
EndChar

StartChar: arrowup
Encoding: 8593 8593 306
Width: 575
Flags: HW
TeX: 690 194
HStem: -194 21G<281 300> 414 61<32 99.3594 474.641 542> 674 20G<267.5 319.5>
VStem: 257 60<-192.818 540>
LayerCount: 2
Fore
SplineSet
32 414 m 1
 32 475 l 1
 160 502 248 587 287 694 c 1
 352 528 484 487 542 475 c 1
 542 414 l 1
 446 433 376 479 317 540 c 1
 317 -154 l 2
 317 -173 313 -194 287 -194 c 0
 275 -194 257 -188 257 -154 c 2
 257 540 l 1
 198 479 128 433 32 414 c 1
EndSplineSet
EndChar

StartChar: arrowdown
Encoding: 8595 8595 307
Width: 575
Flags: HW
TeX: 690 194
HStem: -195 21G<267.5 293> 25 60<32 99.3594 477.559 542> 673 20G<271.5 293>
VStem: 257 60<-40 692.031>
LayerCount: 2
Fore
SplineSet
32 25 m 1
 32 85 l 1
 128 66 198 21 257 -40 c 1
 257 642 l 2
 257 665 256 693 287 693 c 0
 299 693 317 688 317 654 c 2
 317 -40 l 1
 376 21 446 66 542 85 c 1
 542 25 l 1
 354 -15 299 -165 287 -195 c 1
 248 -88 160 -2 32 25 c 1
EndSplineSet
EndChar

StartChar: grave.ts1
Encoding: 61703 61703 308
Width: 575
Flags: HW
TeX: 690 0
HStem: 509 194
VStem: 117 219
LayerCount: 2
Fore
SplineSet
117 641 m 0
 117 672 145 703 177 703 c 0
 207 703 215 688 336 547 c 1
 336 546 l 1
 306 509 l 1
 136 598 117 602 117 641 c 0
EndSplineSet
EndChar

StartChar: uni22C6
Encoding: 8902 8902 309
Width: 575
Flags: HW
TeX: 472 -27
HStem: 1 21G<130 141 433 442>
LayerCount: 2
Fore
SplineSet
26 307 m 0
 26 312 29 323 46 323 c 0
 55 323 217 300 236 297 c 1
 269 500 271 501 287 501 c 0
 304 501 306 495 339 297 c 0
 340 297 521 323 530 323 c 0
 542 323 549 315 549 307 c 0
 548 295 545 293 521 279 c 1
 401 215 386 207 371 200 c 1
 406 123 455 33 455 17 c 0
 455 6 445 1 439 1 c 0
 427 1 424 7 287 138 c 1
 148 4 147 1 135 1 c 0
 125 1 121 5 121 14 c 0
 121 41 162 108 204 200 c 1
 188 208 173 216 48 283 c 0
 28 294 26 299 26 307 c 0
EndSplineSet
EndChar

StartChar: uni26AE
Encoding: 9902 9902 310
Width: 575
Flags: HW
TeX: 472 -27
HStem: 28 75<-98.1315 82.5586 491.351 672.926> 397 75<-99.5421 85.5862 489.717 674.032>
VStem: -229 76<157.34 341.966> 145 56<163.002 335.97> 231 113<-113.603 180.891 327.093 613.588> 250 74<85.8885 550.724> 374 56<164.03 336.998> 728 76<158.317 342.205>
LayerCount: 2
Fore
SplineSet
-229 250 m 0
 -229 385 -140 472 -10 472 c 0
 116 472 201 383 201 250 c 0
 201 115 116 28 -10 28 c 0
 -135 28 -229 112 -229 250 c 0
-153 249 m 0
 -153 133 -85 103 -10 103 c 0
 114 103 145 177 145 249 c 0
 145 321 115 397 -7 397 c 0
 -88 397 -153 368 -153 249 c 0
231 -91 m 0xfb
 231 -82 250 92 250 312 c 0xf7
 250 474 231 579 231 592 c 0
 231 605 237 614 257 614 c 2
 313 614 l 2
 331 614 344 611 344 593 c 0xfb
 344 581 324 472 324 320 c 0xf7
 324 96 344 -82 344 -91 c 0xfb
 344 -109 333 -114 317 -114 c 2
 262 -114 l 2
 246 -114 231 -112 231 -91 c 0xfb
374 250 m 0
 374 385 459 472 585 472 c 0
 714 472 804 384 804 250 c 0
 804 113 711 28 584 28 c 0
 458 28 374 117 374 250 c 0
430 251 m 0
 430 179 460 103 582 103 c 0
 686 103 728 155 728 251 c 0
 728 330 699 397 584 397 c 0xf3
 460 397 430 323 430 251 c 0
EndSplineSet
EndChar

StartChar: uni271D
Encoding: 10013 10013 311
Width: 575
Flags: HW
TeX: 606 24
HStem: 337 74<45.3379 243.203 330.117 527.595>
VStem: 230 113<-24.5112 274.787 406.887 606.362>
LayerCount: 2
Fore
SplineSet
45 366 m 2
 45 382 l 2
 45 405 52 411 71 411 c 0
 89 411 142 404 249 402 c 1
 249 501 231 574 231 586 c 0
 231 606 246 607 268 607 c 2
 311 607 l 2
 326 607 342 605 342 587 c 0
 342 565 324 507 324 402 c 1
 456 405 491 412 506 412 c 0
 524 412 528 397 528 382 c 2
 528 365 l 2
 528 342 521 337 502 337 c 0
 500 337 417 344 324 346 c 1
 329 89 343 24 343 -1 c 0
 343 -20 331 -25 313 -25 c 2
 258 -25 l 2
 236 -25 230 -18 230 2 c 0
 230 36 243 71 249 346 c 1
 124 343 85 337 68 337 c 0
 50 337 45 348 45 366 c 2
EndSplineSet
EndChar

StartChar: leaf
Encoding: 61704 61704 312
Width: 1150
Flags: HW
TeX: 690 0
HStem: -79 36<147.426 478.727> 155 37<353 849> 364 36<698 1023> 737 36<664.617 1002.24>
VStem: 269 37<206 511> 614 36<414 707>
DStem2: 23 35 42 4 0.856097 0.516815<0.2446 287.605 363.652 690.456 766.503 1267.38>
LayerCount: 2
Fore
SplineSet
-17 4 m 0
 -17 64 48 508 492 702 c 0
 593 746 709 773 835 773 c 0
 956 773 1059 747 1137 718 c 0
 1155 711 1167 707 1167 690 c 0
 1167 674 1157 622 1150 589 c 0
 1075 261 809 -12 447 -69 c 0
 404 -76 361 -79 316 -79 c 0
 194 -79 90 -54 12 -24 c 0
 -6 -17 -17 -13 -17 4 c 0
23 35 m 1
 269 184 l 1
 269 511 l 1
 156 404 50 235 23 35 c 1
42 4 m 1
 120 -23 210 -43 315 -43 c 0
 559 -43 746 64 849 155 c 1
 316 155 l 2
 293 155 291 154 278 147 c 0
 88 33 65 19 42 4 c 1
306 206 m 1
 614 392 l 1
 614 707 l 1
 524 680 428 640 329 563 c 0
 307 545 306 542 306 528 c 2
 306 206 l 1
353 192 m 1
 869 192 l 2
 888 192 891 193 907 210 c 0
 951 256 990 307 1023 364 c 1
 656 364 l 1
 638 362 l 1
 622 355 l 1
 353 192 l 1
650 414 m 1
 1108 690 l 1
 1005 725 917 737 835 737 c 0
 773 737 711 730 650 716 c 1
 650 414 l 1
698 400 m 1
 1043 400 l 1
 1073 460 1113 553 1127 659 c 1
 698 400 l 1
EndSplineSet
EndChar

StartChar: uni26AD
Encoding: 9901 9901 313
Width: 575
Flags: HW
TeX: 472 -27
HStem: 28 75<45.621 219.671 354.77 529.315> 54 83<259.436 316.473> 363 83<259.242 315.564> 397 75<45.4204 219.887 355.33 529.094>
VStem: -101 76<167.402 333.082> 173 56<171.01 330.136> 346 56<170.848 329.776> 601 75<169.562 333.288>
LayerCount: 2
Fore
SplineSet
-101 250 m 0
 -101 377 -7 472 155 472 c 0x9f
 238 472 274 446 288 446 c 0x2f
 303 446 337 472 420 472 c 0
 579 472 676 378 676 250 c 0
 676 121 579 28 420 28 c 0x9f
 335 28 302 54 287 54 c 0x4f
 272 54 238 28 155 28 c 0
 -5 28 -101 123 -101 250 c 0
-25 251 m 0
 -25 162 24 103 154 103 c 0
 177 103 199 105 221 108 c 1
 203 134 173 175 173 250 c 0
 173 324 203 366 221 392 c 1
 199 395 176 397 154 397 c 0x9f
 25 397 -25 339 -25 251 c 0
229 250 m 0
 229 178 274 137 288 137 c 0x6f
 300 137 346 175 346 250 c 0
 346 322 301 363 287 363 c 0
 274 363 229 323 229 250 c 0
354 108 m 1
 376 105 398 103 421 103 c 0
 551 103 601 162 601 251 c 0
 601 339 550 397 421 397 c 0
 399 397 376 395 354 392 c 1
 372 365 402 324 402 250 c 0x9f
 402 174 370 132 354 108 c 1
EndSplineSet
EndChar

StartChar: musicalnote
Encoding: 9834 9834 314
Width: 703
Flags: HW
TeX: 690 0
HStem: -36 297<157.8 356.615> 673 20G<417 427>
VStem: 391 60<225 457 557.429 691.733> 581 57<120.391 246.027>
LayerCount: 2
Fore
SplineSet
63 118 m 0
 63 204 148 261 258 261 c 0
 311 261 351 248 391 225 c 1
 391 654 l 2
 391 690 413 693 421 693 c 0
 433 693 445 685 449 673 c 0
 456 655 444 630 477 546 c 0
 526 423 638 297 638 155 c 0
 638 128 620 119 608 119 c 0
 595 119 586 127 581 136 c 1
 572 157 588 201 530 316 c 0
 515 345 498 372 451 457 c 1
 451 124 l 2
 451 10 344 -36 257 -36 c 0
 153 -36 63 26 63 118 c 0
EndSplineSet
EndChar

StartChar: tildelow
Encoding: 61705 61705 315
Width: 703
Flags: HW
TeX: 126 0
HStem: 0 74<374.268 517.878> 53 74<183.212 325.327>
LayerCount: 2
Fore
SplineSet
95 26 m 1
 149 80 186 127 255 127 c 0x40
 325 127 397 74 467 74 c 0x80
 520 74 553 103 580 127 c 1x40
 605 101 l 1
 552 47 514 0 445 0 c 0x80
 369 0 309 53 233 53 c 0x40
 180 53 147 24 120 0 c 1x80
 95 26 l 1
EndSplineSet
EndChar

StartChar: breve.ts1
Encoding: 61707 61707 317
Width: 703
Flags: HW
TeX: 690 0
HStem: 507 63<237.078 462.879> 674 20G<109 147.5 553.5 592>
VStem: 109 36<643.443 694> 556 36<642.819 694>
LayerCount: 2
Fore
SplineSet
109 694 m 1
 145 694 l 1
 150 611 236 570 351 570 c 0
 445 570 551 600 556 694 c 1
 592 694 l 1
 588 562 455 507 350 507 c 0
 243 507 113 564 109 694 c 1
EndSplineSet
EndChar

StartChar: caron.ts1
Encoding: 61708 61708 318
Width: 703
Flags: HW
TeX: 690 0
HStem: 549 166
LayerCount: 2
Fore
SplineSet
132 672 m 1
 153 715 l 1
 154 715 l 1
 351 631 l 1
 547 715 l 1
 568 672 l 1
 350 549 l 1
 132 672 l 1
EndSplineSet
EndChar

StartChar: hungarumlaut.ts1
Encoding: 61709 61709 319
Width: 575
Flags: HW
TeX: 690 0
HStem: 515 194
VStem: 139 160<606.375 682> 330 160<606.375 682>
LayerCount: 2
Fore
SplineSet
139 540 m 1
 188 694 195 709 234 709 c 0
 266 709 299 682 299 649 c 0
 299 619 282 610 179 515 c 1
 139 540 l 1
330 540 m 1
 379 694 386 709 425 709 c 0
 457 709 490 682 490 649 c 0
 490 619 474 610 371 515 c 1
 330 540 l 1
EndSplineSet
EndChar

StartChar: dblgrave.ts1
Encoding: 61710 61710 320
Width: 575
Flags: HW
TeX: 690 0
HStem: 515 195<179.02 194 370.038 385>
LayerCount: 2
Fore
SplineSet
83 649 m 0
 83 682 116 710 148 710 c 0
 194 710 197 677 243 540 c 1
 203 515 l 1
 202 515 l 1
 97 613 83 620 83 649 c 0
275 649 m 0
 275 682 307 710 339 710 c 0
 385 710 388 677 434 540 c 1
 395 515 l 1
 393 515 l 1
 288 613 275 620 275 649 c 0
EndSplineSet
EndChar

StartChar: dagger
Encoding: 8224 8224 321
Width: 511
Flags: HW
TeX: 690 194
HStem: 387 114<75.2859 189.852 318.814 433.714> 679 20G<244.5 265.5>
VStem: 198 114<-37.0266 350.634 543.235 687.599>
LayerCount: 2
Fore
SplineSet
63 444 m 0
 63 475 86 501 121 501 c 0
 162 501 196 472 240 460 c 1
 231 519 198 587 198 637 c 0
 198 687 234 699 255 699 c 0
 276 699 312 687 312 637 c 0
 312 588 278 524 269 460 c 1
 317 473 346 501 387 501 c 0
 424 501 446 475 446 445 c 0
 446 414 423 387 388 387 c 0
 347 387 313 417 269 429 c 1
 282 349 312 324 312 242 c 0
 312 136 304 -13 280 -181 c 0
 278 -195 275 -205 256 -205 c 2
 253 -205 l 2
 229 -205 231 -190 227 -168 c 0
 209 -42 199 91 198 231 c 1
 198 242 l 2
 198 322 227 349 240 429 c 1
 189 415 165 387 122 387 c 0
 85 387 63 414 63 444 c 0
EndSplineSet
EndChar

